<svg xmlns="http://www.w3.org/2000/svg" xmlns:xlink="http://www.w3.org/1999/xlink" width="600" zoomAndPan="magnify" viewBox="0 0 450 449.999984" height="600" preserveAspectRatio="xMidYMid meet" version="1.0"><defs><clipPath id="e45a549bca"><path d="M 350 120 L 447.5625 120 L 447.5625 450 L 350 450 Z M 350 120 " clip-rule="nonzero"/></clipPath><clipPath id="41cfd96033"><path d="M 350 120 L 447.5625 120 L 447.5625 450 L 350 450 Z M 350 120 " clip-rule="nonzero"/></clipPath></defs><path fill="#f39c12" d="M 103.410156 293.164062 L 38.367188 293.164062 C 29.710938 293.164062 22.671875 300.207031 22.671875 308.859375 L 22.671875 434.308594 C 22.671875 442.957031 29.710938 450 38.367188 450 L 103.410156 450 C 112.0625 450 119.105469 442.957031 119.105469 434.308594 L 119.105469 308.859375 C 119.105469 300.207031 112.0625 293.164062 103.410156 293.164062 Z M 99.105469 430 L 42.671875 430 L 42.671875 313.164062 L 99.105469 313.164062 Z M 99.105469 430 " fill-opacity="1" fill-rule="nonzero"/><path fill="#f39c12" d="M 212.71875 245.082031 L 147.671875 245.082031 C 139.019531 245.082031 131.980469 252.125 131.980469 260.777344 L 131.980469 434.308594 C 131.980469 442.960938 139.019531 450 147.671875 450 L 212.71875 450 C 221.371094 450 228.410156 442.960938 228.410156 434.308594 L 228.410156 260.777344 C 228.410156 252.125 221.371094 245.082031 212.71875 245.082031 Z M 208.410156 430 L 151.976562 430 L 151.976562 265.082031 L 208.410156 265.082031 Z M 208.410156 430 " fill-opacity="1" fill-rule="nonzero"/><path fill="#f39c12" d="M 322.023438 206.863281 L 256.976562 206.863281 C 248.328125 206.863281 241.285156 213.90625 241.285156 222.5625 L 241.285156 434.304688 C 241.285156 442.957031 248.328125 450 256.976562 450 L 322.023438 450 C 330.679688 450 337.71875 442.957031 337.71875 434.304688 L 337.71875 222.5625 C 337.71875 213.90625 330.675781 206.863281 322.023438 206.863281 Z M 317.71875 430 L 261.285156 430 L 261.285156 226.863281 L 317.71875 226.863281 Z M 317.71875 430 " fill-opacity="1" fill-rule="nonzero"/><g clip-path="url(#e45a549bca)"><path fill="#f39c12" d="M 431.328125 120.570312 L 366.285156 120.570312 C 357.632812 120.570312 350.59375 127.613281 350.59375 136.265625 L 350.59375 434.308594 C 350.59375 442.957031 357.632812 450 366.285156 450 L 431.328125 450 C 439.980469 450 447.023438 442.957031 447.023438 434.308594 L 447.023438 136.265625 C 447.023438 127.613281 439.980469 120.570312 431.328125 120.570312 Z M 427.023438 430 L 370.59375 430 L 370.59375 140.570312 L 427.023438 140.570312 Z M 427.023438 430 " fill-opacity="1" fill-rule="nonzero"/></g><path fill="#f39c12" d="M 66.804688 249.148438 L 142.476562 178.789062 L 179.066406 211.421875 C 179.765625 212.042969 180.394531 212.523438 180.894531 212.882812 C 181.445312 213.308594 182.015625 213.71875 182.597656 214.121094 C 183.847656 214.980469 185.15625 215.765625 186.484375 216.453125 C 187.335938 216.890625 188.132812 217.277344 188.953125 217.625 C 190.363281 218.21875 191.839844 218.722656 193.449219 219.15625 C 194.230469 219.390625 194.980469 219.582031 195.742188 219.738281 C 198.1875 220.230469 200.488281 220.46875 202.792969 220.46875 L 202.804688 220.46875 C 205.003906 220.46875 207.199219 220.25 209.527344 219.800781 C 210.285156 219.65625 211.003906 219.476562 211.714844 219.277344 C 213.253906 218.882812 214.683594 218.417969 216.070312 217.859375 C 216.859375 217.542969 217.636719 217.1875 218.414062 216.808594 C 219.726562 216.167969 221.03125 215.425781 222.289062 214.597656 C 222.78125 214.28125 223.277344 213.945312 223.769531 213.589844 C 224.265625 213.257812 224.878906 212.820312 225.558594 212.257812 L 405.535156 63.097656 C 420.664062 50.550781 422.769531 28.03125 410.234375 12.898438 C 403.433594 4.699219 393.425781 0 382.777344 0 C 374.503906 0 366.433594 2.902344 360.050781 8.175781 L 203.644531 137.800781 L 165.707031 103.964844 C 164.914062 103.261719 164.195312 102.722656 163.628906 102.324219 C 162.820312 101.703125 162.011719 101.132812 161.191406 100.605469 C 160.222656 99.984375 159.253906 99.433594 158.257812 98.921875 C 157.136719 98.34375 156.058594 97.855469 154.964844 97.425781 C 153.898438 97.007812 152.84375 96.65625 151.761719 96.347656 C 150.605469 96.019531 149.484375 95.753906 148.347656 95.546875 C 147.246094 95.347656 146.160156 95.203125 145.050781 95.109375 C 144.027344 95.019531 142.996094 94.972656 141.957031 94.972656 C 141.886719 94.972656 141.648438 94.976562 141.574219 94.976562 C 140.441406 94.988281 139.351562 95.054688 138.253906 95.171875 C 137.105469 95.289062 135.933594 95.46875 134.796875 95.703125 C 133.714844 95.925781 132.648438 96.199219 131.578125 96.523438 C 130.433594 96.875 129.316406 97.277344 128.25 97.722656 C 127.203125 98.160156 126.175781 98.652344 125.105469 99.226562 C 124.039062 99.800781 123.058594 100.390625 122.097656 101.039062 C 121.316406 101.566406 120.542969 102.136719 119.75 102.773438 C 119.179688 103.191406 118.464844 103.746094 117.695312 104.464844 L 18.257812 196.921875 C 3.863281 210.308594 3.039062 232.910156 16.421875 247.304688 C 23.144531 254.539062 32.664062 258.683594 42.539062 258.683594 C 51.566406 258.683594 60.183594 255.296875 66.804688 249.148438 Z M 31.875 211.566406 L 131.320312 119.109375 C 131.535156 118.910156 131.777344 118.777344 132 118.59375 C 132.414062 118.246094 132.835938 117.921875 133.277344 117.625 C 133.703125 117.335938 134.136719 117.078125 134.582031 116.839844 C 135.03125 116.597656 135.484375 116.375 135.953125 116.179688 C 136.433594 115.980469 136.914062 115.808594 137.40625 115.65625 C 137.875 115.515625 138.339844 115.390625 138.816406 115.292969 C 139.328125 115.191406 139.835938 115.113281 140.351562 115.058594 C 140.832031 115.007812 141.308594 114.976562 141.792969 114.972656 C 141.847656 114.972656 141.90625 114.972656 141.960938 114.972656 C 142.417969 114.972656 142.875 114.992188 143.332031 115.035156 C 143.820312 115.074219 144.296875 115.136719 144.78125 115.226562 C 145.285156 115.316406 145.78125 115.4375 146.277344 115.578125 C 146.75 115.714844 147.210938 115.867188 147.671875 116.046875 C 148.164062 116.238281 148.640625 116.457031 149.113281 116.703125 C 149.546875 116.929688 149.972656 117.167969 150.390625 117.4375 C 150.847656 117.730469 151.285156 118.054688 151.71875 118.398438 C 151.941406 118.574219 152.183594 118.699219 152.398438 118.890625 L 203.167969 164.171875 L 372.792969 23.59375 C 375.71875 21.179688 379.257812 20 382.777344 20 C 387.277344 20 391.738281 21.925781 394.835938 25.65625 C 400.347656 32.316406 399.425781 42.179688 392.769531 47.699219 L 212.785156 196.867188 C 212.628906 196.996094 212.453125 197.082031 212.292969 197.203125 C 211.976562 197.445312 211.65625 197.65625 211.328125 197.871094 C 210.777344 198.230469 210.214844 198.554688 209.636719 198.835938 C 209.296875 199 208.964844 199.160156 208.617188 199.300781 C 207.96875 199.5625 207.308594 199.761719 206.636719 199.933594 C 206.339844 200.007812 206.054688 200.101562 205.753906 200.160156 C 204.777344 200.347656 203.792969 200.464844 202.800781 200.464844 L 202.789062 200.464844 C 201.753906 200.464844 200.722656 200.339844 199.699219 200.132812 C 199.382812 200.070312 199.085938 199.960938 198.773438 199.878906 C 198.078125 199.695312 197.390625 199.476562 196.71875 199.195312 C 196.355469 199.039062 196.003906 198.859375 195.652344 198.679688 C 195.0625 198.375 194.496094 198.03125 193.941406 197.652344 C 193.589844 197.40625 193.246094 197.164062 192.910156 196.886719 C 192.738281 196.746094 192.542969 196.644531 192.375 196.496094 L 142.195312 151.742188 L 53.191406 234.496094 C 50.175781 237.296875 46.351562 238.683594 42.535156 238.683594 C 38.339844 238.683594 34.152344 237.007812 31.066406 233.6875 C 25.183594 227.359375 25.546875 217.457031 31.875 211.566406 Z M 31.875 211.566406 " fill-opacity="1" fill-rule="nonzero"/><path fill="#f39c12" d="M 103.410156 293.164062 L 38.367188 293.164062 C 29.710938 293.164062 22.671875 300.207031 22.671875 308.859375 L 22.671875 434.308594 C 22.671875 442.957031 29.710938 450 38.367188 450 L 103.410156 450 C 112.0625 450 119.105469 442.957031 119.105469 434.308594 L 119.105469 308.859375 C 119.105469 300.207031 112.0625 293.164062 103.410156 293.164062 Z M 99.105469 430 L 42.671875 430 L 42.671875 313.164062 L 99.105469 313.164062 Z M 99.105469 430 " fill-opacity="1" fill-rule="nonzero"/><path fill="#f39c12" d="M 212.71875 245.082031 L 147.671875 245.082031 C 139.019531 245.082031 131.980469 252.125 131.980469 260.777344 L 131.980469 434.308594 C 131.980469 442.960938 139.019531 450 147.671875 450 L 212.71875 450 C 221.371094 450 228.410156 442.960938 228.410156 434.308594 L 228.410156 260.777344 C 228.410156 252.125 221.371094 245.082031 212.71875 245.082031 Z M 208.410156 430 L 151.976562 430 L 151.976562 265.082031 L 208.410156 265.082031 Z M 208.410156 430 " fill-opacity="1" fill-rule="nonzero"/><path fill="#f39c12" d="M 322.023438 206.863281 L 256.976562 206.863281 C 248.328125 206.863281 241.285156 213.90625 241.285156 222.5625 L 241.285156 434.304688 C 241.285156 442.957031 248.328125 450 256.976562 450 L 322.023438 450 C 330.679688 450 337.71875 442.957031 337.71875 434.304688 L 337.71875 222.5625 C 337.71875 213.90625 330.675781 206.863281 322.023438 206.863281 Z M 317.71875 430 L 261.285156 430 L 261.285156 226.863281 L 317.71875 226.863281 Z M 317.71875 430 " fill-opacity="1" fill-rule="nonzero"/><g clip-path="url(#41cfd96033)"><path fill="#f39c12" d="M 431.328125 120.570312 L 366.285156 120.570312 C 357.632812 120.570312 350.59375 127.613281 350.59375 136.265625 L 350.59375 434.308594 C 350.59375 442.957031 357.632812 450 366.285156 450 L 431.328125 450 C 439.980469 450 447.023438 442.957031 447.023438 434.308594 L 447.023438 136.265625 C 447.023438 127.613281 439.980469 120.570312 431.328125 120.570312 Z M 427.023438 430 L 370.59375 430 L 370.59375 140.570312 L 427.023438 140.570312 Z M 427.023438 430 " fill-opacity="1" fill-rule="nonzero"/></g><path fill="#f39c12" d="M 66.804688 249.148438 L 142.476562 178.789062 L 179.066406 211.421875 C 179.765625 212.042969 180.394531 212.523438 180.894531 212.882812 C 181.445312 213.308594 182.015625 213.71875 182.597656 214.121094 C 183.847656 214.980469 185.15625 215.765625 186.484375 216.453125 C 187.335938 216.890625 188.132812 217.277344 188.953125 217.625 C 190.363281 218.21875 191.839844 218.722656 193.449219 219.15625 C 194.230469 219.390625 194.980469 219.582031 195.742188 219.738281 C 198.1875 220.230469 200.488281 220.46875 202.792969 220.46875 L 202.804688 220.46875 C 205.003906 220.46875 207.199219 220.25 209.527344 219.800781 C 210.285156 219.65625 211.003906 219.476562 211.714844 219.277344 C 213.253906 218.882812 214.683594 218.417969 216.070312 217.859375 C 216.859375 217.542969 217.636719 217.1875 218.414062 216.808594 C 219.726562 216.167969 221.03125 215.425781 222.289062 214.597656 C 222.78125 214.28125 223.277344 213.945312 223.769531 213.589844 C 224.265625 213.257812 224.878906 212.820312 225.558594 212.257812 L 405.535156 63.097656 C 420.664062 50.550781 422.769531 28.03125 410.234375 12.898438 C 403.433594 4.699219 393.425781 0 382.777344 0 C 374.503906 0 366.433594 2.902344 360.050781 8.175781 L 203.644531 137.800781 L 165.707031 103.964844 C 164.914062 103.261719 164.195312 102.722656 163.628906 102.324219 C 162.820312 101.703125 162.011719 101.132812 161.191406 100.605469 C 160.222656 99.984375 159.253906 99.433594 158.257812 98.921875 C 157.136719 98.34375 156.058594 97.855469 154.964844 97.425781 C 153.898438 97.007812 152.84375 96.65625 151.761719 96.347656 C 150.605469 96.019531 149.484375 95.753906 148.347656 95.546875 C 147.246094 95.347656 146.160156 95.203125 145.050781 95.109375 C 144.027344 95.019531 142.996094 94.972656 141.957031 94.972656 C 141.886719 94.972656 141.648438 94.976562 141.574219 94.976562 C 140.441406 94.988281 139.351562 95.054688 138.253906 95.171875 C 137.105469 95.289062 135.933594 95.46875 134.796875 95.703125 C 133.714844 95.925781 132.648438 96.199219 131.578125 96.523438 C 130.433594 96.875 129.316406 97.277344 128.25 97.722656 C 127.203125 98.160156 126.175781 98.652344 125.105469 99.226562 C 124.039062 99.800781 123.058594 100.390625 122.097656 101.039062 C 121.316406 101.566406 120.542969 102.136719 119.75 102.773438 C 119.179688 103.191406 118.464844 103.746094 117.695312 104.464844 L 18.257812 196.921875 C 3.863281 210.308594 3.039062 232.910156 16.421875 247.304688 C 23.144531 254.539062 32.664062 258.683594 42.539062 258.683594 C 51.566406 258.683594 60.183594 255.296875 66.804688 249.148438 Z M 31.875 211.566406 L 131.320312 119.109375 C 131.535156 118.910156 131.777344 118.777344 132 118.59375 C 132.414062 118.246094 132.835938 117.921875 133.277344 117.625 C 133.703125 117.335938 134.136719 117.078125 134.582031 116.839844 C 135.03125 116.597656 135.484375 116.375 135.953125 116.179688 C 136.433594 115.980469 136.914062 115.808594 137.40625 115.65625 C 137.875 115.515625 138.339844 115.390625 138.816406 115.292969 C 139.328125 115.191406 139.835938 115.113281 140.351562 115.058594 C 140.832031 115.007812 141.308594 114.976562 141.792969 114.972656 C 141.847656 114.972656 141.90625 114.972656 141.960938 114.972656 C 142.417969 114.972656 142.875 114.992188 143.332031 115.035156 C 143.820312 115.074219 144.296875 115.136719 144.78125 115.226562 C 145.285156 115.316406 145.78125 115.4375 146.277344 115.578125 C 146.75 115.714844 147.210938 115.867188 147.671875 116.046875 C 148.164062 116.238281 148.640625 116.457031 149.113281 116.703125 C 149.546875 116.929688 149.972656 117.167969 150.390625 117.4375 C 150.847656 117.730469 151.285156 118.054688 151.71875 118.398438 C 151.941406 118.574219 152.183594 118.699219 152.398438 118.890625 L 203.167969 164.171875 L 372.792969 23.59375 C 375.71875 21.179688 379.257812 20 382.777344 20 C 387.277344 20 391.738281 21.925781 394.835938 25.65625 C 400.347656 32.316406 399.425781 42.179688 392.769531 47.699219 L 212.785156 196.867188 C 212.628906 196.996094 212.453125 197.082031 212.292969 197.203125 C 211.976562 197.445312 211.65625 197.65625 211.328125 197.871094 C 210.777344 198.230469 210.214844 198.554688 209.636719 198.835938 C 209.296875 199 208.964844 199.160156 208.617188 199.300781 C 207.96875 199.5625 207.308594 199.761719 206.636719 199.933594 C 206.339844 200.007812 206.054688 200.101562 205.753906 200.160156 C 204.777344 200.347656 203.792969 200.464844 202.800781 200.464844 L 202.789062 200.464844 C 201.753906 200.464844 200.722656 200.339844 199.699219 200.132812 C 199.382812 200.070312 199.085938 199.960938 198.773438 199.878906 C 198.078125 199.695312 197.390625 199.476562 196.71875 199.195312 C 196.355469 199.039062 196.003906 198.859375 195.652344 198.679688 C 195.0625 198.375 194.496094 198.03125 193.941406 197.652344 C 193.589844 197.40625 193.246094 197.164062 192.910156 196.886719 C 192.738281 196.746094 192.542969 196.644531 192.375 196.496094 L 142.195312 151.742188 L 53.191406 234.496094 C 50.175781 237.296875 46.351562 238.683594 42.535156 238.683594 C 38.339844 238.683594 34.152344 237.007812 31.066406 233.6875 C 25.183594 227.359375 25.546875 217.457031 31.875 211.566406 Z M 31.875 211.566406 " fill-opacity="1" fill-rule="nonzero"/></svg>