<svg xmlns="http://www.w3.org/2000/svg" xmlns:xlink="http://www.w3.org/1999/xlink" width="600" zoomAndPan="magnify" viewBox="0 0 450 449.999984" height="600" preserveAspectRatio="xMidYMid meet" version="1.0"><defs><clipPath id="c753042905"><path d="M 53 45.84375 L 396 45.84375 L 396 404.34375 L 53 404.34375 Z M 53 45.84375 " clip-rule="nonzero"/></clipPath><clipPath id="8a9b24ff42"><path d="M 53 45.84375 L 396 45.84375 L 396 404.34375 L 53 404.34375 Z M 53 45.84375 " clip-rule="nonzero"/></clipPath></defs><g clip-path="url(#c753042905)"><path fill="#f39c12" d="M 320.035156 404.128906 L 129.703125 404.128906 C 87.785156 404.128906 53.777344 370.121094 53.777344 328.472656 L 53.777344 205.097656 C 53.777344 163.179688 87.785156 129.175781 129.703125 129.175781 L 216.695312 129.175781 L 216.960938 100.175781 C 205.625 96.75 197.1875 86.203125 197.1875 73.550781 C 197.1875 58.261719 209.84375 45.871094 225.132812 45.871094 C 240.421875 45.871094 253.074219 58.261719 253.074219 73.550781 C 253.074219 86.203125 244.375 97.011719 232.777344 100.4375 L 232.511719 129.175781 L 320.035156 129.175781 C 361.6875 129.175781 395.695312 163.179688 395.695312 205.097656 L 395.695312 328.734375 C 395.695312 370.386719 361.6875 404.128906 320.035156 404.128906 Z M 153.425781 284.445312 C 131.019531 284.445312 113.355469 266.785156 113.355469 244.640625 C 113.355469 222.230469 131.019531 204.570312 153.425781 204.570312 C 175.835938 204.570312 193.234375 222.230469 193.234375 244.640625 C 193.234375 266.785156 175.835938 284.445312 153.425781 284.445312 Z M 153.425781 220.386719 C 139.71875 220.386719 129.175781 230.929688 129.175781 244.640625 C 129.175781 258.085938 139.71875 268.628906 153.425781 268.628906 C 166.871094 268.628906 177.679688 258.085938 177.679688 244.640625 C 177.679688 230.929688 166.871094 220.386719 153.425781 220.386719 Z M 296.574219 282.863281 C 274.164062 282.863281 256.238281 264.9375 256.238281 242.792969 C 256.238281 220.648438 274.164062 202.722656 296.574219 202.722656 C 318.453125 202.722656 336.378906 220.648438 336.378906 242.792969 C 336.378906 264.9375 318.453125 282.863281 296.574219 282.863281 Z M 296.574219 218.542969 C 282.863281 218.542969 272.054688 229.613281 272.054688 242.792969 C 272.054688 256.238281 282.863281 267.3125 296.574219 267.3125 C 310.015625 267.3125 320.5625 256.238281 320.5625 242.792969 C 320.5625 229.085938 309.753906 218.542969 296.574219 218.542969 Z M 221.96875 330.84375 C 206.941406 330.84375 193.761719 323.726562 186.378906 317.398438 C 182.953125 314.5 182.6875 309.226562 185.589844 306.328125 C 188.488281 303.164062 193.234375 302.636719 196.660156 305.800781 C 199.035156 307.910156 221.96875 326.097656 243.847656 306.0625 C 247.011719 303.164062 251.757812 303.164062 255.183594 306.328125 C 258.085938 309.753906 258.085938 314.5 254.921875 317.664062 C 243.847656 327.152344 232.511719 330.84375 221.96875 330.84375 Z M 221.96875 330.84375 " fill-opacity="1" fill-rule="evenodd"/></g><path fill="#f39c12" d="M 37.960938 319.507812 L 34.796875 319.507812 C 15.816406 319.507812 0 303.953125 0 284.710938 L 0 230.929688 C 0 211.6875 15.816406 195.871094 34.796875 195.871094 L 38.488281 195.871094 C 38.226562 198.769531 37.960938 201.933594 37.960938 205.097656 Z M 37.960938 319.507812 " fill-opacity="1" fill-rule="evenodd"/><path fill="#f39c12" d="M 414.675781 319.507812 L 411.511719 319.507812 L 411.511719 205.097656 C 411.511719 201.667969 411.246094 198.507812 410.984375 195.605469 L 414.675781 195.605469 C 434.183594 195.605469 450 211.160156 450 230.667969 L 450 284.710938 C 450 304.21875 434.183594 319.507812 414.675781 319.507812 Z M 414.675781 319.507812 " fill-opacity="1" fill-rule="evenodd"/><g clip-path="url(#8a9b24ff42)"><path fill="#f39c12" d="M 320.035156 404.128906 L 129.703125 404.128906 C 87.785156 404.128906 53.777344 370.121094 53.777344 328.472656 L 53.777344 205.097656 C 53.777344 163.179688 87.785156 129.175781 129.703125 129.175781 L 216.695312 129.175781 L 216.960938 100.175781 C 205.625 96.75 197.1875 86.203125 197.1875 73.550781 C 197.1875 58.261719 209.84375 45.871094 225.132812 45.871094 C 240.421875 45.871094 253.074219 58.261719 253.074219 73.550781 C 253.074219 86.203125 244.375 97.011719 232.777344 100.4375 L 232.511719 129.175781 L 320.035156 129.175781 C 361.6875 129.175781 395.695312 163.179688 395.695312 205.097656 L 395.695312 328.734375 C 395.695312 370.386719 361.6875 404.128906 320.035156 404.128906 Z M 153.425781 284.445312 C 131.019531 284.445312 113.355469 266.785156 113.355469 244.640625 C 113.355469 222.230469 131.019531 204.570312 153.425781 204.570312 C 175.835938 204.570312 193.234375 222.230469 193.234375 244.640625 C 193.234375 266.785156 175.835938 284.445312 153.425781 284.445312 Z M 153.425781 220.386719 C 139.71875 220.386719 129.175781 230.929688 129.175781 244.640625 C 129.175781 258.085938 139.71875 268.628906 153.425781 268.628906 C 166.871094 268.628906 177.679688 258.085938 177.679688 244.640625 C 177.679688 230.929688 166.871094 220.386719 153.425781 220.386719 Z M 296.574219 282.863281 C 274.164062 282.863281 256.238281 264.9375 256.238281 242.792969 C 256.238281 220.648438 274.164062 202.722656 296.574219 202.722656 C 318.453125 202.722656 336.378906 220.648438 336.378906 242.792969 C 336.378906 264.9375 318.453125 282.863281 296.574219 282.863281 Z M 296.574219 218.542969 C 282.863281 218.542969 272.054688 229.613281 272.054688 242.792969 C 272.054688 256.238281 282.863281 267.3125 296.574219 267.3125 C 310.015625 267.3125 320.5625 256.238281 320.5625 242.792969 C 320.5625 229.085938 309.753906 218.542969 296.574219 218.542969 Z M 221.96875 330.84375 C 206.941406 330.84375 193.761719 323.726562 186.378906 317.398438 C 182.953125 314.5 182.6875 309.226562 185.589844 306.328125 C 188.488281 303.164062 193.234375 302.636719 196.660156 305.800781 C 199.035156 307.910156 221.96875 326.097656 243.847656 306.0625 C 247.011719 303.164062 251.757812 303.164062 255.183594 306.328125 C 258.085938 309.753906 258.085938 314.5 254.921875 317.664062 C 243.847656 327.152344 232.511719 330.84375 221.96875 330.84375 Z M 221.96875 330.84375 " fill-opacity="1" fill-rule="evenodd"/></g><path fill="#f39c12" d="M 37.960938 319.507812 L 34.796875 319.507812 C 15.816406 319.507812 0 303.953125 0 284.710938 L 0 230.929688 C 0 211.6875 15.816406 195.871094 34.796875 195.871094 L 38.488281 195.871094 C 38.226562 198.769531 37.960938 201.933594 37.960938 205.097656 Z M 37.960938 319.507812 " fill-opacity="1" fill-rule="evenodd"/><path fill="#f39c12" d="M 414.675781 319.507812 L 411.511719 319.507812 L 411.511719 205.097656 C 411.511719 201.667969 411.246094 198.507812 410.984375 195.605469 L 414.675781 195.605469 C 434.183594 195.605469 450 211.160156 450 230.667969 L 450 284.710938 C 450 304.21875 434.183594 319.507812 414.675781 319.507812 Z M 414.675781 319.507812 " fill-opacity="1" fill-rule="evenodd"/></svg>