<svg xmlns="http://www.w3.org/2000/svg" xmlns:xlink="http://www.w3.org/1999/xlink" width="400" zoomAndPan="magnify" viewBox="0 0 300 74.999997" height="100" preserveAspectRatio="xMidYMid meet" version="1.0"><defs><g/></defs><g fill="#c3c3c3" fill-opacity="1"><g transform="translate(93.972655, 66.227797)"><g><path d="M 18.296875 -33.84375 C 30.128906 -33.84375 36.046875 -28.203125 36.046875 -16.921875 C 36.046875 -5.640625 30.128906 0 18.296875 0 L 3.640625 0 L 3.640625 -33.84375 Z M 14.515625 -8.109375 L 18.09375 -8.109375 C 22.65625 -8.109375 24.9375 -10.550781 24.9375 -15.4375 L 24.9375 -18.390625 C 24.9375 -23.273438 22.65625 -25.71875 18.09375 -25.71875 L 14.515625 -25.71875 Z M 14.515625 -8.109375 "/></g></g></g><g fill="#c3c3c3" fill-opacity="1"><g transform="translate(132.23754, 66.227797)"><g><path d="M 23.125 -25.1875 L 23.125 0 L 12.25 0 L 12.25 -25.1875 L 1.125 -25.1875 L 1.125 -33.84375 L 34.1875 -33.84375 L 34.1875 -25.1875 Z M 23.125 -25.1875 "/></g></g></g><g fill="#c3c3c3" fill-opacity="1"><g transform="translate(167.748142, 66.227797)"><g><path d="M 19.765625 -34.4375 C 24.785156 -34.4375 28.753906 -33.179688 31.671875 -30.671875 C 34.585938 -28.160156 36.046875 -24.578125 36.046875 -19.921875 L 25.671875 -19.921875 C 25.671875 -21.890625 25.15625 -23.445312 24.125 -24.59375 C 23.09375 -25.738281 21.625 -26.3125 19.71875 -26.3125 C 17.519531 -26.3125 15.90625 -25.625 14.875 -24.25 C 13.84375 -22.875 13.328125 -20.957031 13.328125 -18.5 L 13.328125 -15.34375 C 13.328125 -12.914062 13.84375 -11.003906 14.875 -9.609375 C 15.90625 -8.222656 17.488281 -7.53125 19.625 -7.53125 C 21.726562 -7.53125 23.316406 -8.066406 24.390625 -9.140625 C 25.472656 -10.222656 26.015625 -11.75 26.015625 -13.71875 L 36.046875 -13.71875 C 36.046875 -9.09375 34.628906 -5.550781 31.796875 -3.09375 C 28.960938 -0.632812 24.953125 0.59375 19.765625 0.59375 C 13.992188 0.59375 9.625 -0.878906 6.65625 -3.828125 C 3.695312 -6.785156 2.21875 -11.148438 2.21875 -16.921875 C 2.21875 -22.691406 3.695312 -27.050781 6.65625 -30 C 9.625 -32.957031 13.992188 -34.4375 19.765625 -34.4375 Z M 19.765625 -34.4375 "/></g></g></g><g fill="#c3c3c3" fill-opacity="1"><g transform="translate(50.916616, 22.288857)"><g><path d="M 9.15625 -16.9375 C 15.070312 -16.9375 18.03125 -14.113281 18.03125 -8.46875 C 18.03125 -2.820312 15.070312 0 9.15625 0 L 1.828125 0 L 1.828125 -16.9375 Z M 7.265625 -4.0625 L 9.0625 -4.0625 C 11.34375 -4.0625 12.484375 -5.285156 12.484375 -7.734375 L 12.484375 -9.203125 C 12.484375 -11.648438 11.34375 -12.875 9.0625 -12.875 L 7.265625 -12.875 Z M 7.265625 -4.0625 "/></g></g></g><g fill="#c3c3c3" fill-opacity="1"><g transform="translate(70.053585, 22.288857)"><g><path d="M 8.1875 -13.28125 C 10.570312 -13.28125 12.390625 -12.722656 13.640625 -11.609375 C 14.898438 -10.492188 15.53125 -8.789062 15.53125 -6.5 L 15.53125 -5.65625 L 5.78125 -5.65625 C 5.78125 -4.71875 5.988281 -4.007812 6.40625 -3.53125 C 6.820312 -3.0625 7.484375 -2.828125 8.390625 -2.828125 C 9.210938 -2.828125 9.816406 -3 10.203125 -3.34375 C 10.585938 -3.6875 10.78125 -4.144531 10.78125 -4.71875 L 15.53125 -4.71875 C 15.53125 -3.144531 14.929688 -1.914062 13.734375 -1.03125 C 12.535156 -0.144531 10.785156 0.296875 8.484375 0.296875 C 6.078125 0.296875 4.207031 -0.265625 2.875 -1.390625 C 1.550781 -2.515625 0.890625 -4.21875 0.890625 -6.5 C 0.890625 -8.726562 1.535156 -10.414062 2.828125 -11.5625 C 4.128906 -12.707031 5.914062 -13.28125 8.1875 -13.28125 Z M 8.390625 -10.15625 C 6.847656 -10.15625 5.988281 -9.425781 5.8125 -7.96875 L 10.578125 -7.96875 C 10.578125 -8.644531 10.382812 -9.175781 10 -9.5625 C 9.613281 -9.957031 9.078125 -10.15625 8.390625 -10.15625 Z M 8.390625 -10.15625 "/></g></g></g><g fill="#c3c3c3" fill-opacity="1"><g transform="translate(86.460211, 22.288857)"><g><path d="M 4.921875 0 L 0 -13 L 5.265625 -13 L 7.65625 -4.890625 L 7.828125 -4.890625 L 10.21875 -13 L 15.03125 -13 L 10.0625 0 Z M 4.921875 0 "/></g></g></g><g fill="#c3c3c3" fill-opacity="1"><g transform="translate(101.489369, 22.288857)"><g><path d="M 8.1875 -13.28125 C 10.570312 -13.28125 12.390625 -12.722656 13.640625 -11.609375 C 14.898438 -10.492188 15.53125 -8.789062 15.53125 -6.5 L 15.53125 -5.65625 L 5.78125 -5.65625 C 5.78125 -4.71875 5.988281 -4.007812 6.40625 -3.53125 C 6.820312 -3.0625 7.484375 -2.828125 8.390625 -2.828125 C 9.210938 -2.828125 9.816406 -3 10.203125 -3.34375 C 10.585938 -3.6875 10.78125 -4.144531 10.78125 -4.71875 L 15.53125 -4.71875 C 15.53125 -3.144531 14.929688 -1.914062 13.734375 -1.03125 C 12.535156 -0.144531 10.785156 0.296875 8.484375 0.296875 C 6.078125 0.296875 4.207031 -0.265625 2.875 -1.390625 C 1.550781 -2.515625 0.890625 -4.21875 0.890625 -6.5 C 0.890625 -8.726562 1.535156 -10.414062 2.828125 -11.5625 C 4.128906 -12.707031 5.914062 -13.28125 8.1875 -13.28125 Z M 8.390625 -10.15625 C 6.847656 -10.15625 5.988281 -9.425781 5.8125 -7.96875 L 10.578125 -7.96875 C 10.578125 -8.644531 10.382812 -9.175781 10 -9.5625 C 9.613281 -9.957031 9.078125 -10.15625 8.390625 -10.15625 Z M 8.390625 -10.15625 "/></g></g></g><g fill="#c3c3c3" fill-opacity="1"><g transform="translate(117.895996, 22.288857)"><g><path d="M 1.65625 0 L 1.65625 -17.84375 L 6.546875 -17.84375 L 6.546875 0 Z M 1.65625 0 "/></g></g></g><g fill="#c3c3c3" fill-opacity="1"><g transform="translate(126.087013, 22.288857)"><g><path d="M 8.1875 -13.28125 C 10.46875 -13.28125 12.257812 -12.703125 13.5625 -11.546875 C 14.875 -10.390625 15.53125 -8.707031 15.53125 -6.5 C 15.53125 -4.28125 14.875 -2.59375 13.5625 -1.4375 C 12.257812 -0.28125 10.46875 0.296875 8.1875 0.296875 C 5.914062 0.296875 4.128906 -0.273438 2.828125 -1.421875 C 1.535156 -2.578125 0.890625 -4.269531 0.890625 -6.5 C 0.890625 -8.726562 1.535156 -10.414062 2.828125 -11.5625 C 4.128906 -12.707031 5.914062 -13.28125 8.1875 -13.28125 Z M 8.1875 -9.96875 C 6.582031 -9.96875 5.78125 -9.039062 5.78125 -7.1875 L 5.78125 -5.78125 C 5.78125 -3.945312 6.582031 -3.03125 8.1875 -3.03125 C 9.8125 -3.03125 10.625 -3.945312 10.625 -5.78125 L 10.625 -7.1875 C 10.625 -9.039062 9.8125 -9.96875 8.1875 -9.96875 Z M 8.1875 -9.96875 "/></g></g></g><g fill="#c3c3c3" fill-opacity="1"><g transform="translate(142.493639, 22.288857)"><g><path d="M 10.046875 -13.28125 C 11.796875 -13.28125 13.144531 -12.707031 14.09375 -11.5625 C 15.050781 -10.414062 15.53125 -8.71875 15.53125 -6.46875 C 15.53125 -4.238281 15.050781 -2.550781 14.09375 -1.40625 C 13.144531 -0.269531 11.796875 0.296875 10.046875 0.296875 C 8.535156 0.296875 7.316406 -0.195312 6.390625 -1.1875 L 6.390625 4.84375 L 1.5 4.84375 L 1.5 -13 L 5.484375 -13 L 5.90625 -11.140625 C 6.851562 -12.566406 8.234375 -13.28125 10.046875 -13.28125 Z M 8.515625 -9.671875 C 7.796875 -9.671875 7.253906 -9.414062 6.890625 -8.90625 C 6.523438 -8.394531 6.34375 -7.734375 6.34375 -6.921875 L 6.34375 -6.109375 C 6.34375 -5.285156 6.523438 -4.613281 6.890625 -4.09375 C 7.253906 -3.582031 7.796875 -3.328125 8.515625 -3.328125 C 9.921875 -3.328125 10.625 -4.171875 10.625 -5.859375 L 10.625 -7.15625 C 10.625 -8.832031 9.921875 -9.671875 8.515625 -9.671875 Z M 8.515625 -9.671875 "/></g></g></g><g fill="#c3c3c3" fill-opacity="1"><g transform="translate(158.900266, 22.288857)"><g><path d="M 8.1875 -13.28125 C 10.570312 -13.28125 12.390625 -12.722656 13.640625 -11.609375 C 14.898438 -10.492188 15.53125 -8.789062 15.53125 -6.5 L 15.53125 -5.65625 L 5.78125 -5.65625 C 5.78125 -4.71875 5.988281 -4.007812 6.40625 -3.53125 C 6.820312 -3.0625 7.484375 -2.828125 8.390625 -2.828125 C 9.210938 -2.828125 9.816406 -3 10.203125 -3.34375 C 10.585938 -3.6875 10.78125 -4.144531 10.78125 -4.71875 L 15.53125 -4.71875 C 15.53125 -3.144531 14.929688 -1.914062 13.734375 -1.03125 C 12.535156 -0.144531 10.785156 0.296875 8.484375 0.296875 C 6.078125 0.296875 4.207031 -0.265625 2.875 -1.390625 C 1.550781 -2.515625 0.890625 -4.21875 0.890625 -6.5 C 0.890625 -8.726562 1.535156 -10.414062 2.828125 -11.5625 C 4.128906 -12.707031 5.914062 -13.28125 8.1875 -13.28125 Z M 8.390625 -10.15625 C 6.847656 -10.15625 5.988281 -9.425781 5.8125 -7.96875 L 10.578125 -7.96875 C 10.578125 -8.644531 10.382812 -9.175781 10 -9.5625 C 9.613281 -9.957031 9.078125 -10.15625 8.390625 -10.15625 Z M 8.390625 -10.15625 "/></g></g></g><g fill="#c3c3c3" fill-opacity="1"><g transform="translate(175.306893, 22.288857)"><g><path d="M 9.375 -13.3125 C 9.75 -13.3125 10.082031 -13.265625 10.375 -13.171875 C 10.675781 -13.085938 10.828125 -13.035156 10.828125 -13.015625 L 10.828125 -8.90625 L 9.25 -8.90625 C 8.238281 -8.90625 7.503906 -8.640625 7.046875 -8.109375 C 6.597656 -7.585938 6.375 -6.8125 6.375 -5.78125 L 6.375 0 L 1.46875 0 L 1.46875 -13 L 5.484375 -13 L 5.8125 -11.03125 C 6.101562 -11.78125 6.566406 -12.347656 7.203125 -12.734375 C 7.847656 -13.117188 8.570312 -13.3125 9.375 -13.3125 Z M 9.375 -13.3125 "/></g></g></g><g fill="#c3c3c3" fill-opacity="1"><g transform="translate(186.228252, 22.288857)"><g><path d="M 7.65625 -13.28125 C 9.394531 -13.28125 10.863281 -12.941406 12.0625 -12.265625 C 13.269531 -11.585938 13.875 -10.535156 13.875 -9.109375 L 9.328125 -9.109375 C 9.328125 -9.578125 9.113281 -9.910156 8.6875 -10.109375 C 8.394531 -10.273438 8.023438 -10.359375 7.578125 -10.359375 C 6.398438 -10.359375 5.8125 -10.082031 5.8125 -9.53125 C 5.8125 -9.21875 6.015625 -8.992188 6.421875 -8.859375 C 6.828125 -8.722656 7.5 -8.582031 8.4375 -8.4375 C 9.582031 -8.269531 10.539062 -8.078125 11.3125 -7.859375 C 12.09375 -7.640625 12.769531 -7.242188 13.34375 -6.671875 C 13.914062 -6.109375 14.203125 -5.320312 14.203125 -4.3125 C 14.203125 -2.65625 13.582031 -1.472656 12.34375 -0.765625 C 11.101562 -0.0546875 9.484375 0.296875 7.484375 0.296875 C 6.335938 0.296875 5.253906 0.132812 4.234375 -0.1875 C 3.210938 -0.507812 2.378906 -1.003906 1.734375 -1.671875 C 1.097656 -2.347656 0.78125 -3.203125 0.78125 -4.234375 L 5.34375 -4.234375 L 5.34375 -4.140625 C 5.351562 -3.578125 5.582031 -3.1875 6.03125 -2.96875 C 6.488281 -2.75 6.972656 -2.640625 7.484375 -2.640625 C 8.847656 -2.640625 9.53125 -2.957031 9.53125 -3.59375 C 9.53125 -3.914062 9.316406 -4.148438 8.890625 -4.296875 C 8.460938 -4.453125 7.765625 -4.613281 6.796875 -4.78125 C 5.628906 -4.96875 4.671875 -5.175781 3.921875 -5.40625 C 3.179688 -5.644531 2.53125 -6.035156 1.96875 -6.578125 C 1.40625 -7.128906 1.125 -7.898438 1.125 -8.890625 C 1.125 -10.472656 1.726562 -11.597656 2.9375 -12.265625 C 4.144531 -12.941406 5.71875 -13.28125 7.65625 -13.28125 Z M 7.65625 -13.28125 "/></g></g></g><g fill="#c3c3c3" fill-opacity="1"><g transform="translate(201.25741, 22.288857)"><g/></g></g><g fill="#c3c3c3" fill-opacity="1"><g transform="translate(209.448426, 22.288857)"><g><path d="M 6.390625 -11.78125 C 7.328125 -12.78125 8.546875 -13.28125 10.046875 -13.28125 C 11.796875 -13.28125 13.144531 -12.710938 14.09375 -11.578125 C 15.050781 -10.441406 15.53125 -8.753906 15.53125 -6.515625 C 15.53125 -4.273438 15.050781 -2.578125 14.09375 -1.421875 C 13.144531 -0.273438 11.796875 0.296875 10.046875 0.296875 C 8.234375 0.296875 6.851562 -0.414062 5.90625 -1.84375 L 5.484375 0 L 1.5 0 L 1.5 -17.84375 L 6.390625 -17.84375 Z M 8.515625 -9.671875 C 7.796875 -9.671875 7.253906 -9.410156 6.890625 -8.890625 C 6.523438 -8.378906 6.34375 -7.710938 6.34375 -6.890625 L 6.34375 -6.078125 C 6.34375 -5.253906 6.523438 -4.585938 6.890625 -4.078125 C 7.253906 -3.578125 7.796875 -3.328125 8.515625 -3.328125 C 9.921875 -3.328125 10.625 -4.160156 10.625 -5.828125 L 10.625 -7.140625 C 10.625 -8.828125 9.921875 -9.671875 8.515625 -9.671875 Z M 8.515625 -9.671875 "/></g></g></g><g fill="#c3c3c3" fill-opacity="1"><g transform="translate(225.855053, 22.288857)"><g><path d="M 10.40625 -0.390625 C 9.738281 1.429688 8.914062 2.8125 7.9375 3.75 C 6.957031 4.695312 5.59375 5.171875 3.84375 5.171875 C 2.769531 5.171875 1.828125 5.019531 1.015625 4.71875 L 1.015625 1.796875 L 2.984375 1.796875 C 4.210938 1.796875 4.941406 1.195312 5.171875 0 L 0 -13 L 5.265625 -13 L 7.75 -4.359375 L 7.921875 -4.359375 L 10.21875 -13 L 15.03125 -13 Z M 10.40625 -0.390625 "/></g></g></g><g fill="#c3c3c3" fill-opacity="1"><g transform="translate(240.88926, 22.288857)"><g/></g></g></svg>