<svg xmlns="http://www.w3.org/2000/svg" xmlns:xlink="http://www.w3.org/1999/xlink" width="500" zoomAndPan="magnify" viewBox="0 0 375 374.999991" height="500" preserveAspectRatio="xMidYMid meet" version="1.0"><defs><clipPath id="5d28b4b751"><path d="M 134 21.328125 L 241 21.328125 L 241 99 L 134 99 Z M 134 21.328125 " clip-rule="nonzero"/></clipPath><clipPath id="8f77914272"><path d="M 0.046875 312.675781 L 374.953125 312.675781 L 374.953125 353.578125 L 0.046875 353.578125 Z M 0.046875 312.675781 " clip-rule="nonzero"/></clipPath><clipPath id="2268cb1f8d"><path d="M 134 21.328125 L 241 21.328125 L 241 99 L 134 99 Z M 134 21.328125 " clip-rule="nonzero"/></clipPath><clipPath id="139c156aa8"><path d="M 0.046875 312.675781 L 374.953125 312.675781 L 374.953125 353.578125 L 0.046875 353.578125 Z M 0.046875 312.675781 " clip-rule="nonzero"/></clipPath></defs><path fill="#f39c12" d="M 90.097656 312.636719 L 284.902344 312.636719 L 293.507812 197.5 C 293.578125 196.546875 293.121094 195.902344 292.839844 195.601562 C 292.5625 195.300781 291.953125 194.796875 291 194.796875 L 84 194.796875 C 83.046875 194.796875 82.4375 195.300781 82.15625 195.601562 C 81.878906 195.902344 81.421875 196.546875 81.492188 197.5 Z M 289.675781 322.925781 L 85.324219 322.925781 C 82.628906 322.925781 80.390625 320.847656 80.191406 318.164062 L 71.230469 198.265625 C 70.964844 194.726562 72.199219 191.203125 74.613281 188.601562 C 77.03125 186 80.449219 184.507812 84 184.507812 L 291 184.507812 C 294.550781 184.507812 297.96875 186 300.386719 188.601562 C 302.800781 191.203125 304.035156 194.726562 303.769531 198.265625 L 294.808594 318.164062 C 294.609375 320.847656 292.371094 322.925781 289.675781 322.925781 " fill-opacity="1" fill-rule="nonzero"/><path fill="#f39c12" d="M 187.5 193.328125 C 185.945312 193.328125 184.472656 192.625 183.496094 191.414062 L 163.160156 166.207031 C 162.425781 165.292969 162.019531 164.152344 162.019531 162.976562 L 162.019531 144.929688 C 162.019531 142.085938 164.324219 139.78125 167.167969 139.78125 C 170.007812 139.78125 172.3125 142.085938 172.3125 144.929688 L 172.3125 161.160156 L 187.5 179.984375 L 202.6875 161.160156 L 202.6875 144.929688 C 202.6875 142.085938 204.992188 139.78125 207.832031 139.78125 C 210.675781 139.78125 212.980469 142.085938 212.980469 144.929688 L 212.980469 162.976562 C 212.980469 164.152344 212.578125 165.292969 211.839844 166.207031 L 191.503906 191.414062 C 190.527344 192.625 189.054688 193.328125 187.5 193.328125 " fill-opacity="1" fill-rule="nonzero"/><g clip-path="url(#5d28b4b751)"><path fill="#f39c12" d="M 235.390625 98.207031 C 232.550781 98.207031 230.246094 95.90625 230.246094 93.0625 L 230.246094 74.367188 C 230.246094 50.878906 211.140625 31.703125 187.65625 31.621094 C 187.605469 31.621094 187.554688 31.621094 187.503906 31.621094 C 176.269531 31.621094 165.632812 36.054688 157.539062 44.121094 C 149.292969 52.335938 144.75 63.210938 144.75 74.738281 L 144.75 93.0625 C 144.75 95.90625 142.449219 98.207031 139.605469 98.207031 C 136.765625 98.207031 134.460938 95.90625 134.460938 93.0625 L 134.460938 74.738281 C 134.460938 67.535156 135.890625 60.523438 138.714844 53.894531 C 141.441406 47.5 145.332031 41.757812 150.277344 36.832031 C 160.3125 26.828125 173.527344 21.328125 187.503906 21.328125 C 187.570312 21.328125 187.632812 21.328125 187.695312 21.328125 C 201.820312 21.378906 215.09375 26.917969 225.066406 36.925781 C 235.042969 46.9375 240.539062 60.234375 240.539062 74.367188 L 240.539062 93.0625 C 240.539062 95.90625 238.234375 98.207031 235.390625 98.207031 " fill-opacity="1" fill-rule="nonzero"/></g><path fill="#f39c12" d="M 157.1875 88.808594 L 157.1875 115.789062 C 157.1875 132.503906 170.785156 146.101562 187.5 146.101562 C 204.214844 146.101562 217.8125 132.503906 217.8125 115.789062 L 217.8125 85.664062 L 208.042969 74.753906 C 192.550781 86.453125 167.964844 88.496094 157.1875 88.808594 Z M 187.5 156.394531 C 165.113281 156.394531 146.898438 138.179688 146.898438 115.789062 L 146.898438 83.691406 C 146.898438 82.300781 147.460938 80.96875 148.460938 80 C 149.457031 79.03125 150.800781 78.507812 152.195312 78.550781 C 152.566406 78.558594 189.351562 79.4375 204.867188 63.921875 C 205.867188 62.921875 207.238281 62.378906 208.648438 62.417969 C 210.058594 62.457031 211.394531 63.074219 212.335938 64.128906 L 226.789062 80.257812 C 227.636719 81.203125 228.101562 82.425781 228.101562 83.691406 L 228.101562 115.789062 C 228.101562 138.179688 209.886719 156.394531 187.5 156.394531 " fill-opacity="1" fill-rule="nonzero"/><path fill="#f39c12" d="M 146.898438 96.234375 C 142.742188 96.289062 139.375 99.6875 139.375 103.859375 C 139.375 108.027344 142.742188 111.425781 146.898438 111.484375 Z M 152.042969 121.777344 L 147 121.777344 C 137.121094 121.777344 129.085938 113.738281 129.085938 103.859375 C 129.085938 93.980469 137.121094 85.941406 147 85.941406 L 152.042969 85.941406 C 154.882812 85.941406 157.1875 88.246094 157.1875 91.089844 L 157.1875 116.628906 C 157.1875 119.472656 154.882812 121.777344 152.042969 121.777344 " fill-opacity="1" fill-rule="nonzero"/><path fill="#f39c12" d="M 228.101562 96.234375 L 228.101562 111.484375 C 232.257812 111.425781 235.625 108.027344 235.625 103.859375 C 235.625 99.6875 232.257812 96.289062 228.101562 96.234375 Z M 228 121.777344 L 222.957031 121.777344 C 220.117188 121.777344 217.8125 119.472656 217.8125 116.628906 L 217.8125 91.089844 C 217.8125 88.246094 220.117188 85.941406 222.957031 85.941406 L 228 85.941406 C 237.878906 85.941406 245.917969 93.980469 245.917969 103.859375 C 245.917969 113.738281 237.878906 121.777344 228 121.777344 " fill-opacity="1" fill-rule="nonzero"/><path fill="#f39c12" d="M 103.984375 194.796875 C 102.851562 194.796875 101.710938 194.425781 100.757812 193.660156 C 98.546875 191.878906 98.195312 188.640625 99.976562 186.425781 C 105.679688 179.34375 113.285156 174.179688 121.976562 171.492188 L 165.828125 157.941406 C 168.542969 157.105469 171.421875 158.632812 172.253906 161.351562 C 173.085938 164.066406 171.558594 166.945312 168.84375 167.78125 L 168.675781 167.832031 L 125.015625 181.324219 C 118.289062 183.402344 112.40625 187.398438 107.996094 192.878906 C 106.980469 194.140625 105.488281 194.796875 103.984375 194.796875 " fill-opacity="1" fill-rule="nonzero"/><path fill="#f39c12" d="M 271.015625 194.796875 C 269.511719 194.796875 268.019531 194.140625 267.003906 192.878906 C 262.59375 187.398438 256.707031 183.402344 249.980469 181.324219 L 206.15625 167.777344 C 203.441406 166.945312 201.914062 164.066406 202.746094 161.351562 C 203.578125 158.632812 206.457031 157.105469 209.175781 157.941406 L 209.34375 157.992188 L 253.023438 171.492188 C 261.714844 174.179688 269.324219 179.34375 275.023438 186.425781 C 276.804688 188.640625 276.453125 191.878906 274.242188 193.660156 C 273.289062 194.425781 272.148438 194.796875 271.015625 194.796875 " fill-opacity="1" fill-rule="nonzero"/><path fill="#f39c12" d="M 162.179688 278.980469 C 161.082031 278.980469 159.976562 278.628906 159.039062 277.910156 L 132.957031 257.789062 C 131.695312 256.816406 130.953125 255.3125 130.953125 253.714844 C 130.953125 252.121094 131.695312 250.617188 132.957031 249.640625 L 159.039062 229.523438 C 161.289062 227.789062 164.519531 228.207031 166.257812 230.457031 C 167.992188 232.707031 167.574219 235.9375 165.324219 237.671875 L 144.527344 253.714844 L 165.324219 269.757812 C 167.574219 271.492188 167.992188 274.726562 166.257812 276.976562 C 165.242188 278.292969 163.71875 278.980469 162.179688 278.980469 " fill-opacity="1" fill-rule="nonzero"/><path fill="#f39c12" d="M 212.820312 278.980469 C 211.28125 278.980469 209.757812 278.292969 208.742188 276.976562 C 207.007812 274.726562 207.425781 271.492188 209.675781 269.757812 L 230.472656 253.714844 L 209.675781 237.671875 C 207.425781 235.9375 207.007812 232.707031 208.742188 230.457031 C 210.480469 228.207031 213.710938 227.789062 215.960938 229.523438 L 242.042969 249.640625 C 243.304688 250.617188 244.046875 252.121094 244.046875 253.714844 C 244.046875 255.3125 243.304688 256.816406 242.042969 257.789062 L 215.960938 277.910156 C 215.023438 278.628906 213.917969 278.980469 212.820312 278.980469 " fill-opacity="1" fill-rule="nonzero"/><path fill="#f39c12" d="M 178.003906 294.308594 C 177.566406 294.308594 177.117188 294.253906 176.671875 294.132812 C 173.925781 293.398438 172.296875 290.578125 173.03125 287.832031 L 192.027344 216.9375 C 192.761719 214.191406 195.582031 212.5625 198.328125 213.300781 C 201.074219 214.035156 202.703125 216.855469 201.96875 219.601562 L 182.972656 290.492188 C 182.355469 292.792969 180.277344 294.308594 178.003906 294.308594 " fill-opacity="1" fill-rule="nonzero"/><g clip-path="url(#8f77914272)"><path fill="#f39c12" d="M 10.347656 343.378906 L 364.652344 343.378906 C 364.324219 332.09375 355.046875 323.015625 343.6875 323.015625 L 31.3125 323.015625 C 19.953125 323.015625 10.671875 332.09375 10.347656 343.378906 Z M 369.808594 353.667969 L 5.191406 353.667969 C 2.351562 353.667969 0.046875 351.363281 0.046875 348.523438 L 0.046875 343.988281 C 0.046875 326.75 14.070312 312.722656 31.3125 312.722656 L 343.6875 312.722656 C 360.929688 312.722656 374.953125 326.75 374.953125 343.988281 L 374.953125 348.523438 C 374.953125 351.363281 372.648438 353.667969 369.808594 353.667969 " fill-opacity="1" fill-rule="nonzero"/></g><path fill="#f39c12" d="M 90.097656 312.636719 L 284.902344 312.636719 L 293.507812 197.5 C 293.578125 196.546875 293.121094 195.902344 292.839844 195.601562 C 292.5625 195.300781 291.953125 194.796875 291 194.796875 L 84 194.796875 C 83.046875 194.796875 82.4375 195.300781 82.15625 195.601562 C 81.878906 195.902344 81.421875 196.546875 81.492188 197.5 Z M 289.675781 322.925781 L 85.324219 322.925781 C 82.628906 322.925781 80.390625 320.847656 80.191406 318.164062 L 71.230469 198.265625 C 70.964844 194.726562 72.199219 191.203125 74.613281 188.601562 C 77.03125 186 80.449219 184.507812 84 184.507812 L 291 184.507812 C 294.550781 184.507812 297.96875 186 300.386719 188.601562 C 302.800781 191.203125 304.035156 194.726562 303.769531 198.265625 L 294.808594 318.164062 C 294.609375 320.847656 292.371094 322.925781 289.675781 322.925781 " fill-opacity="1" fill-rule="nonzero"/><path fill="#f39c12" d="M 187.5 193.328125 C 185.945312 193.328125 184.472656 192.625 183.496094 191.414062 L 163.160156 166.207031 C 162.425781 165.292969 162.019531 164.152344 162.019531 162.976562 L 162.019531 144.929688 C 162.019531 142.085938 164.324219 139.78125 167.167969 139.78125 C 170.007812 139.78125 172.3125 142.085938 172.3125 144.929688 L 172.3125 161.160156 L 187.5 179.984375 L 202.6875 161.160156 L 202.6875 144.929688 C 202.6875 142.085938 204.992188 139.78125 207.832031 139.78125 C 210.675781 139.78125 212.980469 142.085938 212.980469 144.929688 L 212.980469 162.976562 C 212.980469 164.152344 212.578125 165.292969 211.839844 166.207031 L 191.503906 191.414062 C 190.527344 192.625 189.054688 193.328125 187.5 193.328125 " fill-opacity="1" fill-rule="nonzero"/><g clip-path="url(#2268cb1f8d)"><path fill="#f39c12" d="M 235.390625 98.207031 C 232.550781 98.207031 230.246094 95.90625 230.246094 93.0625 L 230.246094 74.367188 C 230.246094 50.878906 211.140625 31.703125 187.65625 31.621094 C 187.605469 31.621094 187.554688 31.621094 187.503906 31.621094 C 176.269531 31.621094 165.632812 36.054688 157.539062 44.121094 C 149.292969 52.335938 144.75 63.210938 144.75 74.738281 L 144.75 93.0625 C 144.75 95.90625 142.449219 98.207031 139.605469 98.207031 C 136.765625 98.207031 134.460938 95.90625 134.460938 93.0625 L 134.460938 74.738281 C 134.460938 67.535156 135.890625 60.523438 138.714844 53.894531 C 141.441406 47.5 145.332031 41.757812 150.277344 36.832031 C 160.3125 26.828125 173.527344 21.328125 187.503906 21.328125 C 187.570312 21.328125 187.632812 21.328125 187.695312 21.328125 C 201.820312 21.378906 215.09375 26.917969 225.066406 36.925781 C 235.042969 46.9375 240.539062 60.234375 240.539062 74.367188 L 240.539062 93.0625 C 240.539062 95.90625 238.234375 98.207031 235.390625 98.207031 " fill-opacity="1" fill-rule="nonzero"/></g><path fill="#f39c12" d="M 157.1875 88.808594 L 157.1875 115.789062 C 157.1875 132.503906 170.785156 146.101562 187.5 146.101562 C 204.214844 146.101562 217.8125 132.503906 217.8125 115.789062 L 217.8125 85.664062 L 208.042969 74.753906 C 192.550781 86.453125 167.964844 88.496094 157.1875 88.808594 Z M 187.5 156.394531 C 165.113281 156.394531 146.898438 138.179688 146.898438 115.789062 L 146.898438 83.691406 C 146.898438 82.300781 147.460938 80.96875 148.460938 80 C 149.457031 79.03125 150.800781 78.507812 152.195312 78.550781 C 152.566406 78.558594 189.351562 79.4375 204.867188 63.921875 C 205.867188 62.921875 207.238281 62.378906 208.648438 62.417969 C 210.058594 62.457031 211.394531 63.074219 212.335938 64.128906 L 226.789062 80.257812 C 227.636719 81.203125 228.101562 82.425781 228.101562 83.691406 L 228.101562 115.789062 C 228.101562 138.179688 209.886719 156.394531 187.5 156.394531 " fill-opacity="1" fill-rule="nonzero"/><path fill="#f39c12" d="M 146.898438 96.234375 C 142.742188 96.289062 139.375 99.6875 139.375 103.859375 C 139.375 108.027344 142.742188 111.425781 146.898438 111.484375 Z M 152.042969 121.777344 L 147 121.777344 C 137.121094 121.777344 129.085938 113.738281 129.085938 103.859375 C 129.085938 93.980469 137.121094 85.941406 147 85.941406 L 152.042969 85.941406 C 154.882812 85.941406 157.1875 88.246094 157.1875 91.089844 L 157.1875 116.628906 C 157.1875 119.472656 154.882812 121.777344 152.042969 121.777344 " fill-opacity="1" fill-rule="nonzero"/><path fill="#f39c12" d="M 228.101562 96.234375 L 228.101562 111.484375 C 232.257812 111.425781 235.625 108.027344 235.625 103.859375 C 235.625 99.6875 232.257812 96.289062 228.101562 96.234375 Z M 228 121.777344 L 222.957031 121.777344 C 220.117188 121.777344 217.8125 119.472656 217.8125 116.628906 L 217.8125 91.089844 C 217.8125 88.246094 220.117188 85.941406 222.957031 85.941406 L 228 85.941406 C 237.878906 85.941406 245.917969 93.980469 245.917969 103.859375 C 245.917969 113.738281 237.878906 121.777344 228 121.777344 " fill-opacity="1" fill-rule="nonzero"/><path fill="#f39c12" d="M 103.984375 194.796875 C 102.851562 194.796875 101.710938 194.425781 100.757812 193.660156 C 98.546875 191.878906 98.195312 188.640625 99.976562 186.425781 C 105.679688 179.34375 113.285156 174.179688 121.976562 171.492188 L 165.828125 157.941406 C 168.542969 157.105469 171.421875 158.632812 172.253906 161.351562 C 173.085938 164.066406 171.558594 166.945312 168.84375 167.78125 L 168.675781 167.832031 L 125.015625 181.324219 C 118.289062 183.402344 112.40625 187.398438 107.996094 192.878906 C 106.980469 194.140625 105.488281 194.796875 103.984375 194.796875 " fill-opacity="1" fill-rule="nonzero"/><path fill="#f39c12" d="M 271.015625 194.796875 C 269.511719 194.796875 268.019531 194.140625 267.003906 192.878906 C 262.59375 187.398438 256.707031 183.402344 249.980469 181.324219 L 206.15625 167.777344 C 203.441406 166.945312 201.914062 164.066406 202.746094 161.351562 C 203.578125 158.632812 206.457031 157.105469 209.175781 157.941406 L 209.34375 157.992188 L 253.023438 171.492188 C 261.714844 174.179688 269.324219 179.34375 275.023438 186.425781 C 276.804688 188.640625 276.453125 191.878906 274.242188 193.660156 C 273.289062 194.425781 272.148438 194.796875 271.015625 194.796875 " fill-opacity="1" fill-rule="nonzero"/><path fill="#f39c12" d="M 162.179688 278.980469 C 161.082031 278.980469 159.976562 278.628906 159.039062 277.910156 L 132.957031 257.789062 C 131.695312 256.816406 130.953125 255.3125 130.953125 253.714844 C 130.953125 252.121094 131.695312 250.617188 132.957031 249.640625 L 159.039062 229.523438 C 161.289062 227.789062 164.519531 228.207031 166.257812 230.457031 C 167.992188 232.707031 167.574219 235.9375 165.324219 237.671875 L 144.527344 253.714844 L 165.324219 269.757812 C 167.574219 271.492188 167.992188 274.726562 166.257812 276.976562 C 165.242188 278.292969 163.71875 278.980469 162.179688 278.980469 " fill-opacity="1" fill-rule="nonzero"/><path fill="#f39c12" d="M 212.820312 278.980469 C 211.28125 278.980469 209.757812 278.292969 208.742188 276.976562 C 207.007812 274.726562 207.425781 271.492188 209.675781 269.757812 L 230.472656 253.714844 L 209.675781 237.671875 C 207.425781 235.9375 207.007812 232.707031 208.742188 230.457031 C 210.480469 228.207031 213.710938 227.789062 215.960938 229.523438 L 242.042969 249.640625 C 243.304688 250.617188 244.046875 252.121094 244.046875 253.714844 C 244.046875 255.3125 243.304688 256.816406 242.042969 257.789062 L 215.960938 277.910156 C 215.023438 278.628906 213.917969 278.980469 212.820312 278.980469 " fill-opacity="1" fill-rule="nonzero"/><path fill="#f39c12" d="M 178.003906 294.308594 C 177.566406 294.308594 177.117188 294.253906 176.671875 294.132812 C 173.925781 293.398438 172.296875 290.578125 173.03125 287.832031 L 192.027344 216.9375 C 192.761719 214.191406 195.582031 212.5625 198.328125 213.300781 C 201.074219 214.035156 202.703125 216.855469 201.96875 219.601562 L 182.972656 290.492188 C 182.355469 292.792969 180.277344 294.308594 178.003906 294.308594 " fill-opacity="1" fill-rule="nonzero"/><g clip-path="url(#139c156aa8)"><path fill="#f39c12" d="M 10.347656 343.378906 L 364.652344 343.378906 C 364.324219 332.09375 355.046875 323.015625 343.6875 323.015625 L 31.3125 323.015625 C 19.953125 323.015625 10.671875 332.09375 10.347656 343.378906 Z M 369.808594 353.667969 L 5.191406 353.667969 C 2.351562 353.667969 0.046875 351.363281 0.046875 348.523438 L 0.046875 343.988281 C 0.046875 326.75 14.070312 312.722656 31.3125 312.722656 L 343.6875 312.722656 C 360.929688 312.722656 374.953125 326.75 374.953125 343.988281 L 374.953125 348.523438 C 374.953125 351.363281 372.648438 353.667969 369.808594 353.667969 " fill-opacity="1" fill-rule="nonzero"/></g></svg>