<svg xmlns="http://www.w3.org/2000/svg" xmlns:xlink="http://www.w3.org/1999/xlink" width="600" zoomAndPan="magnify" viewBox="0 0 450 449.999984" height="600" preserveAspectRatio="xMidYMid meet" version="1.0"><defs><clipPath id="588e3de7b2"><path d="M 135 289 L 151 289 L 151 445.5 L 135 445.5 Z M 135 289 " clip-rule="nonzero"/></clipPath><clipPath id="902deef1f9"><path d="M 255 4.5 L 359 4.5 L 359 108 L 255 108 Z M 255 4.5 " clip-rule="nonzero"/></clipPath><clipPath id="b19eb7b4dd"><path d="M 135 289 L 151 289 L 151 445.5 L 135 445.5 Z M 135 289 " clip-rule="nonzero"/></clipPath><clipPath id="ad7d648112"><path d="M 255 4.5 L 359 4.5 L 359 108 L 255 108 Z M 255 4.5 " clip-rule="nonzero"/></clipPath></defs><path fill="#f39c12" d="M 60.980469 379.527344 C 57.101562 379.527344 53.953125 376.382812 53.953125 372.503906 L 53.953125 297.019531 C 53.953125 293.140625 57.101562 289.996094 60.980469 289.996094 C 64.859375 289.996094 68.003906 293.140625 68.003906 297.019531 L 68.003906 372.503906 C 68.003906 376.382812 64.859375 379.527344 60.980469 379.527344 Z M 60.980469 379.527344 " fill-opacity="1" fill-rule="nonzero"/><g clip-path="url(#588e3de7b2)"><path fill="#f39c12" d="M 142.992188 445.519531 C 139.109375 445.519531 135.964844 442.375 135.964844 438.496094 L 135.964844 297.019531 C 135.964844 293.140625 139.109375 289.996094 142.992188 289.996094 C 146.871094 289.996094 150.015625 293.140625 150.015625 297.019531 L 150.015625 438.496094 C 150.015625 442.375 146.871094 445.519531 142.992188 445.519531 Z M 142.992188 445.519531 " fill-opacity="1" fill-rule="nonzero"/></g><path fill="#f39c12" d="M 225 400.378906 C 221.121094 400.378906 217.972656 397.234375 217.972656 393.355469 L 217.972656 297.019531 C 217.972656 293.140625 221.121094 289.996094 225 289.996094 C 228.878906 289.996094 232.027344 293.140625 232.027344 297.019531 L 232.027344 393.355469 C 232.027344 397.234375 228.878906 400.378906 225 400.378906 Z M 225 400.378906 " fill-opacity="1" fill-rule="nonzero"/><path fill="#f39c12" d="M 307.007812 361.21875 C 303.128906 361.21875 299.984375 358.074219 299.984375 354.191406 L 299.984375 297.019531 C 299.984375 293.140625 303.128906 289.996094 307.007812 289.996094 C 310.890625 289.996094 314.035156 293.140625 314.035156 297.019531 L 314.035156 354.191406 C 314.035156 358.074219 310.890625 361.21875 307.007812 361.21875 Z M 307.007812 361.21875 " fill-opacity="1" fill-rule="nonzero"/><path fill="#f39c12" d="M 389.042969 426.335938 C 385.164062 426.335938 382.019531 423.191406 382.019531 419.3125 L 382.019531 297.019531 C 382.019531 293.140625 385.164062 289.996094 389.042969 289.996094 C 392.925781 289.996094 396.070312 293.140625 396.070312 297.019531 L 396.070312 419.3125 C 396.070312 423.191406 392.925781 426.335938 389.042969 426.335938 Z M 389.042969 426.335938 " fill-opacity="1" fill-rule="nonzero"/><path fill="#f39c12" d="M 60.980469 247.296875 C 57.101562 247.296875 53.953125 244.152344 53.953125 240.269531 L 53.953125 147.449219 C 53.953125 143.570312 57.101562 140.425781 60.980469 140.425781 C 64.859375 140.425781 68.003906 143.570312 68.003906 147.449219 L 68.003906 240.273438 C 68.003906 244.152344 64.859375 247.296875 60.980469 247.296875 Z M 60.980469 247.296875 " fill-opacity="1" fill-rule="nonzero"/><path fill="#f39c12" d="M 142.992188 318.769531 C 139.109375 318.769531 135.964844 315.621094 135.964844 311.742188 L 135.964844 213.441406 C 135.964844 209.5625 139.109375 206.417969 142.992188 206.417969 C 146.871094 206.417969 150.015625 209.5625 150.015625 213.441406 L 150.015625 311.742188 C 150.015625 315.625 146.871094 318.769531 142.992188 318.769531 Z M 142.992188 318.769531 " fill-opacity="1" fill-rule="nonzero"/><path fill="#f39c12" d="M 225 260.125 C 221.121094 260.125 217.972656 256.980469 217.972656 253.101562 L 217.972656 168.300781 C 217.972656 164.421875 221.121094 161.277344 225 161.277344 C 228.878906 161.277344 232.027344 164.421875 232.027344 168.300781 L 232.027344 253.101562 C 232.027344 256.980469 228.878906 260.125 225 260.125 Z M 225 260.125 " fill-opacity="1" fill-rule="nonzero"/><path fill="#f39c12" d="M 307.007812 219.394531 C 303.128906 219.394531 299.984375 216.25 299.984375 212.371094 L 299.984375 129.140625 C 299.984375 125.257812 303.128906 122.113281 307.007812 122.113281 C 310.890625 122.113281 314.035156 125.257812 314.035156 129.140625 L 314.035156 212.371094 C 314.035156 216.25 310.890625 219.394531 307.007812 219.394531 Z M 307.007812 219.394531 " fill-opacity="1" fill-rule="nonzero"/><path fill="#f39c12" d="M 389.042969 286.308594 C 385.164062 286.308594 382.019531 283.164062 382.019531 279.28125 L 382.019531 194.257812 C 382.019531 190.378906 385.164062 187.234375 389.042969 187.234375 C 392.925781 187.234375 396.070312 190.378906 396.070312 194.257812 L 396.070312 279.28125 C 396.070312 283.164062 392.925781 286.308594 389.042969 286.308594 Z M 389.042969 286.308594 " fill-opacity="1" fill-rule="nonzero"/><path fill="#f39c12" d="M 144.484375 159.632812 C 172.984375 159.632812 196.226562 136.390625 196.226562 107.890625 C 196.226562 79.390625 172.984375 56.148438 144.484375 56.148438 C 115.984375 56.148438 92.742188 79.390625 92.742188 107.890625 C 92.742188 136.390625 115.984375 159.632812 144.484375 159.632812 Z M 144.484375 159.632812 " fill-opacity="1" fill-rule="evenodd"/><path fill="#f2fbff" d="M 169.03125 112.015625 C 166.289062 109.269531 161.839844 109.269531 159.097656 112.015625 L 151.507812 119.601562 L 151.507812 79.214844 C 151.507812 75.335938 148.363281 72.191406 144.484375 72.191406 C 140.605469 72.191406 137.457031 75.335938 137.457031 79.214844 L 137.457031 119.585938 L 129.898438 112.019531 C 127.15625 109.273438 122.710938 109.269531 119.964844 112.011719 C 117.21875 114.753906 117.214844 119.203125 119.957031 121.945312 L 139.511719 141.527344 C 140.828125 142.84375 142.617188 143.585938 144.480469 143.589844 C 144.480469 143.589844 144.480469 143.589844 144.484375 143.589844 C 146.347656 143.589844 148.132812 142.847656 149.449219 141.53125 L 169.03125 121.949219 C 171.777344 119.207031 171.777344 114.757812 169.03125 112.015625 Z M 169.03125 112.015625 " fill-opacity="1" fill-rule="nonzero"/><g clip-path="url(#902deef1f9)"><path fill="#f39c12" d="M 307.011719 107.988281 C 335.535156 107.988281 358.777344 84.746094 358.777344 56.222656 C 358.777344 27.722656 335.535156 4.480469 307.011719 4.480469 C 278.511719 4.480469 255.269531 27.722656 255.269531 56.222656 C 255.269531 84.746094 278.511719 107.988281 307.011719 107.988281 Z M 307.011719 107.988281 " fill-opacity="1" fill-rule="evenodd"/></g><path fill="#f2fbff" d="M 331.558594 42.160156 L 311.976562 22.582031 C 310.660156 21.265625 308.875 20.523438 307.011719 20.523438 C 307.007812 20.523438 307.007812 20.523438 307.007812 20.523438 C 305.144531 20.523438 303.355469 21.265625 302.039062 22.585938 L 282.484375 42.164062 C 279.742188 44.910156 279.746094 49.359375 282.492188 52.101562 C 285.234375 54.84375 289.683594 54.839844 292.425781 52.09375 L 299.984375 44.527344 L 299.984375 84.898438 C 299.984375 88.777344 303.132812 91.921875 307.011719 91.921875 C 310.890625 91.921875 314.035156 88.777344 314.035156 84.898438 L 314.035156 44.507812 L 321.625 52.097656 C 322.996094 53.46875 324.792969 54.152344 326.589844 54.152344 C 328.390625 54.152344 330.1875 53.46875 331.558594 52.097656 C 334.300781 49.351562 334.300781 44.90625 331.558594 42.160156 Z M 331.558594 42.160156 " fill-opacity="1" fill-rule="nonzero"/><path fill="#f39c12" d="M 7.046875 266.953125 C 3.160156 266.953125 0.0195312 263.8125 0.0195312 259.925781 C 0.0195312 256.039062 3.160156 252.902344 7.046875 252.902344 L 60.980469 252.902344 C 63.023438 252.902344 64.839844 253.773438 66.136719 255.144531 L 143.914062 328.484375 L 303.375 230.855469 C 306.089844 229.210938 309.476562 229.609375 311.71875 231.625 L 391.585938 299.761719 L 442.953125 299.761719 C 446.839844 299.761719 449.980469 302.898438 449.980469 306.785156 C 449.980469 310.671875 446.839844 313.8125 442.953125 313.8125 L 389.046875 313.8125 L 389.046875 313.785156 C 387.425781 313.785156 385.808594 313.238281 384.488281 312.117188 L 306.339844 245.480469 L 146.777344 343.15625 C 144.136719 344.875 140.574219 344.625 138.179688 342.359375 L 58.214844 266.953125 Z M 7.046875 266.953125 " fill-opacity="1" fill-rule="nonzero"/><path fill="#f39c12" d="M 38.707031 266.953125 L 38.707031 340.066406 L 83.25 340.066406 L 83.25 290.566406 L 60.980469 269.566406 L 58.214844 266.953125 Z M 38.707031 266.953125 " fill-opacity="1" fill-rule="evenodd"/><path fill="#f39c12" d="M 120.71875 325.917969 L 120.71875 406.058594 L 165.261719 406.058594 L 165.261719 331.847656 L 146.777344 343.15625 C 145.632812 343.90625 144.3125 344.277344 142.992188 344.277344 C 141.273438 344.277344 139.527344 343.65625 138.183594 342.359375 Z M 120.71875 325.917969 " fill-opacity="1" fill-rule="evenodd"/><path fill="#f39c12" d="M 202.730469 308.902344 L 202.730469 360.945312 L 247.269531 360.945312 L 247.269531 281.648438 L 225 295.277344 Z M 202.730469 308.902344 " fill-opacity="1" fill-rule="evenodd"/><path fill="#f39c12" d="M 284.761719 258.707031 L 284.761719 321.78125 L 329.28125 321.78125 L 329.28125 265.058594 L 307.011719 246.050781 L 306.335938 245.476562 Z M 284.761719 258.707031 " fill-opacity="1" fill-rule="evenodd"/><path fill="#f39c12" d="M 366.773438 297.019531 L 366.773438 386.878906 L 411.292969 386.878906 L 411.292969 313.8125 L 389.046875 313.8125 L 389.046875 313.785156 C 387.425781 313.785156 385.808594 313.238281 384.488281 312.117188 Z M 366.773438 297.019531 " fill-opacity="1" fill-rule="evenodd"/><path fill="#f39c12" d="M 38.707031 266.953125 L 38.707031 286.109375 L 50.589844 286.109375 L 83.25 316.898438 L 83.25 290.566406 L 60.980469 269.566406 L 58.214844 266.953125 Z M 38.707031 266.953125 " fill-opacity="1" fill-rule="evenodd"/><path fill="#f39c12" d="M 120.71875 325.917969 L 120.71875 352.226562 L 125.054688 356.3125 C 133.722656 364.484375 146.851562 365.753906 156.890625 359.425781 L 165.261719 354.316406 L 165.261719 331.847656 L 146.777344 343.15625 C 145.628906 343.902344 144.308594 344.277344 142.988281 344.277344 C 141.269531 344.277344 139.527344 343.65625 138.179688 342.359375 Z M 120.71875 325.917969 " fill-opacity="1" fill-rule="evenodd"/><path fill="#f39c12" d="M 202.730469 308.902344 L 202.730469 331.375 L 247.269531 304.09375 L 247.269531 281.648438 L 225 295.277344 Z M 202.730469 308.902344 " fill-opacity="1" fill-rule="evenodd"/><path fill="#f39c12" d="M 284.761719 258.707031 L 284.761719 281.152344 L 304.496094 269.070312 L 329.28125 290.21875 L 329.28125 265.058594 L 307.011719 246.050781 L 306.335938 245.476562 Z M 284.761719 258.707031 " fill-opacity="1" fill-rule="evenodd"/><path fill="#f39c12" d="M 366.773438 297.019531 L 366.773438 331.324219 L 411.292969 332.269531 L 411.292969 313.8125 L 389.046875 313.8125 L 389.046875 313.785156 C 387.425781 313.785156 385.808594 313.238281 384.488281 312.117188 Z M 366.773438 297.019531 " fill-opacity="1" fill-rule="evenodd"/><path fill="#f39c12" d="M 120.71875 245.875 L 120.71875 306.636719 L 142.988281 327.613281 L 143.910156 328.484375 L 165.261719 315.40625 L 165.261719 245.875 Z M 120.71875 245.875 " fill-opacity="1" fill-rule="evenodd"/><path fill="#f39c12" d="M 202.730469 200.734375 L 202.730469 292.460938 L 225 278.835938 L 247.269531 265.207031 L 247.269531 200.734375 Z M 202.730469 200.734375 " fill-opacity="1" fill-rule="evenodd"/><path fill="#f39c12" d="M 284.761719 161.574219 L 284.761719 242.265625 L 303.371094 230.855469 C 304.519531 230.15625 305.765625 229.832031 307.011719 229.832031 C 308.730469 229.832031 310.421875 230.457031 311.71875 231.625 L 329.28125 246.625 L 329.28125 161.574219 Z M 284.761719 161.574219 " fill-opacity="1" fill-rule="evenodd"/><path fill="#f39c12" d="M 366.773438 226.695312 L 366.773438 278.585938 L 389.042969 297.566406 L 391.585938 299.761719 L 411.292969 299.761719 L 411.292969 226.695312 Z M 366.773438 226.695312 " fill-opacity="1" fill-rule="evenodd"/><path fill="#f39c12" d="M 83.25 271.285156 L 83.25 179.886719 L 38.707031 179.886719 L 38.707031 252.902344 L 60.980469 252.902344 C 63.023438 252.902344 64.839844 253.773438 66.136719 255.144531 Z M 83.25 271.285156 " fill-opacity="1" fill-rule="evenodd"/><path fill="#f39c12" d="M 60.980469 379.527344 C 57.101562 379.527344 53.953125 376.382812 53.953125 372.503906 L 53.953125 297.019531 C 53.953125 293.140625 57.101562 289.996094 60.980469 289.996094 C 64.859375 289.996094 68.003906 293.140625 68.003906 297.019531 L 68.003906 372.503906 C 68.003906 376.382812 64.859375 379.527344 60.980469 379.527344 Z M 60.980469 379.527344 " fill-opacity="1" fill-rule="nonzero"/><g clip-path="url(#b19eb7b4dd)"><path fill="#f39c12" d="M 142.992188 445.519531 C 139.109375 445.519531 135.964844 442.375 135.964844 438.496094 L 135.964844 297.019531 C 135.964844 293.140625 139.109375 289.996094 142.992188 289.996094 C 146.871094 289.996094 150.015625 293.140625 150.015625 297.019531 L 150.015625 438.496094 C 150.015625 442.375 146.871094 445.519531 142.992188 445.519531 Z M 142.992188 445.519531 " fill-opacity="1" fill-rule="nonzero"/></g><path fill="#f39c12" d="M 225 400.378906 C 221.121094 400.378906 217.972656 397.234375 217.972656 393.355469 L 217.972656 297.019531 C 217.972656 293.140625 221.121094 289.996094 225 289.996094 C 228.878906 289.996094 232.027344 293.140625 232.027344 297.019531 L 232.027344 393.355469 C 232.027344 397.234375 228.878906 400.378906 225 400.378906 Z M 225 400.378906 " fill-opacity="1" fill-rule="nonzero"/><path fill="#f39c12" d="M 307.007812 361.21875 C 303.128906 361.21875 299.984375 358.074219 299.984375 354.191406 L 299.984375 297.019531 C 299.984375 293.140625 303.128906 289.996094 307.007812 289.996094 C 310.890625 289.996094 314.035156 293.140625 314.035156 297.019531 L 314.035156 354.191406 C 314.035156 358.074219 310.890625 361.21875 307.007812 361.21875 Z M 307.007812 361.21875 " fill-opacity="1" fill-rule="nonzero"/><path fill="#f39c12" d="M 389.042969 426.335938 C 385.164062 426.335938 382.019531 423.191406 382.019531 419.3125 L 382.019531 297.019531 C 382.019531 293.140625 385.164062 289.996094 389.042969 289.996094 C 392.925781 289.996094 396.070312 293.140625 396.070312 297.019531 L 396.070312 419.3125 C 396.070312 423.191406 392.925781 426.335938 389.042969 426.335938 Z M 389.042969 426.335938 " fill-opacity="1" fill-rule="nonzero"/><path fill="#f39c12" d="M 60.980469 247.296875 C 57.101562 247.296875 53.953125 244.152344 53.953125 240.269531 L 53.953125 147.449219 C 53.953125 143.570312 57.101562 140.425781 60.980469 140.425781 C 64.859375 140.425781 68.003906 143.570312 68.003906 147.449219 L 68.003906 240.273438 C 68.003906 244.152344 64.859375 247.296875 60.980469 247.296875 Z M 60.980469 247.296875 " fill-opacity="1" fill-rule="nonzero"/><path fill="#f39c12" d="M 142.992188 318.769531 C 139.109375 318.769531 135.964844 315.621094 135.964844 311.742188 L 135.964844 213.441406 C 135.964844 209.5625 139.109375 206.417969 142.992188 206.417969 C 146.871094 206.417969 150.015625 209.5625 150.015625 213.441406 L 150.015625 311.742188 C 150.015625 315.625 146.871094 318.769531 142.992188 318.769531 Z M 142.992188 318.769531 " fill-opacity="1" fill-rule="nonzero"/><path fill="#f39c12" d="M 225 260.125 C 221.121094 260.125 217.972656 256.980469 217.972656 253.101562 L 217.972656 168.300781 C 217.972656 164.421875 221.121094 161.277344 225 161.277344 C 228.878906 161.277344 232.027344 164.421875 232.027344 168.300781 L 232.027344 253.101562 C 232.027344 256.980469 228.878906 260.125 225 260.125 Z M 225 260.125 " fill-opacity="1" fill-rule="nonzero"/><path fill="#f39c12" d="M 307.007812 219.394531 C 303.128906 219.394531 299.984375 216.25 299.984375 212.371094 L 299.984375 129.140625 C 299.984375 125.257812 303.128906 122.113281 307.007812 122.113281 C 310.890625 122.113281 314.035156 125.257812 314.035156 129.140625 L 314.035156 212.371094 C 314.035156 216.25 310.890625 219.394531 307.007812 219.394531 Z M 307.007812 219.394531 " fill-opacity="1" fill-rule="nonzero"/><path fill="#f39c12" d="M 389.042969 286.308594 C 385.164062 286.308594 382.019531 283.164062 382.019531 279.28125 L 382.019531 194.257812 C 382.019531 190.378906 385.164062 187.234375 389.042969 187.234375 C 392.925781 187.234375 396.070312 190.378906 396.070312 194.257812 L 396.070312 279.28125 C 396.070312 283.164062 392.925781 286.308594 389.042969 286.308594 Z M 389.042969 286.308594 " fill-opacity="1" fill-rule="nonzero"/><path fill="#f39c12" d="M 144.484375 159.632812 C 172.984375 159.632812 196.226562 136.390625 196.226562 107.890625 C 196.226562 79.390625 172.984375 56.148438 144.484375 56.148438 C 115.984375 56.148438 92.742188 79.390625 92.742188 107.890625 C 92.742188 136.390625 115.984375 159.632812 144.484375 159.632812 Z M 144.484375 159.632812 " fill-opacity="1" fill-rule="evenodd"/><path fill="#f2fbff" d="M 169.03125 112.015625 C 166.289062 109.269531 161.839844 109.269531 159.097656 112.015625 L 151.507812 119.601562 L 151.507812 79.214844 C 151.507812 75.335938 148.363281 72.191406 144.484375 72.191406 C 140.605469 72.191406 137.457031 75.335938 137.457031 79.214844 L 137.457031 119.585938 L 129.898438 112.019531 C 127.15625 109.273438 122.710938 109.269531 119.964844 112.011719 C 117.21875 114.753906 117.214844 119.203125 119.957031 121.945312 L 139.511719 141.527344 C 140.828125 142.84375 142.617188 143.585938 144.480469 143.589844 C 144.480469 143.589844 144.480469 143.589844 144.484375 143.589844 C 146.347656 143.589844 148.132812 142.847656 149.449219 141.53125 L 169.03125 121.949219 C 171.777344 119.207031 171.777344 114.757812 169.03125 112.015625 Z M 169.03125 112.015625 " fill-opacity="1" fill-rule="nonzero"/><g clip-path="url(#ad7d648112)"><path fill="#f39c12" d="M 307.011719 107.988281 C 335.535156 107.988281 358.777344 84.746094 358.777344 56.222656 C 358.777344 27.722656 335.535156 4.480469 307.011719 4.480469 C 278.511719 4.480469 255.269531 27.722656 255.269531 56.222656 C 255.269531 84.746094 278.511719 107.988281 307.011719 107.988281 Z M 307.011719 107.988281 " fill-opacity="1" fill-rule="evenodd"/></g><path fill="#f2fbff" d="M 331.558594 42.160156 L 311.976562 22.582031 C 310.660156 21.265625 308.875 20.523438 307.011719 20.523438 C 307.007812 20.523438 307.007812 20.523438 307.007812 20.523438 C 305.144531 20.523438 303.355469 21.265625 302.039062 22.585938 L 282.484375 42.164062 C 279.742188 44.910156 279.746094 49.359375 282.492188 52.101562 C 285.234375 54.84375 289.683594 54.839844 292.425781 52.09375 L 299.984375 44.527344 L 299.984375 84.898438 C 299.984375 88.777344 303.132812 91.921875 307.011719 91.921875 C 310.890625 91.921875 314.035156 88.777344 314.035156 84.898438 L 314.035156 44.507812 L 321.625 52.097656 C 322.996094 53.46875 324.792969 54.152344 326.589844 54.152344 C 328.390625 54.152344 330.1875 53.46875 331.558594 52.097656 C 334.300781 49.351562 334.300781 44.90625 331.558594 42.160156 Z M 331.558594 42.160156 " fill-opacity="1" fill-rule="nonzero"/><path fill="#f39c12" d="M 7.046875 266.953125 C 3.160156 266.953125 0.0195312 263.8125 0.0195312 259.925781 C 0.0195312 256.039062 3.160156 252.902344 7.046875 252.902344 L 60.980469 252.902344 C 63.023438 252.902344 64.839844 253.773438 66.136719 255.144531 L 143.914062 328.484375 L 303.375 230.855469 C 306.089844 229.210938 309.476562 229.609375 311.71875 231.625 L 391.585938 299.761719 L 442.953125 299.761719 C 446.839844 299.761719 449.980469 302.898438 449.980469 306.785156 C 449.980469 310.671875 446.839844 313.8125 442.953125 313.8125 L 389.046875 313.8125 L 389.046875 313.785156 C 387.425781 313.785156 385.808594 313.238281 384.488281 312.117188 L 306.339844 245.480469 L 146.777344 343.15625 C 144.136719 344.875 140.574219 344.625 138.179688 342.359375 L 58.214844 266.953125 Z M 7.046875 266.953125 " fill-opacity="1" fill-rule="nonzero"/><path fill="#f39c12" d="M 38.707031 266.953125 L 38.707031 340.066406 L 83.25 340.066406 L 83.25 290.566406 L 60.980469 269.566406 L 58.214844 266.953125 Z M 38.707031 266.953125 " fill-opacity="1" fill-rule="evenodd"/><path fill="#f39c12" d="M 120.71875 325.917969 L 120.71875 406.058594 L 165.261719 406.058594 L 165.261719 331.847656 L 146.777344 343.15625 C 145.632812 343.90625 144.3125 344.277344 142.992188 344.277344 C 141.273438 344.277344 139.527344 343.65625 138.183594 342.359375 Z M 120.71875 325.917969 " fill-opacity="1" fill-rule="evenodd"/><path fill="#f39c12" d="M 202.730469 308.902344 L 202.730469 360.945312 L 247.269531 360.945312 L 247.269531 281.648438 L 225 295.277344 Z M 202.730469 308.902344 " fill-opacity="1" fill-rule="evenodd"/><path fill="#f39c12" d="M 284.761719 258.707031 L 284.761719 321.78125 L 329.28125 321.78125 L 329.28125 265.058594 L 307.011719 246.050781 L 306.335938 245.476562 Z M 284.761719 258.707031 " fill-opacity="1" fill-rule="evenodd"/><path fill="#f39c12" d="M 366.773438 297.019531 L 366.773438 386.878906 L 411.292969 386.878906 L 411.292969 313.8125 L 389.046875 313.8125 L 389.046875 313.785156 C 387.425781 313.785156 385.808594 313.238281 384.488281 312.117188 Z M 366.773438 297.019531 " fill-opacity="1" fill-rule="evenodd"/><path fill="#f39c12" d="M 38.707031 266.953125 L 38.707031 286.109375 L 50.589844 286.109375 L 83.25 316.898438 L 83.25 290.566406 L 60.980469 269.566406 L 58.214844 266.953125 Z M 38.707031 266.953125 " fill-opacity="1" fill-rule="evenodd"/><path fill="#f39c12" d="M 120.71875 325.917969 L 120.71875 352.226562 L 125.054688 356.3125 C 133.722656 364.484375 146.851562 365.753906 156.890625 359.425781 L 165.261719 354.316406 L 165.261719 331.847656 L 146.777344 343.15625 C 145.628906 343.902344 144.308594 344.277344 142.988281 344.277344 C 141.269531 344.277344 139.527344 343.65625 138.179688 342.359375 Z M 120.71875 325.917969 " fill-opacity="1" fill-rule="evenodd"/><path fill="#f39c12" d="M 202.730469 308.902344 L 202.730469 331.375 L 247.269531 304.09375 L 247.269531 281.648438 L 225 295.277344 Z M 202.730469 308.902344 " fill-opacity="1" fill-rule="evenodd"/><path fill="#f39c12" d="M 284.761719 258.707031 L 284.761719 281.152344 L 304.496094 269.070312 L 329.28125 290.21875 L 329.28125 265.058594 L 307.011719 246.050781 L 306.335938 245.476562 Z M 284.761719 258.707031 " fill-opacity="1" fill-rule="evenodd"/><path fill="#f39c12" d="M 366.773438 297.019531 L 366.773438 331.324219 L 411.292969 332.269531 L 411.292969 313.8125 L 389.046875 313.8125 L 389.046875 313.785156 C 387.425781 313.785156 385.808594 313.238281 384.488281 312.117188 Z M 366.773438 297.019531 " fill-opacity="1" fill-rule="evenodd"/><path fill="#f39c12" d="M 120.71875 245.875 L 120.71875 306.636719 L 142.988281 327.613281 L 143.910156 328.484375 L 165.261719 315.40625 L 165.261719 245.875 Z M 120.71875 245.875 " fill-opacity="1" fill-rule="evenodd"/><path fill="#f39c12" d="M 202.730469 200.734375 L 202.730469 292.460938 L 225 278.835938 L 247.269531 265.207031 L 247.269531 200.734375 Z M 202.730469 200.734375 " fill-opacity="1" fill-rule="evenodd"/><path fill="#f39c12" d="M 284.761719 161.574219 L 284.761719 242.265625 L 303.371094 230.855469 C 304.519531 230.15625 305.765625 229.832031 307.011719 229.832031 C 308.730469 229.832031 310.421875 230.457031 311.71875 231.625 L 329.28125 246.625 L 329.28125 161.574219 Z M 284.761719 161.574219 " fill-opacity="1" fill-rule="evenodd"/><path fill="#f39c12" d="M 366.773438 226.695312 L 366.773438 278.585938 L 389.042969 297.566406 L 391.585938 299.761719 L 411.292969 299.761719 L 411.292969 226.695312 Z M 366.773438 226.695312 " fill-opacity="1" fill-rule="evenodd"/><path fill="#f39c12" d="M 83.25 271.285156 L 83.25 179.886719 L 38.707031 179.886719 L 38.707031 252.902344 L 60.980469 252.902344 C 63.023438 252.902344 64.839844 253.773438 66.136719 255.144531 Z M 83.25 271.285156 " fill-opacity="1" fill-rule="evenodd"/></svg>