<svg xmlns="http://www.w3.org/2000/svg" xmlns:xlink="http://www.w3.org/1999/xlink" width="600" zoomAndPan="magnify" viewBox="0 0 450 449.999984" height="600" preserveAspectRatio="xMidYMid meet" version="1.0"><path fill="#f39c12" d="M 222.085938 49.21875 C 224.078125 49.21875 226.066406 49.21875 228.058594 49.21875 C 230.78125 49.292969 228 53.652344 229.308594 55.945312 C 231.46875 56.382812 233.992188 55.871094 236.277344 55.699219 C 236.546875 56.671875 235.691406 58.761719 236.773438 58.933594 C 245.429688 58.582031 255.410156 58.089844 264.652344 58.433594 C 273.949219 58.78125 283.226562 58.5625 290.285156 61.171875 C 275.238281 64.664062 254.089844 63.722656 236.523438 63.164062 C 237.453125 67.828125 231 65.113281 229.800781 67.644531 C 230.65625 68.03125 230.820312 68.675781 231.789062 68.890625 C 234.328125 69.449219 237.742188 69.160156 240.507812 69.386719 C 244.699219 69.726562 250.109375 69.355469 252.453125 70.628906 C 254.199219 71.574219 253.988281 73.496094 255.1875 74.859375 C 255.324219 78.785156 255.554688 82.597656 255.9375 86.308594 C 256.300781 89.882812 256.308594 93.847656 257.183594 96.761719 C 257.609375 98.183594 258.863281 99.292969 258.921875 100.746094 C 259.019531 102.824219 257.890625 104.667969 258.179688 106.71875 C 258.289062 107.550781 258.890625 109.132812 259.421875 110.203125 C 260 111.382812 261.136719 112.253906 261.160156 113.441406 C 261.207031 115.445312 258.660156 116.671875 259.171875 119.914062 C 260.03125 125.371094 266.046875 124.371094 272.613281 124.890625 C 321.722656 128.769531 370.828125 132.40625 420.964844 136.09375 C 431.363281 136.855469 443.855469 135.855469 447.101562 143.8125 C 449.816406 150.476562 447.988281 161.910156 447.101562 169.699219 C 446.050781 178.96875 445.597656 186.476562 444.109375 194.835938 C 441.644531 197.183594 438.632812 198.984375 435.652344 200.8125 C 419.960938 203.144531 399.496094 204.058594 381.140625 205.539062 C 377.089844 205.867188 372.90625 206.03125 369.941406 206.535156 C 361.851562 207.910156 351.335938 208.496094 344.050781 209.027344 C 333.023438 209.832031 318.4375 210.699219 307.964844 211.765625 C 305.695312 211.992188 303.300781 211.828125 300.742188 212.011719 C 295.914062 212.363281 290.710938 213.40625 285.5625 213.507812 C 278.183594 213.652344 270.574219 214.558594 263.15625 215.246094 C 258.390625 215.695312 255.507812 215.632812 257.429688 220.230469 C 257.4375 221.820312 257.125 223.21875 258.425781 222.964844 C 256.589844 223.214844 257.761719 225.128906 257.679688 226.199219 C 257.585938 227.378906 257.011719 228.546875 256.933594 229.683594 C 256.863281 230.816406 257.273438 232.023438 257.191406 233.171875 C 257.113281 234.089844 256.527344 234.992188 256.4375 235.910156 C 256.332031 237.042969 256.789062 238.101562 256.691406 239.144531 C 256.503906 241.035156 255.9375 242.902344 255.695312 244.867188 C 254.046875 258.445312 252.371094 272.695312 250.21875 285.941406 C 247.726562 301.273438 244.292969 316.089844 241.257812 329.996094 C 249.789062 333.394531 258.96875 336.480469 268.136719 339.949219 C 277.289062 343.414062 287.042969 345.480469 295.273438 349.660156 C 299.988281 352.050781 302.449219 353.917969 302.992188 360.613281 C 303.59375 368.160156 302.820312 381.515625 298.257812 384.261719 C 294.066406 386.777344 284.53125 386.226562 277.851562 386.5 C 275.339844 386.601562 273.097656 386.183594 271.128906 386.253906 C 269.277344 386.320312 267.527344 386.910156 265.652344 386.996094 C 256.011719 387.457031 245.738281 387.554688 236.78125 387.992188 C 235.21875 386.976562 234.511719 385.175781 233.546875 383.507812 C 232.679688 382.011719 231.945312 379.6875 229.8125 379.527344 C 224.628906 380.757812 231.269531 400.4375 224.335938 400.4375 C 220.363281 400.4375 221.222656 394.808594 221.101562 390.230469 C 220.992188 386.152344 221.46875 379.707031 218.609375 379.527344 C 216.699219 379.414062 215.851562 382.5 215.125 383.757812 C 214.171875 385.402344 212.953125 387.609375 211.640625 387.992188 C 208.601562 388.882812 204.054688 387.382812 200.9375 387.246094 C 195.371094 387.003906 188.898438 387.273438 183.015625 386.996094 C 181.097656 386.902344 179.242188 386.308594 177.539062 386.253906 C 175.722656 386.179688 173.605469 386.570312 171.5625 386.5 C 162.738281 386.175781 150.304688 387.269531 147.417969 380.773438 C 146.015625 377.609375 145.910156 372.300781 145.679688 367.824219 C 145.476562 363.9375 145.445312 357.59375 146.921875 354.636719 C 147.992188 352.5 151.609375 350.253906 154.144531 349.15625 C 162.824219 345.40625 172.019531 343.019531 181.023438 339.699219 C 189.816406 336.464844 198.355469 333.582031 207.410156 329.992188 C 202.585938 309.078125 197.957031 285.878906 194.960938 262.535156 C 194.195312 256.574219 193.816406 250.738281 192.96875 244.363281 C 192.46875 240.613281 191.730469 236.933594 191.472656 232.914062 C 191.308594 230.308594 191.449219 228.269531 191.222656 225.945312 C 191.117188 224.796875 191.59375 223.230469 190.226562 222.710938 C 191.964844 223.617188 190.949219 220.957031 191.222656 219.722656 C 194.816406 214.460938 183.777344 215.15625 179.277344 214.742188 C 158.894531 212.882812 140.890625 211.828125 120.285156 210.015625 C 107.035156 208.847656 94.945312 208.332031 80.460938 207.023438 C 78.925781 206.890625 77.28125 205.953125 75.734375 205.78125 C 72.992188 205.476562 70.070312 205.761719 67.269531 205.535156 C 49.257812 204.0625 29.6875 203.222656 13.003906 200.808594 C 10.21875 198.160156 5.8125 197.757812 4.542969 194.582031 C 3.929688 193.042969 3.902344 190.363281 3.550781 188.359375 C 1.851562 178.671875 1.234375 166.605469 0.558594 156 C 0.046875 147.910156 0.910156 141.140625 6.535156 138.578125 C 11.628906 136.253906 21.007812 136.355469 28.441406 135.839844 C 36.246094 135.300781 44.164062 134.917969 51.34375 134.34375 C 93.171875 131.007812 134.074219 128.121094 176.296875 124.886719 C 182.464844 124.414062 188.753906 125.386719 189.488281 119.664062 C 189.855469 116.789062 187.328125 115.515625 187.496094 113.195312 C 187.5625 112.277344 188.667969 110.898438 189.234375 109.707031 C 189.777344 108.574219 190.359375 107.511719 190.480469 106.472656 C 190.660156 104.914062 189.589844 102.355469 189.734375 100.496094 C 189.820312 99.394531 191.164062 97.804688 191.472656 96.761719 C 193.199219 90.972656 191.992188 81.191406 193.710938 74.609375 C 194.101562 73.128906 195.371094 70.929688 196.707031 70.378906 C 200.253906 68.914062 205.171875 69.726562 209.152344 69.382812 C 211.1875 69.203125 213.292969 68.910156 215.371094 68.882812 C 217.027344 68.863281 219.234375 69.40625 220.351562 67.390625 C 219.167969 66 216.152344 66.4375 214.128906 65.894531 C 213.375 65.484375 214.542969 63.160156 213.382812 63.160156 C 204.722656 63.511719 194.746094 64.003906 185.503906 63.65625 C 176.195312 63.308594 166.914062 63.535156 159.863281 60.917969 C 174.925781 57.433594 196.050781 58.359375 213.628906 58.929688 C 214.359375 58.417969 213.390625 56.199219 214.128906 55.691406 C 216.285156 55.917969 218.773438 56.355469 220.851562 55.9375 C 222.144531 53.652344 219.363281 49.292969 222.085938 49.21875 Z M 222.085938 49.21875 " fill-opacity="1" fill-rule="evenodd"/><path fill="#f39c12" d="M 222.085938 49.21875 C 224.078125 49.21875 226.066406 49.21875 228.058594 49.21875 C 230.78125 49.292969 228 53.652344 229.308594 55.945312 C 231.46875 56.382812 233.992188 55.871094 236.277344 55.699219 C 236.546875 56.671875 235.691406 58.761719 236.773438 58.933594 C 245.429688 58.582031 255.410156 58.089844 264.652344 58.433594 C 273.949219 58.78125 283.226562 58.5625 290.285156 61.171875 C 275.238281 64.664062 254.089844 63.722656 236.523438 63.164062 C 237.453125 67.828125 231 65.113281 229.800781 67.644531 C 230.65625 68.03125 230.820312 68.675781 231.789062 68.890625 C 234.328125 69.449219 237.742188 69.160156 240.507812 69.386719 C 244.699219 69.726562 250.109375 69.355469 252.453125 70.628906 C 254.199219 71.574219 253.988281 73.496094 255.1875 74.859375 C 255.324219 78.785156 255.554688 82.597656 255.9375 86.308594 C 256.300781 89.882812 256.308594 93.847656 257.183594 96.761719 C 257.609375 98.183594 258.863281 99.292969 258.921875 100.746094 C 259.019531 102.824219 257.890625 104.667969 258.179688 106.71875 C 258.289062 107.550781 258.890625 109.132812 259.421875 110.203125 C 260 111.382812 261.136719 112.253906 261.160156 113.441406 C 261.207031 115.445312 258.660156 116.671875 259.171875 119.914062 C 260.03125 125.371094 266.046875 124.371094 272.613281 124.890625 C 321.722656 128.769531 370.828125 132.40625 420.964844 136.09375 C 431.363281 136.855469 443.855469 135.855469 447.101562 143.8125 C 449.816406 150.476562 447.988281 161.910156 447.101562 169.699219 C 446.050781 178.96875 445.597656 186.476562 444.109375 194.835938 C 441.644531 197.183594 438.632812 198.984375 435.652344 200.8125 C 419.960938 203.144531 399.496094 204.058594 381.140625 205.539062 C 377.089844 205.867188 372.90625 206.03125 369.941406 206.535156 C 361.851562 207.910156 351.335938 208.496094 344.050781 209.027344 C 333.023438 209.832031 318.4375 210.699219 307.964844 211.765625 C 305.695312 211.992188 303.300781 211.828125 300.742188 212.011719 C 295.914062 212.363281 290.710938 213.40625 285.5625 213.507812 C 278.183594 213.652344 270.574219 214.558594 263.15625 215.246094 C 258.390625 215.695312 255.507812 215.632812 257.429688 220.230469 C 257.4375 221.820312 257.125 223.21875 258.425781 222.964844 C 256.589844 223.214844 257.761719 225.128906 257.679688 226.199219 C 257.585938 227.378906 257.011719 228.546875 256.933594 229.683594 C 256.863281 230.816406 257.273438 232.023438 257.191406 233.171875 C 257.113281 234.089844 256.527344 234.992188 256.4375 235.910156 C 256.332031 237.042969 256.789062 238.101562 256.691406 239.144531 C 256.503906 241.035156 255.9375 242.902344 255.695312 244.867188 C 254.046875 258.445312 252.371094 272.695312 250.21875 285.941406 C 247.726562 301.273438 244.292969 316.089844 241.257812 329.996094 C 249.789062 333.394531 258.96875 336.480469 268.136719 339.949219 C 277.289062 343.414062 287.042969 345.480469 295.273438 349.660156 C 299.988281 352.050781 302.449219 353.917969 302.992188 360.613281 C 303.59375 368.160156 302.820312 381.515625 298.257812 384.261719 C 294.066406 386.777344 284.53125 386.226562 277.851562 386.5 C 275.339844 386.601562 273.097656 386.183594 271.128906 386.253906 C 269.277344 386.320312 267.527344 386.910156 265.652344 386.996094 C 256.011719 387.457031 245.738281 387.554688 236.78125 387.992188 C 235.21875 386.976562 234.511719 385.175781 233.546875 383.507812 C 232.679688 382.011719 231.945312 379.6875 229.8125 379.527344 C 224.628906 380.757812 231.269531 400.4375 224.335938 400.4375 C 220.363281 400.4375 221.222656 394.808594 221.101562 390.230469 C 220.992188 386.152344 221.46875 379.707031 218.609375 379.527344 C 216.699219 379.414062 215.851562 382.5 215.125 383.757812 C 214.171875 385.402344 212.953125 387.609375 211.640625 387.992188 C 208.601562 388.882812 204.054688 387.382812 200.9375 387.246094 C 195.371094 387.003906 188.898438 387.273438 183.015625 386.996094 C 181.097656 386.902344 179.242188 386.308594 177.539062 386.253906 C 175.722656 386.179688 173.605469 386.570312 171.5625 386.5 C 162.738281 386.175781 150.304688 387.269531 147.417969 380.773438 C 146.015625 377.609375 145.910156 372.300781 145.679688 367.824219 C 145.476562 363.9375 145.445312 357.59375 146.921875 354.636719 C 147.992188 352.5 151.609375 350.253906 154.144531 349.15625 C 162.824219 345.40625 172.019531 343.019531 181.023438 339.699219 C 189.816406 336.464844 198.355469 333.582031 207.410156 329.992188 C 202.585938 309.078125 197.957031 285.878906 194.960938 262.535156 C 194.195312 256.574219 193.816406 250.738281 192.96875 244.363281 C 192.46875 240.613281 191.730469 236.933594 191.472656 232.914062 C 191.308594 230.308594 191.449219 228.269531 191.222656 225.945312 C 191.117188 224.796875 191.59375 223.230469 190.226562 222.710938 C 191.964844 223.617188 190.949219 220.957031 191.222656 219.722656 C 194.816406 214.460938 183.777344 215.15625 179.277344 214.742188 C 158.894531 212.882812 140.890625 211.828125 120.285156 210.015625 C 107.035156 208.847656 94.945312 208.332031 80.460938 207.023438 C 78.925781 206.890625 77.28125 205.953125 75.734375 205.78125 C 72.992188 205.476562 70.070312 205.761719 67.269531 205.535156 C 49.257812 204.0625 29.6875 203.222656 13.003906 200.808594 C 10.21875 198.160156 5.8125 197.757812 4.542969 194.582031 C 3.929688 193.042969 3.902344 190.363281 3.550781 188.359375 C 1.851562 178.671875 1.234375 166.605469 0.558594 156 C 0.046875 147.910156 0.910156 141.140625 6.535156 138.578125 C 11.628906 136.253906 21.007812 136.355469 28.441406 135.839844 C 36.246094 135.300781 44.164062 134.917969 51.34375 134.34375 C 93.171875 131.007812 134.074219 128.121094 176.296875 124.886719 C 182.464844 124.414062 188.753906 125.386719 189.488281 119.664062 C 189.855469 116.789062 187.328125 115.515625 187.496094 113.195312 C 187.5625 112.277344 188.667969 110.898438 189.234375 109.707031 C 189.777344 108.574219 190.359375 107.511719 190.480469 106.472656 C 190.660156 104.914062 189.589844 102.355469 189.734375 100.496094 C 189.820312 99.394531 191.164062 97.804688 191.472656 96.761719 C 193.199219 90.972656 191.992188 81.191406 193.710938 74.609375 C 194.101562 73.128906 195.371094 70.929688 196.707031 70.378906 C 200.253906 68.914062 205.171875 69.726562 209.152344 69.382812 C 211.1875 69.203125 213.292969 68.910156 215.371094 68.882812 C 217.027344 68.863281 219.234375 69.40625 220.351562 67.390625 C 219.167969 66 216.152344 66.4375 214.128906 65.894531 C 213.375 65.484375 214.542969 63.160156 213.382812 63.160156 C 204.722656 63.511719 194.746094 64.003906 185.503906 63.65625 C 176.195312 63.308594 166.914062 63.535156 159.863281 60.917969 C 174.925781 57.433594 196.050781 58.359375 213.628906 58.929688 C 214.359375 58.417969 213.390625 56.199219 214.128906 55.691406 C 216.285156 55.917969 218.773438 56.355469 220.851562 55.9375 C 222.144531 53.652344 219.363281 49.292969 222.085938 49.21875 Z M 222.085938 49.21875 " fill-opacity="1" fill-rule="evenodd"/></svg>