<svg xmlns="http://www.w3.org/2000/svg" xmlns:xlink="http://www.w3.org/1999/xlink" width="500" zoomAndPan="magnify" viewBox="0 0 375 374.999991" height="500" preserveAspectRatio="xMidYMid meet" version="1.0"><defs><clipPath id="1fb25e77ee"><path d="M 256 99 L 368.859375 99 L 368.859375 213 L 256 213 Z M 256 99 " clip-rule="nonzero"/></clipPath><clipPath id="df54b25601"><path d="M 256 99 L 368.859375 99 L 368.859375 213 L 256 213 Z M 256 99 " clip-rule="nonzero"/></clipPath></defs><g clip-path="url(#1fb25e77ee)"><path fill="#f39c12" d="M 369.054688 156.246094 C 369.054688 154.40625 368.964844 152.566406 368.785156 150.734375 C 368.601562 148.902344 368.332031 147.082031 367.972656 145.273438 C 367.613281 143.46875 367.167969 141.683594 366.632812 139.917969 C 366.097656 138.15625 365.476562 136.425781 364.773438 134.722656 C 364.066406 133.019531 363.28125 131.355469 362.414062 129.730469 C 361.542969 128.105469 360.597656 126.527344 359.574219 124.996094 C 358.550781 123.464844 357.453125 121.988281 356.285156 120.5625 C 355.117188 119.140625 353.882812 117.777344 352.578125 116.472656 C 351.277344 115.171875 349.914062 113.933594 348.488281 112.765625 C 347.066406 111.597656 345.585938 110.5 344.054688 109.476562 C 342.523438 108.453125 340.945312 107.507812 339.320312 106.640625 C 337.695312 105.769531 336.03125 104.984375 334.332031 104.28125 C 332.628906 103.574219 330.894531 102.953125 329.132812 102.421875 C 327.371094 101.886719 325.585938 101.4375 323.777344 101.078125 C 321.972656 100.71875 320.152344 100.449219 318.316406 100.269531 C 316.484375 100.089844 314.648438 99.996094 312.804688 99.996094 C 310.960938 99.996094 309.125 100.089844 307.289062 100.269531 C 305.457031 100.449219 303.636719 100.71875 301.832031 101.078125 C 300.023438 101.4375 298.238281 101.886719 296.476562 102.421875 C 294.714844 102.953125 292.980469 103.574219 291.277344 104.28125 C 289.578125 104.984375 287.914062 105.769531 286.289062 106.640625 C 284.664062 107.507812 283.085938 108.453125 281.554688 109.476562 C 280.023438 110.5 278.542969 111.597656 277.121094 112.765625 C 275.695312 113.933594 274.332031 115.171875 273.03125 116.472656 C 271.726562 117.777344 270.492188 119.140625 269.324219 120.5625 C 268.152344 121.988281 267.058594 123.464844 266.035156 124.996094 C 265.011719 126.527344 264.066406 128.105469 263.195312 129.730469 C 262.328125 131.355469 261.542969 133.019531 260.835938 134.722656 C 260.132812 136.425781 259.511719 138.15625 258.976562 139.917969 C 258.441406 141.683594 257.996094 143.46875 257.636719 145.273438 C 257.277344 147.082031 257.003906 148.902344 256.824219 150.734375 C 256.644531 152.566406 256.554688 154.40625 256.554688 156.246094 C 256.554688 158.089844 256.644531 159.929688 256.824219 161.761719 C 257.003906 163.59375 257.277344 165.414062 257.636719 167.222656 C 257.996094 169.027344 258.441406 170.8125 258.976562 172.578125 C 259.511719 174.339844 260.132812 176.070312 260.835938 177.773438 C 261.542969 179.476562 262.328125 181.140625 263.195312 182.765625 C 264.066406 184.390625 265.011719 185.96875 266.035156 187.5 C 267.058594 189.03125 268.152344 190.507812 269.324219 191.933594 C 270.492188 193.355469 271.726562 194.71875 273.03125 196.023438 C 274.332031 197.324219 275.695312 198.5625 277.121094 199.730469 C 278.542969 200.898438 280.023438 201.996094 281.554688 203.019531 C 283.085938 204.042969 284.664062 204.988281 286.289062 205.855469 C 287.914062 206.722656 289.578125 207.511719 291.277344 208.214844 C 292.980469 208.921875 294.714844 209.542969 296.476562 210.074219 C 298.238281 210.609375 300.023438 211.058594 301.832031 211.417969 C 303.636719 211.777344 305.457031 212.046875 307.289062 212.226562 C 309.125 212.40625 310.960938 212.496094 312.804688 212.496094 C 314.648438 212.496094 316.484375 212.40625 318.316406 212.226562 C 320.152344 212.046875 321.972656 211.777344 323.777344 211.417969 C 325.585938 211.058594 327.371094 210.609375 329.132812 210.074219 C 330.894531 209.542969 332.628906 208.921875 334.332031 208.214844 C 336.03125 207.511719 337.695312 206.722656 339.320312 205.855469 C 340.945312 204.988281 342.523438 204.042969 344.054688 203.019531 C 345.585938 201.996094 347.066406 200.898438 348.488281 199.730469 C 349.914062 198.5625 351.277344 197.324219 352.578125 196.023438 C 353.882812 194.71875 355.117188 193.355469 356.285156 191.933594 C 357.453125 190.507812 358.550781 189.03125 359.574219 187.5 C 360.597656 185.96875 361.542969 184.390625 362.414062 182.765625 C 363.28125 181.140625 364.066406 179.476562 364.773438 177.773438 C 365.476562 176.070312 366.097656 174.339844 366.632812 172.578125 C 367.167969 170.8125 367.613281 169.027344 367.972656 167.222656 C 368.332031 165.414062 368.601562 163.59375 368.785156 161.761719 C 368.964844 159.929688 369.054688 158.089844 369.054688 156.246094 Z M 325.300781 131.25 L 337.800781 131.25 L 337.800781 143.753906 L 325.300781 143.753906 Z M 287.800781 131.25 L 300.300781 131.25 L 300.300781 143.753906 L 287.800781 143.753906 Z M 281.550781 162.503906 L 294.054688 162.503906 C 294.054688 163.117188 294.085938 163.730469 294.144531 164.339844 C 294.203125 164.949219 294.292969 165.558594 294.414062 166.160156 C 294.535156 166.761719 294.683594 167.355469 294.863281 167.945312 C 295.039062 168.53125 295.246094 169.109375 295.480469 169.675781 C 295.714844 170.246094 295.980469 170.800781 296.269531 171.339844 C 296.558594 171.882812 296.875 172.410156 297.214844 172.917969 C 297.554688 173.429688 297.921875 173.921875 298.308594 174.398438 C 298.699219 174.871094 299.113281 175.324219 299.546875 175.761719 C 299.980469 176.195312 300.433594 176.605469 300.910156 176.996094 C 301.382812 177.386719 301.875 177.75 302.386719 178.09375 C 302.898438 178.433594 303.425781 178.75 303.964844 179.039062 C 304.507812 179.328125 305.0625 179.589844 305.628906 179.824219 C 306.195312 180.058594 306.773438 180.265625 307.363281 180.445312 C 307.949219 180.621094 308.542969 180.773438 309.144531 180.890625 C 309.75 181.011719 310.355469 181.101562 310.964844 181.160156 C 311.578125 181.222656 312.191406 181.253906 312.804688 181.253906 C 313.417969 181.253906 314.03125 181.222656 314.640625 181.160156 C 315.253906 181.101562 315.859375 181.011719 316.460938 180.890625 C 317.066406 180.773438 317.660156 180.621094 318.246094 180.445312 C 318.835938 180.265625 319.414062 180.058594 319.980469 179.824219 C 320.546875 179.589844 321.101562 179.328125 321.644531 179.039062 C 322.183594 178.75 322.710938 178.433594 323.222656 178.09375 C 323.730469 177.75 324.222656 177.386719 324.699219 176.996094 C 325.175781 176.605469 325.628906 176.195312 326.0625 175.761719 C 326.496094 175.324219 326.910156 174.871094 327.296875 174.398438 C 327.6875 173.921875 328.054688 173.429688 328.394531 172.917969 C 328.734375 172.410156 329.050781 171.882812 329.339844 171.339844 C 329.628906 170.800781 329.890625 170.246094 330.128906 169.675781 C 330.363281 169.109375 330.570312 168.53125 330.746094 167.945312 C 330.925781 167.355469 331.074219 166.761719 331.195312 166.160156 C 331.3125 165.558594 331.402344 164.949219 331.464844 164.339844 C 331.523438 163.730469 331.554688 163.117188 331.554688 162.503906 L 344.050781 162.503906 C 344.035156 163.515625 343.972656 164.527344 343.859375 165.535156 C 343.746094 166.542969 343.585938 167.542969 343.375 168.535156 C 343.167969 169.53125 342.910156 170.507812 342.601562 171.476562 C 342.296875 172.445312 341.945312 173.394531 341.546875 174.328125 C 341.148438 175.261719 340.707031 176.171875 340.222656 177.0625 C 339.734375 177.953125 339.207031 178.816406 338.632812 179.65625 C 338.0625 180.492188 337.453125 181.300781 336.804688 182.082031 C 336.152344 182.859375 335.46875 183.605469 334.746094 184.320312 C 334.023438 185.03125 333.269531 185.707031 332.480469 186.34375 C 331.691406 186.984375 330.875 187.582031 330.027344 188.140625 C 329.183594 188.703125 328.308594 189.21875 327.414062 189.691406 C 326.515625 190.167969 325.597656 190.597656 324.660156 190.980469 C 323.722656 191.367188 322.765625 191.707031 321.796875 191.996094 C 320.824219 192.289062 319.839844 192.53125 318.84375 192.730469 C 317.851562 192.925781 316.847656 193.074219 315.835938 193.171875 C 314.828125 193.269531 313.816406 193.320312 312.800781 193.320312 C 311.785156 193.320312 310.773438 193.269531 309.765625 193.171875 C 308.753906 193.074219 307.753906 192.925781 306.757812 192.730469 C 305.761719 192.53125 304.777344 192.289062 303.808594 191.996094 C 302.835938 191.707031 301.882812 191.367188 300.941406 190.980469 C 300.003906 190.597656 299.085938 190.167969 298.1875 189.691406 C 297.292969 189.21875 296.421875 188.703125 295.574219 188.140625 C 294.726562 187.582031 293.910156 186.984375 293.121094 186.34375 C 292.335938 185.707031 291.578125 185.03125 290.855469 184.320312 C 290.136719 183.605469 289.449219 182.859375 288.800781 182.082031 C 288.148438 181.300781 287.539062 180.492188 286.96875 179.65625 C 286.398438 178.816406 285.867188 177.953125 285.382812 177.0625 C 284.894531 176.171875 284.453125 175.261719 284.054688 174.328125 C 283.65625 173.394531 283.304688 172.445312 283 171.476562 C 282.695312 170.507812 282.4375 169.53125 282.226562 168.535156 C 282.015625 167.542969 281.855469 166.542969 281.742188 165.535156 C 281.628906 164.527344 281.566406 163.515625 281.550781 162.503906 Z M 281.550781 162.503906 " fill-opacity="1" fill-rule="nonzero"/></g><path fill="#f39c12" d="M 237.804688 375 C 239.03125 375 240.257812 374.96875 241.484375 374.910156 C 242.710938 374.847656 243.933594 374.757812 245.15625 374.640625 C 246.378906 374.519531 247.59375 374.367188 248.808594 374.1875 C 250.023438 374.007812 251.230469 373.796875 252.4375 373.558594 C 253.640625 373.320312 254.835938 373.050781 256.027344 372.753906 C 257.21875 372.453125 258.402344 372.125 259.574219 371.769531 C 260.75 371.414062 261.914062 371.03125 263.070312 370.617188 C 264.226562 370.203125 265.371094 369.761719 266.503906 369.289062 C 267.640625 368.820312 268.761719 368.324219 269.871094 367.800781 C 270.980469 367.273438 272.078125 366.722656 273.160156 366.144531 C 274.242188 365.566406 275.308594 364.960938 276.363281 364.328125 C 277.414062 363.699219 278.453125 363.042969 279.472656 362.359375 C 280.492188 361.679688 281.496094 360.972656 282.480469 360.242188 C 283.46875 359.507812 284.433594 358.753906 285.382812 357.976562 C 286.332031 357.195312 287.261719 356.394531 288.171875 355.570312 C 289.082031 354.746094 289.96875 353.902344 290.835938 353.03125 C 291.707031 352.164062 292.550781 351.277344 293.375 350.367188 C 294.199219 349.457031 295 348.527344 295.78125 347.578125 C 296.558594 346.628906 297.3125 345.664062 298.046875 344.675781 C 298.777344 343.691406 299.484375 342.6875 300.164062 341.667969 C 300.847656 340.648438 301.503906 339.609375 302.132812 338.558594 C 302.765625 337.503906 303.371094 336.4375 303.949219 335.355469 C 304.527344 334.273438 305.078125 333.175781 305.605469 332.066406 C 306.128906 330.957031 306.625 329.835938 307.09375 328.703125 C 307.566406 327.566406 308.007812 326.421875 308.421875 325.265625 C 308.832031 324.109375 309.21875 322.945312 309.574219 321.769531 C 309.929688 320.597656 310.257812 319.414062 310.558594 318.222656 C 310.855469 317.03125 311.125 315.835938 311.363281 314.632812 C 311.601562 313.429688 311.8125 312.21875 311.992188 311.003906 C 312.171875 309.789062 312.324219 308.574219 312.441406 307.351562 C 312.5625 306.128906 312.652344 304.90625 312.714844 303.679688 C 312.773438 302.453125 312.804688 301.226562 312.804688 300 C 312.804688 298.773438 312.773438 297.546875 312.714844 296.320312 C 312.652344 295.09375 312.5625 293.871094 312.441406 292.648438 C 312.324219 291.425781 312.171875 290.210938 311.992188 288.996094 C 311.8125 287.78125 311.601562 286.570312 311.363281 285.367188 C 311.125 284.164062 310.855469 282.96875 310.558594 281.777344 C 310.257812 280.585938 309.929688 279.402344 309.574219 278.230469 C 309.21875 277.054688 308.832031 275.890625 308.421875 274.734375 C 308.007812 273.578125 307.566406 272.433594 307.09375 271.296875 C 306.625 270.164062 306.128906 269.042969 305.605469 267.933594 C 305.078125 266.824219 304.527344 265.726562 303.949219 264.644531 C 303.371094 263.5625 302.765625 262.496094 302.132812 261.441406 C 301.503906 260.390625 300.847656 259.351562 300.164062 258.332031 C 299.484375 257.3125 298.777344 256.308594 298.046875 255.324219 C 297.3125 254.335938 296.558594 253.371094 295.78125 252.421875 C 295 251.472656 294.199219 250.542969 293.375 249.632812 C 292.550781 248.722656 291.707031 247.835938 290.835938 246.96875 C 289.96875 246.097656 289.082031 245.253906 288.171875 244.429688 C 287.261719 243.605469 286.332031 242.804688 285.382812 242.023438 C 284.433594 241.246094 283.46875 240.492188 282.480469 239.757812 C 281.496094 239.027344 280.492188 238.320312 279.472656 237.640625 C 278.453125 236.957031 277.414062 236.300781 276.363281 235.671875 C 275.308594 235.039062 274.242188 234.433594 273.160156 233.855469 C 272.078125 233.277344 270.980469 232.726562 269.871094 232.199219 C 268.761719 231.675781 267.640625 231.179688 266.503906 230.710938 C 265.371094 230.238281 264.226562 229.796875 263.070312 229.382812 C 261.914062 228.96875 260.75 228.585938 259.574219 228.230469 C 258.402344 227.875 257.21875 227.546875 256.027344 227.246094 C 254.835938 226.949219 253.640625 226.679688 252.4375 226.441406 C 251.230469 226.203125 250.023438 225.992188 248.808594 225.8125 C 247.59375 225.632812 246.378906 225.480469 245.15625 225.359375 C 243.933594 225.242188 242.710938 225.152344 241.484375 225.089844 C 240.257812 225.03125 239.03125 225 237.804688 225 C 236.578125 225 235.351562 225.03125 234.125 225.089844 C 232.898438 225.152344 231.675781 225.242188 230.453125 225.359375 C 229.230469 225.480469 228.015625 225.632812 226.800781 225.8125 C 225.585938 225.992188 224.375 226.203125 223.171875 226.441406 C 221.96875 226.679688 220.773438 226.949219 219.582031 227.246094 C 218.390625 227.546875 217.207031 227.875 216.03125 228.230469 C 214.859375 228.585938 213.695312 228.96875 212.539062 229.382812 C 211.382812 229.796875 210.238281 230.238281 209.101562 230.710938 C 207.96875 231.179688 206.847656 231.675781 205.738281 232.199219 C 204.628906 232.726562 203.53125 233.277344 202.449219 233.855469 C 201.367188 234.433594 200.300781 235.039062 199.246094 235.671875 C 198.195312 236.300781 197.15625 236.957031 196.136719 237.640625 C 195.117188 238.320312 194.113281 239.027344 193.128906 239.757812 C 192.140625 240.492188 191.171875 241.246094 190.226562 242.023438 C 189.277344 242.804688 188.347656 243.605469 187.4375 244.429688 C 186.527344 245.253906 185.640625 246.097656 184.769531 246.96875 C 183.902344 247.835938 183.058594 248.722656 182.234375 249.632812 C 181.410156 250.542969 180.605469 251.472656 179.828125 252.421875 C 179.050781 253.371094 178.296875 254.335938 177.5625 255.324219 C 176.832031 256.308594 176.125 257.3125 175.445312 258.332031 C 174.761719 259.351562 174.105469 260.390625 173.476562 261.441406 C 172.84375 262.496094 172.238281 263.5625 171.660156 264.644531 C 171.082031 265.726562 170.53125 266.824219 170.003906 267.933594 C 169.480469 269.042969 168.984375 270.164062 168.511719 271.296875 C 168.042969 272.433594 167.601562 273.578125 167.1875 274.734375 C 166.773438 275.890625 166.390625 277.054688 166.035156 278.230469 C 165.675781 279.402344 165.351562 280.585938 165.050781 281.777344 C 164.753906 282.96875 164.484375 284.164062 164.246094 285.367188 C 164.007812 286.570312 163.796875 287.78125 163.617188 288.996094 C 163.4375 290.210938 163.285156 291.425781 163.164062 292.648438 C 163.046875 293.871094 162.953125 295.09375 162.894531 296.320312 C 162.835938 297.546875 162.804688 298.773438 162.804688 300 C 162.804688 301.226562 162.835938 302.453125 162.894531 303.679688 C 162.953125 304.90625 163.046875 306.128906 163.164062 307.351562 C 163.285156 308.574219 163.4375 309.789062 163.617188 311.003906 C 163.796875 312.21875 164.007812 313.429688 164.246094 314.632812 C 164.484375 315.835938 164.753906 317.03125 165.050781 318.222656 C 165.351562 319.414062 165.675781 320.597656 166.035156 321.769531 C 166.390625 322.945312 166.773438 324.109375 167.1875 325.265625 C 167.601562 326.421875 168.042969 327.566406 168.511719 328.703125 C 168.984375 329.835938 169.480469 330.957031 170.003906 332.066406 C 170.53125 333.175781 171.082031 334.273438 171.660156 335.355469 C 172.238281 336.4375 172.84375 337.503906 173.476562 338.558594 C 174.105469 339.609375 174.761719 340.648438 175.445312 341.667969 C 176.125 342.6875 176.832031 343.691406 177.5625 344.675781 C 178.296875 345.664062 179.050781 346.628906 179.828125 347.578125 C 180.605469 348.527344 181.410156 349.457031 182.234375 350.367188 C 183.058594 351.277344 183.902344 352.164062 184.769531 353.03125 C 185.640625 353.902344 186.527344 354.746094 187.4375 355.570312 C 188.347656 356.394531 189.277344 357.195312 190.226562 357.976562 C 191.171875 358.753906 192.140625 359.507812 193.125 360.242188 C 194.113281 360.972656 195.117188 361.679688 196.136719 362.359375 C 197.15625 363.042969 198.195312 363.699219 199.246094 364.328125 C 200.300781 364.960938 201.367188 365.566406 202.449219 366.144531 C 203.53125 366.722656 204.628906 367.273438 205.738281 367.800781 C 206.847656 368.324219 207.96875 368.820312 209.101562 369.289062 C 210.238281 369.761719 211.382812 370.203125 212.539062 370.617188 C 213.691406 371.03125 214.859375 371.414062 216.03125 371.769531 C 217.207031 372.125 218.390625 372.453125 219.582031 372.753906 C 220.773438 373.050781 221.96875 373.320312 223.171875 373.558594 C 224.375 373.796875 225.585938 374.007812 226.800781 374.1875 C 228.015625 374.367188 229.230469 374.519531 230.453125 374.640625 C 231.675781 374.757812 232.898438 374.847656 234.125 374.910156 C 235.351562 374.96875 236.578125 375 237.804688 375 Z M 200.152344 273.839844 C 200.621094 273.332031 201.109375 272.847656 201.628906 272.386719 C 202.144531 271.925781 202.683594 271.496094 203.246094 271.09375 C 203.804688 270.691406 204.386719 270.316406 204.988281 269.972656 C 205.585938 269.632812 206.203125 269.320312 206.835938 269.042969 C 207.46875 268.761719 208.113281 268.515625 208.773438 268.304688 C 209.429688 268.09375 210.097656 267.917969 210.773438 267.773438 C 211.449219 267.632812 212.132812 267.523438 212.820312 267.453125 C 213.507812 267.382812 214.195312 267.347656 214.886719 267.347656 C 215.578125 267.347656 216.269531 267.382812 216.957031 267.453125 C 217.644531 267.523438 218.324219 267.632812 219 267.773438 C 219.675781 267.917969 220.34375 268.09375 221.003906 268.304688 C 221.660156 268.515625 222.304688 268.761719 222.9375 269.042969 C 223.570312 269.320312 224.1875 269.632812 224.785156 269.972656 C 225.386719 270.316406 225.96875 270.691406 226.53125 271.09375 C 227.089844 271.496094 227.628906 271.925781 228.148438 272.386719 C 228.664062 272.847656 229.15625 273.332031 229.621094 273.839844 L 237.804688 282.539062 L 245.988281 273.839844 C 246.453125 273.332031 246.945312 272.847656 247.460938 272.386719 C 247.980469 271.929688 248.519531 271.496094 249.078125 271.09375 C 249.640625 270.691406 250.222656 270.320312 250.820312 269.976562 C 251.421875 269.632812 252.039062 269.324219 252.667969 269.042969 C 253.300781 268.765625 253.945312 268.519531 254.605469 268.308594 C 255.261719 268.097656 255.929688 267.917969 256.605469 267.777344 C 257.28125 267.636719 257.964844 267.527344 258.652344 267.457031 C 259.339844 267.386719 260.027344 267.347656 260.71875 267.347656 C 261.410156 267.347656 262.097656 267.386719 262.785156 267.457031 C 263.472656 267.527344 264.15625 267.636719 264.832031 267.777344 C 265.507812 267.917969 266.175781 268.097656 266.832031 268.308594 C 267.488281 268.519531 268.136719 268.765625 268.769531 269.042969 C 269.398438 269.324219 270.015625 269.632812 270.617188 269.976562 C 271.214844 270.320312 271.796875 270.691406 272.359375 271.09375 C 272.917969 271.496094 273.457031 271.929688 273.976562 272.386719 C 274.492188 272.847656 274.984375 273.332031 275.449219 273.839844 C 275.933594 274.367188 276.394531 274.917969 276.828125 275.488281 C 277.261719 276.058594 277.667969 276.648438 278.046875 277.253906 C 278.429688 277.863281 278.777344 278.488281 279.097656 279.128906 C 279.421875 279.769531 279.710938 280.425781 279.972656 281.09375 C 280.230469 281.761719 280.460938 282.4375 280.65625 283.128906 C 280.855469 283.816406 281.019531 284.511719 281.152344 285.21875 C 281.285156 285.921875 281.382812 286.632812 281.449219 287.34375 C 281.515625 288.058594 281.550781 288.773438 281.550781 289.492188 C 281.550781 290.207031 281.515625 290.921875 281.449219 291.636719 C 281.382812 292.351562 281.285156 293.058594 281.152344 293.765625 C 281.019531 294.46875 280.855469 295.164062 280.65625 295.855469 C 280.460938 296.542969 280.230469 297.222656 279.972656 297.890625 C 279.710938 298.558594 279.421875 299.210938 279.097656 299.851562 C 278.777344 300.492188 278.429688 301.117188 278.046875 301.726562 C 277.667969 302.335938 277.261719 302.921875 276.828125 303.492188 C 276.394531 304.0625 275.933594 304.613281 275.449219 305.140625 L 237.804688 345.140625 L 200.152344 305.140625 C 199.667969 304.613281 199.207031 304.0625 198.773438 303.492188 C 198.339844 302.921875 197.933594 302.335938 197.554688 301.726562 C 197.175781 301.117188 196.824219 300.492188 196.503906 299.851562 C 196.183594 299.210938 195.890625 298.558594 195.632812 297.890625 C 195.371094 297.222656 195.140625 296.542969 194.945312 295.855469 C 194.746094 295.164062 194.582031 294.46875 194.449219 293.765625 C 194.316406 293.058594 194.21875 292.351562 194.152344 291.636719 C 194.085938 290.921875 194.050781 290.207031 194.050781 289.492188 C 194.050781 288.773438 194.085938 288.058594 194.152344 287.34375 C 194.21875 286.632812 194.316406 285.921875 194.449219 285.21875 C 194.582031 284.511719 194.746094 283.816406 194.945312 283.128906 C 195.140625 282.4375 195.371094 281.761719 195.632812 281.09375 C 195.890625 280.425781 196.183594 279.769531 196.503906 279.128906 C 196.824219 278.488281 197.175781 277.863281 197.554688 277.253906 C 197.933594 276.648438 198.339844 276.058594 198.773438 275.488281 C 199.207031 274.917969 199.667969 274.367188 200.152344 273.839844 Z M 200.152344 273.839844 " fill-opacity="1" fill-rule="nonzero"/><path fill="#f39c12" d="M 81.550781 249.996094 C 79.914062 249.996094 78.277344 250.078125 76.648438 250.238281 C 75.019531 250.398438 73.402344 250.640625 71.796875 250.957031 C 70.1875 251.277344 68.601562 251.675781 67.035156 252.152344 C 65.46875 252.625 63.929688 253.175781 62.414062 253.804688 C 60.902344 254.429688 59.425781 255.128906 57.980469 255.902344 C 56.535156 256.675781 55.132812 257.515625 53.769531 258.425781 C 52.410156 259.335938 51.09375 260.308594 49.828125 261.347656 C 48.5625 262.386719 47.351562 263.484375 46.195312 264.644531 C 45.035156 265.800781 43.9375 267.011719 42.898438 268.277344 C 41.859375 269.546875 40.886719 270.859375 39.976562 272.21875 C 39.066406 273.582031 38.222656 274.984375 37.453125 276.429688 C 36.679688 277.875 35.980469 279.351562 35.355469 280.863281 C 34.726562 282.378906 34.175781 283.917969 33.703125 285.484375 C 33.226562 287.050781 32.828125 288.640625 32.507812 290.246094 C 32.191406 291.851562 31.949219 293.46875 31.789062 295.097656 C 31.628906 296.730469 31.546875 298.363281 31.546875 300 C 31.546875 301.636719 31.628906 303.269531 31.789062 304.902344 C 31.949219 306.53125 32.191406 308.148438 32.507812 309.753906 C 32.828125 311.359375 33.226562 312.949219 33.703125 314.515625 C 34.175781 316.082031 34.726562 317.621094 35.355469 319.136719 C 35.980469 320.648438 36.679688 322.125 37.453125 323.570312 C 38.222656 325.015625 39.066406 326.417969 39.976562 327.78125 C 40.886719 329.140625 41.859375 330.453125 42.898438 331.722656 C 43.9375 332.988281 45.035156 334.199219 46.195312 335.355469 C 47.351562 336.515625 48.5625 337.613281 49.828125 338.652344 C 51.09375 339.691406 52.410156 340.664062 53.769531 341.574219 C 55.132812 342.484375 56.535156 343.324219 57.980469 344.097656 C 59.425781 344.871094 60.902344 345.570312 62.414062 346.195312 C 63.929688 346.824219 65.46875 347.375 67.035156 347.847656 C 68.601562 348.324219 70.1875 348.722656 71.796875 349.042969 C 73.402344 349.359375 75.019531 349.601562 76.648438 349.761719 C 78.277344 349.921875 79.914062 350.003906 81.550781 350.003906 C 83.1875 350.003906 84.820312 349.921875 86.453125 349.761719 C 88.082031 349.601562 89.699219 349.359375 91.304688 349.042969 C 92.910156 348.722656 94.5 348.324219 96.066406 347.847656 C 97.632812 347.375 99.171875 346.824219 100.683594 346.195312 C 102.199219 345.570312 103.675781 344.871094 105.121094 344.097656 C 106.566406 343.324219 107.96875 342.484375 109.328125 341.574219 C 110.691406 340.664062 112.003906 339.691406 113.269531 338.652344 C 114.539062 337.613281 115.75 336.515625 116.90625 335.355469 C 118.066406 334.199219 119.164062 332.988281 120.203125 331.722656 C 121.242188 330.453125 122.214844 329.140625 123.125 327.78125 C 124.035156 326.417969 124.875 325.015625 125.648438 323.570312 C 126.421875 322.125 127.121094 320.648438 127.746094 319.136719 C 128.371094 317.621094 128.925781 316.082031 129.398438 314.515625 C 129.875 312.949219 130.273438 311.359375 130.589844 309.753906 C 130.910156 308.148438 131.152344 306.53125 131.3125 304.902344 C 131.472656 303.269531 131.550781 301.636719 131.550781 300 C 131.550781 298.363281 131.472656 296.730469 131.3125 295.097656 C 131.152344 293.46875 130.910156 291.851562 130.59375 290.246094 C 130.273438 288.636719 129.875 287.050781 129.402344 285.484375 C 128.925781 283.917969 128.375 282.378906 127.746094 280.863281 C 127.121094 279.351562 126.421875 277.871094 125.648438 276.429688 C 124.878906 274.984375 124.039062 273.582031 123.128906 272.21875 C 122.21875 270.855469 121.242188 269.542969 120.203125 268.277344 C 119.164062 267.011719 118.066406 265.800781 116.910156 264.640625 C 115.75 263.484375 114.539062 262.386719 113.273438 261.347656 C 112.007812 260.308594 110.691406 259.332031 109.332031 258.421875 C 107.96875 257.511719 106.566406 256.671875 105.121094 255.898438 C 103.679688 255.128906 102.199219 254.429688 100.6875 253.800781 C 99.171875 253.175781 97.632812 252.625 96.066406 252.148438 C 94.5 251.675781 92.910156 251.277344 91.304688 250.957031 C 89.699219 250.636719 88.082031 250.398438 86.453125 250.238281 C 84.820312 250.078125 83.1875 249.996094 81.550781 249.996094 Z M 106.554688 306.246094 L 87.804688 306.246094 L 87.804688 324.996094 L 75.300781 324.996094 L 75.300781 306.246094 L 56.550781 306.246094 L 56.550781 293.753906 L 75.300781 293.753906 L 75.300781 275.003906 L 87.804688 275.003906 L 87.804688 293.753906 L 106.554688 293.753906 Z M 106.554688 306.246094 " fill-opacity="1" fill-rule="nonzero"/><path fill="#f39c12" d="M 231.550781 112.5 C 231.550781 110.660156 231.503906 108.820312 231.414062 106.980469 C 231.324219 105.140625 231.1875 103.304688 231.007812 101.472656 C 230.828125 99.640625 230.601562 97.8125 230.332031 95.992188 C 230.0625 94.171875 229.746094 92.359375 229.390625 90.550781 C 229.03125 88.746094 228.625 86.949219 228.179688 85.164062 C 227.730469 83.378906 227.242188 81.605469 226.707031 79.84375 C 226.171875 78.082031 225.59375 76.332031 224.972656 74.601562 C 224.355469 72.867188 223.691406 71.148438 222.988281 69.449219 C 222.28125 67.746094 221.535156 66.0625 220.75 64.398438 C 219.960938 62.734375 219.132812 61.089844 218.265625 59.46875 C 217.398438 57.84375 216.492188 56.242188 215.542969 54.664062 C 214.597656 53.085938 213.613281 51.527344 212.589844 50 C 211.566406 48.46875 210.507812 46.960938 209.410156 45.484375 C 208.316406 44.003906 207.183594 42.554688 206.015625 41.128906 C 204.847656 39.707031 203.644531 38.3125 202.40625 36.949219 C 201.171875 35.585938 199.902344 34.253906 198.601562 32.949219 C 197.296875 31.648438 195.964844 30.378906 194.601562 29.144531 C 193.238281 27.90625 191.84375 26.703125 190.417969 25.535156 C 188.996094 24.367188 187.546875 23.234375 186.066406 22.140625 C 184.585938 21.042969 183.082031 19.984375 181.550781 18.960938 C 180.019531 17.9375 178.464844 16.953125 176.886719 16.003906 C 175.308594 15.058594 173.707031 14.152344 172.082031 13.285156 C 170.457031 12.414062 168.816406 11.589844 167.148438 10.800781 C 165.484375 10.015625 163.804688 9.269531 162.101562 8.5625 C 160.402344 7.859375 158.683594 7.195312 156.949219 6.578125 C 155.21875 5.957031 153.46875 5.378906 151.707031 4.84375 C 149.945312 4.308594 148.171875 3.820312 146.386719 3.371094 C 144.601562 2.925781 142.804688 2.519531 140.996094 2.160156 C 139.191406 1.800781 137.378906 1.488281 135.558594 1.21875 C 133.738281 0.949219 131.910156 0.722656 130.078125 0.542969 C 128.246094 0.359375 126.410156 0.226562 124.570312 0.136719 C 122.730469 0.046875 120.890625 0 119.050781 0 C 117.210938 0 115.371094 0.046875 113.53125 0.136719 C 111.691406 0.226562 109.855469 0.359375 108.023438 0.542969 C 106.191406 0.722656 104.363281 0.949219 102.542969 1.21875 C 100.722656 1.488281 98.910156 1.800781 97.101562 2.160156 C 95.296875 2.519531 93.5 2.925781 91.714844 3.371094 C 89.929688 3.820312 88.15625 4.308594 86.394531 4.84375 C 84.632812 5.378906 82.882812 5.957031 81.148438 6.578125 C 79.417969 7.195312 77.699219 7.859375 76 8.5625 C 74.296875 9.269531 72.613281 10.015625 70.949219 10.800781 C 69.285156 11.589844 67.640625 12.414062 66.019531 13.285156 C 64.394531 14.152344 62.792969 15.058594 61.214844 16.003906 C 59.632812 16.953125 58.078125 17.9375 56.546875 18.960938 C 55.019531 19.984375 53.511719 21.042969 52.035156 22.140625 C 50.554688 23.234375 49.105469 24.367188 47.679688 25.535156 C 46.257812 26.703125 44.863281 27.90625 43.5 29.144531 C 42.136719 30.378906 40.804688 31.648438 39.5 32.949219 C 38.199219 34.253906 36.929688 35.585938 35.695312 36.949219 C 34.457031 38.3125 33.253906 39.707031 32.085938 41.128906 C 30.917969 42.554688 29.785156 44.003906 28.691406 45.484375 C 27.59375 46.960938 26.53125 48.46875 25.511719 50 C 24.488281 51.527344 23.503906 53.085938 22.554688 54.664062 C 21.609375 56.242188 20.703125 57.84375 19.835938 59.46875 C 18.964844 61.089844 18.140625 62.734375 17.351562 64.398438 C 16.5625 66.0625 15.820312 67.746094 15.113281 69.449219 C 14.410156 71.148438 13.746094 72.867188 13.125 74.601562 C 12.507812 76.332031 11.929688 78.082031 11.394531 79.84375 C 10.859375 81.605469 10.371094 83.378906 9.921875 85.164062 C 9.472656 86.949219 9.070312 88.746094 8.710938 90.550781 C 8.351562 92.359375 8.039062 94.171875 7.769531 95.992188 C 7.496094 97.8125 7.273438 99.640625 7.09375 101.472656 C 6.910156 103.304688 6.777344 105.140625 6.6875 106.980469 C 6.59375 108.820312 6.550781 110.660156 6.550781 112.5 C 6.550781 114.339844 6.59375 116.179688 6.6875 118.019531 C 6.777344 119.859375 6.910156 121.695312 7.09375 123.527344 C 7.273438 125.359375 7.496094 127.1875 7.769531 129.007812 C 8.039062 130.828125 8.351562 132.640625 8.710938 134.449219 C 9.070312 136.253906 9.472656 138.050781 9.921875 139.835938 C 10.371094 141.621094 10.859375 143.394531 11.394531 145.15625 C 11.929688 146.917969 12.507812 148.667969 13.125 150.398438 C 13.746094 152.132812 14.410156 153.851562 15.113281 155.550781 C 15.820312 157.253906 16.5625 158.933594 17.351562 160.601562 C 18.140625 162.265625 18.964844 163.910156 19.835938 165.53125 C 20.703125 167.15625 21.609375 168.757812 22.554688 170.335938 C 23.503906 171.914062 24.488281 173.472656 25.511719 175 C 26.53125 176.53125 27.59375 178.039062 28.691406 179.515625 C 29.785156 180.996094 30.917969 182.445312 32.085938 183.871094 C 33.253906 185.292969 34.457031 186.6875 35.695312 188.050781 C 36.929688 189.414062 38.199219 190.746094 39.5 192.050781 C 40.804688 193.351562 42.136719 194.621094 43.5 195.855469 C 44.863281 197.09375 46.257812 198.296875 47.679688 199.464844 C 49.105469 200.632812 50.554688 201.765625 52.035156 202.859375 C 53.511719 203.957031 55.019531 205.015625 56.546875 206.039062 C 58.078125 207.0625 59.632812 208.046875 61.214844 208.996094 C 62.792969 209.941406 64.394531 210.847656 66.019531 211.714844 C 67.640625 212.582031 69.285156 213.410156 70.949219 214.199219 C 72.613281 214.984375 74.296875 215.730469 76 216.4375 C 77.699219 217.140625 79.417969 217.804688 81.148438 218.421875 C 82.882812 219.042969 84.632812 219.621094 86.394531 220.15625 C 88.15625 220.691406 89.929688 221.179688 91.714844 221.628906 C 93.5 222.074219 95.296875 222.480469 97.101562 222.839844 C 98.910156 223.199219 100.722656 223.511719 102.542969 223.78125 C 104.363281 224.050781 106.191406 224.277344 108.023438 224.457031 C 109.855469 224.640625 111.691406 224.773438 113.53125 224.863281 C 115.371094 224.953125 117.210938 225 119.050781 225 C 120.890625 225 122.730469 224.953125 124.570312 224.863281 C 126.410156 224.773438 128.246094 224.640625 130.078125 224.457031 C 131.910156 224.277344 133.738281 224.050781 135.558594 223.78125 C 137.378906 223.511719 139.191406 223.199219 140.996094 222.839844 C 142.804688 222.480469 144.601562 222.074219 146.386719 221.628906 C 148.171875 221.179688 149.945312 220.691406 151.707031 220.15625 C 153.46875 219.621094 155.21875 219.042969 156.949219 218.421875 C 158.683594 217.804688 160.402344 217.140625 162.101562 216.4375 C 163.804688 215.730469 165.484375 214.984375 167.148438 214.199219 C 168.816406 213.410156 170.457031 212.585938 172.082031 211.714844 C 173.707031 210.847656 175.308594 209.941406 176.886719 208.996094 C 178.464844 208.046875 180.019531 207.0625 181.550781 206.039062 C 183.082031 205.015625 184.585938 203.957031 186.066406 202.859375 C 187.546875 201.765625 188.996094 200.632812 190.417969 199.464844 C 191.84375 198.296875 193.238281 197.09375 194.601562 195.855469 C 195.964844 194.621094 197.296875 193.351562 198.601562 192.050781 C 199.902344 190.746094 201.171875 189.414062 202.40625 188.050781 C 203.644531 186.6875 204.847656 185.292969 206.015625 183.871094 C 207.183594 182.445312 208.316406 180.996094 209.410156 179.515625 C 210.507812 178.039062 211.566406 176.53125 212.589844 175 C 213.613281 173.472656 214.597656 171.914062 215.542969 170.335938 C 216.492188 168.757812 217.398438 167.15625 218.265625 165.53125 C 219.132812 163.910156 219.960938 162.265625 220.75 160.601562 C 221.535156 158.933594 222.28125 157.253906 222.988281 155.550781 C 223.691406 153.851562 224.355469 152.132812 224.972656 150.398438 C 225.59375 148.667969 226.171875 146.917969 226.707031 145.15625 C 227.242188 143.394531 227.730469 141.621094 228.179688 139.835938 C 228.625 138.050781 229.03125 136.253906 229.390625 134.449219 C 229.746094 132.640625 230.0625 130.828125 230.332031 129.007812 C 230.601562 127.1875 230.828125 125.359375 231.007812 123.527344 C 231.1875 121.695312 231.324219 119.859375 231.414062 118.019531 C 231.503906 116.179688 231.550781 114.339844 231.550781 112.5 Z M 75.300781 156.246094 C 75.300781 156.660156 75.261719 157.066406 75.183594 157.46875 C 75.101562 157.871094 74.984375 158.261719 74.828125 158.640625 C 74.671875 159.019531 74.476562 159.378906 74.25 159.71875 C 74.023438 160.0625 73.761719 160.378906 73.472656 160.667969 C 73.183594 160.957031 72.867188 161.21875 72.527344 161.445312 C 72.183594 161.675781 71.824219 161.867188 71.445312 162.023438 C 71.066406 162.179688 70.675781 162.300781 70.273438 162.378906 C 69.871094 162.460938 69.464844 162.5 69.054688 162.503906 L 50.304688 162.503906 C 49.894531 162.503906 49.488281 162.460938 49.085938 162.382812 C 48.679688 162.300781 48.289062 162.183594 47.910156 162.027344 C 47.53125 161.867188 47.171875 161.675781 46.828125 161.449219 C 46.488281 161.21875 46.171875 160.960938 45.882812 160.671875 C 45.589844 160.378906 45.332031 160.0625 45.105469 159.722656 C 44.875 159.382812 44.683594 159.019531 44.527344 158.640625 C 44.371094 158.261719 44.25 157.871094 44.171875 157.46875 C 44.089844 157.066406 44.050781 156.660156 44.050781 156.246094 L 44.050781 87.503906 C 44.050781 87.089844 44.089844 86.683594 44.171875 86.28125 C 44.25 85.878906 44.371094 85.488281 44.527344 85.109375 C 44.683594 84.730469 44.875 84.367188 45.105469 84.027344 C 45.332031 83.6875 45.589844 83.371094 45.882812 83.078125 C 46.171875 82.789062 46.488281 82.53125 46.828125 82.300781 C 47.171875 82.074219 47.53125 81.882812 47.910156 81.722656 C 48.289062 81.566406 48.679688 81.449219 49.085938 81.367188 C 49.488281 81.289062 49.894531 81.246094 50.304688 81.246094 L 69.054688 81.246094 C 69.464844 81.25 69.871094 81.289062 70.273438 81.371094 C 70.675781 81.449219 71.066406 81.570312 71.445312 81.726562 C 71.824219 81.882812 72.183594 82.074219 72.527344 82.304688 C 72.867188 82.53125 73.183594 82.792969 73.472656 83.082031 C 73.761719 83.371094 74.023438 83.6875 74.25 84.03125 C 74.476562 84.371094 74.671875 84.730469 74.828125 85.109375 C 74.984375 85.488281 75.101562 85.878906 75.183594 86.28125 C 75.261719 86.683594 75.300781 87.089844 75.300781 87.503906 Z M 194.050781 134.378906 C 194.050781 134.992188 193.992188 135.601562 193.871094 136.207031 C 193.75 136.808594 193.574219 137.394531 193.335938 137.964844 C 193.101562 138.535156 192.8125 139.074219 192.46875 139.585938 C 192.128906 140.097656 191.738281 140.570312 191.304688 141.007812 C 190.871094 141.441406 190.394531 141.828125 189.882812 142.171875 C 189.371094 142.515625 188.832031 142.804688 188.261719 143.039062 C 187.695312 143.273438 187.109375 143.453125 186.503906 143.570312 C 185.902344 143.691406 185.289062 143.753906 184.675781 143.753906 L 178.425781 143.753906 C 179.042969 143.753906 179.652344 143.8125 180.257812 143.933594 C 180.859375 144.050781 181.445312 144.230469 182.015625 144.464844 C 182.582031 144.703125 183.125 144.988281 183.636719 145.332031 C 184.148438 145.675781 184.621094 146.0625 185.054688 146.496094 C 185.492188 146.933594 185.878906 147.40625 186.222656 147.917969 C 186.5625 148.429688 186.851562 148.96875 187.089844 149.539062 C 187.324219 150.109375 187.503906 150.695312 187.621094 151.296875 C 187.742188 151.902344 187.800781 152.511719 187.800781 153.128906 C 187.800781 153.742188 187.742188 154.351562 187.621094 154.957031 C 187.503906 155.558594 187.324219 156.144531 187.089844 156.714844 C 186.851562 157.285156 186.5625 157.824219 186.222656 158.335938 C 185.878906 158.847656 185.492188 159.320312 185.054688 159.757812 C 184.621094 160.191406 184.148438 160.578125 183.636719 160.921875 C 183.125 161.265625 182.582031 161.554688 182.015625 161.789062 C 181.445312 162.023438 180.859375 162.203125 180.257812 162.320312 C 179.652344 162.441406 179.042969 162.503906 178.425781 162.503906 L 100.300781 162.503906 L 93.15625 156.265625 L 87.804688 156.265625 L 87.804688 87.503906 L 101.714844 87.503906 C 102.980469 87.503906 104.238281 87.40625 105.488281 87.214844 C 106.738281 87.023438 107.96875 86.742188 109.175781 86.363281 C 110.382812 85.984375 111.554688 85.519531 112.691406 84.964844 C 113.828125 84.410156 114.914062 83.769531 115.957031 83.050781 C 116.996094 82.328125 117.972656 81.535156 118.894531 80.664062 C 119.8125 79.796875 120.660156 78.863281 121.4375 77.863281 C 122.214844 76.867188 122.914062 75.816406 123.53125 74.710938 C 124.148438 73.609375 124.679688 72.464844 125.121094 71.28125 L 134.710938 45.71875 C 134.988281 44.964844 135.335938 44.242188 135.75 43.554688 C 136.164062 42.867188 136.640625 42.222656 137.179688 41.628906 C 137.71875 41.03125 138.308594 40.488281 138.949219 40.003906 C 139.589844 39.515625 140.269531 39.097656 140.992188 38.742188 C 141.710938 38.386719 142.460938 38.101562 143.234375 37.886719 C 144.011719 37.675781 144.800781 37.539062 145.601562 37.472656 C 146.402344 37.410156 147.203125 37.425781 148 37.515625 C 148.800781 37.601562 149.582031 37.765625 150.351562 38.003906 C 151.117188 38.242188 151.855469 38.554688 152.566406 38.933594 C 153.273438 39.3125 153.941406 39.753906 154.566406 40.261719 C 155.191406 40.765625 155.761719 41.328125 156.28125 41.941406 C 156.796875 42.554688 157.253906 43.214844 157.644531 43.917969 C 158.039062 44.617188 158.363281 45.351562 158.613281 46.113281 C 158.867188 46.875 159.046875 47.65625 159.152344 48.453125 C 159.253906 49.25 159.285156 50.050781 159.234375 50.851562 C 159.1875 51.65625 159.066406 52.445312 158.867188 53.226562 L 150.300781 87.503906 L 197.175781 87.503906 C 197.792969 87.503906 198.402344 87.5625 199.007812 87.683594 C 199.609375 87.800781 200.195312 87.980469 200.765625 88.214844 C 201.332031 88.453125 201.875 88.738281 202.386719 89.082031 C 202.898438 89.425781 203.371094 89.8125 203.804688 90.246094 C 204.242188 90.683594 204.628906 91.15625 204.972656 91.667969 C 205.3125 92.179688 205.601562 92.71875 205.839844 93.289062 C 206.074219 93.859375 206.253906 94.445312 206.371094 95.046875 C 206.492188 95.652344 206.550781 96.261719 206.550781 96.878906 C 206.550781 97.492188 206.492188 98.101562 206.371094 98.707031 C 206.253906 99.308594 206.074219 99.894531 205.839844 100.464844 C 205.601562 101.035156 205.3125 101.574219 204.972656 102.085938 C 204.628906 102.597656 204.242188 103.070312 203.804688 103.507812 C 203.371094 103.941406 202.898438 104.328125 202.386719 104.671875 C 201.875 105.015625 201.332031 105.304688 200.765625 105.539062 C 200.195312 105.773438 199.609375 105.953125 199.007812 106.070312 C 198.402344 106.191406 197.792969 106.253906 197.175781 106.253906 L 190.929688 106.253906 C 191.546875 106.253906 192.15625 106.3125 192.757812 106.433594 C 193.363281 106.550781 193.949219 106.730469 194.515625 106.964844 C 195.085938 107.203125 195.625 107.488281 196.136719 107.832031 C 196.648438 108.175781 197.125 108.5625 197.558594 108.996094 C 197.992188 109.433594 198.382812 109.90625 198.722656 110.417969 C 199.066406 110.929688 199.355469 111.46875 199.589844 112.039062 C 199.828125 112.609375 200.003906 113.195312 200.125 113.796875 C 200.246094 114.402344 200.304688 115.011719 200.304688 115.628906 C 200.304688 116.242188 200.246094 116.851562 200.125 117.457031 C 200.003906 118.058594 199.828125 118.644531 199.589844 119.214844 C 199.355469 119.785156 199.066406 120.324219 198.722656 120.835938 C 198.382812 121.347656 197.992188 121.820312 197.558594 122.257812 C 197.125 122.691406 196.648438 123.078125 196.136719 123.421875 C 195.625 123.765625 195.085938 124.054688 194.515625 124.289062 C 193.949219 124.523438 193.363281 124.703125 192.757812 124.820312 C 192.15625 124.941406 191.546875 125.003906 190.929688 125.003906 L 184.675781 125.003906 C 185.289062 125.003906 185.902344 125.0625 186.503906 125.183594 C 187.109375 125.300781 187.695312 125.480469 188.261719 125.714844 C 188.832031 125.953125 189.371094 126.238281 189.882812 126.582031 C 190.394531 126.925781 190.871094 127.3125 191.304688 127.746094 C 191.738281 128.183594 192.128906 128.65625 192.46875 129.167969 C 192.8125 129.679688 193.101562 130.21875 193.335938 130.789062 C 193.574219 131.359375 193.75 131.945312 193.871094 132.546875 C 193.992188 133.152344 194.050781 133.761719 194.050781 134.378906 Z M 194.050781 134.378906 " fill-opacity="1" fill-rule="nonzero"/><g clip-path="url(#df54b25601)"><path fill="#f39c12" d="M 369.054688 156.246094 C 369.054688 154.40625 368.964844 152.566406 368.785156 150.734375 C 368.601562 148.902344 368.332031 147.082031 367.972656 145.273438 C 367.613281 143.46875 367.167969 141.683594 366.632812 139.917969 C 366.097656 138.15625 365.476562 136.425781 364.773438 134.722656 C 364.066406 133.019531 363.28125 131.355469 362.414062 129.730469 C 361.542969 128.105469 360.597656 126.527344 359.574219 124.996094 C 358.550781 123.464844 357.453125 121.988281 356.285156 120.5625 C 355.117188 119.140625 353.882812 117.777344 352.578125 116.472656 C 351.277344 115.171875 349.914062 113.933594 348.488281 112.765625 C 347.066406 111.597656 345.585938 110.5 344.054688 109.476562 C 342.523438 108.453125 340.945312 107.507812 339.320312 106.640625 C 337.695312 105.769531 336.03125 104.984375 334.332031 104.28125 C 332.628906 103.574219 330.894531 102.953125 329.132812 102.421875 C 327.371094 101.886719 325.585938 101.4375 323.777344 101.078125 C 321.972656 100.71875 320.152344 100.449219 318.316406 100.269531 C 316.484375 100.089844 314.648438 99.996094 312.804688 99.996094 C 310.960938 99.996094 309.125 100.089844 307.289062 100.269531 C 305.457031 100.449219 303.636719 100.71875 301.832031 101.078125 C 300.023438 101.4375 298.238281 101.886719 296.476562 102.421875 C 294.714844 102.953125 292.980469 103.574219 291.277344 104.28125 C 289.578125 104.984375 287.914062 105.769531 286.289062 106.640625 C 284.664062 107.507812 283.085938 108.453125 281.554688 109.476562 C 280.023438 110.5 278.542969 111.597656 277.121094 112.765625 C 275.695312 113.933594 274.332031 115.171875 273.03125 116.472656 C 271.726562 117.777344 270.492188 119.140625 269.324219 120.5625 C 268.152344 121.988281 267.058594 123.464844 266.035156 124.996094 C 265.011719 126.527344 264.066406 128.105469 263.195312 129.730469 C 262.328125 131.355469 261.542969 133.019531 260.835938 134.722656 C 260.132812 136.425781 259.511719 138.15625 258.976562 139.917969 C 258.441406 141.683594 257.996094 143.46875 257.636719 145.273438 C 257.277344 147.082031 257.003906 148.902344 256.824219 150.734375 C 256.644531 152.566406 256.554688 154.40625 256.554688 156.246094 C 256.554688 158.089844 256.644531 159.929688 256.824219 161.761719 C 257.003906 163.59375 257.277344 165.414062 257.636719 167.222656 C 257.996094 169.027344 258.441406 170.8125 258.976562 172.578125 C 259.511719 174.339844 260.132812 176.070312 260.835938 177.773438 C 261.542969 179.476562 262.328125 181.140625 263.195312 182.765625 C 264.066406 184.390625 265.011719 185.96875 266.035156 187.5 C 267.058594 189.03125 268.152344 190.507812 269.324219 191.933594 C 270.492188 193.355469 271.726562 194.71875 273.03125 196.023438 C 274.332031 197.324219 275.695312 198.5625 277.121094 199.730469 C 278.542969 200.898438 280.023438 201.996094 281.554688 203.019531 C 283.085938 204.042969 284.664062 204.988281 286.289062 205.855469 C 287.914062 206.722656 289.578125 207.511719 291.277344 208.214844 C 292.980469 208.921875 294.714844 209.542969 296.476562 210.074219 C 298.238281 210.609375 300.023438 211.058594 301.832031 211.417969 C 303.636719 211.777344 305.457031 212.046875 307.289062 212.226562 C 309.125 212.40625 310.960938 212.496094 312.804688 212.496094 C 314.648438 212.496094 316.484375 212.40625 318.316406 212.226562 C 320.152344 212.046875 321.972656 211.777344 323.777344 211.417969 C 325.585938 211.058594 327.371094 210.609375 329.132812 210.074219 C 330.894531 209.542969 332.628906 208.921875 334.332031 208.214844 C 336.03125 207.511719 337.695312 206.722656 339.320312 205.855469 C 340.945312 204.988281 342.523438 204.042969 344.054688 203.019531 C 345.585938 201.996094 347.066406 200.898438 348.488281 199.730469 C 349.914062 198.5625 351.277344 197.324219 352.578125 196.023438 C 353.882812 194.71875 355.117188 193.355469 356.285156 191.933594 C 357.453125 190.507812 358.550781 189.03125 359.574219 187.5 C 360.597656 185.96875 361.542969 184.390625 362.414062 182.765625 C 363.28125 181.140625 364.066406 179.476562 364.773438 177.773438 C 365.476562 176.070312 366.097656 174.339844 366.632812 172.578125 C 367.167969 170.8125 367.613281 169.027344 367.972656 167.222656 C 368.332031 165.414062 368.601562 163.59375 368.785156 161.761719 C 368.964844 159.929688 369.054688 158.089844 369.054688 156.246094 Z M 325.300781 131.25 L 337.800781 131.25 L 337.800781 143.753906 L 325.300781 143.753906 Z M 287.800781 131.25 L 300.300781 131.25 L 300.300781 143.753906 L 287.800781 143.753906 Z M 281.550781 162.503906 L 294.054688 162.503906 C 294.054688 163.117188 294.085938 163.730469 294.144531 164.339844 C 294.203125 164.949219 294.292969 165.558594 294.414062 166.160156 C 294.535156 166.761719 294.683594 167.355469 294.863281 167.945312 C 295.039062 168.53125 295.246094 169.109375 295.480469 169.675781 C 295.714844 170.246094 295.980469 170.800781 296.269531 171.339844 C 296.558594 171.882812 296.875 172.410156 297.214844 172.917969 C 297.554688 173.429688 297.921875 173.921875 298.308594 174.398438 C 298.699219 174.871094 299.113281 175.324219 299.546875 175.761719 C 299.980469 176.195312 300.433594 176.605469 300.910156 176.996094 C 301.382812 177.386719 301.875 177.75 302.386719 178.09375 C 302.898438 178.433594 303.425781 178.75 303.964844 179.039062 C 304.507812 179.328125 305.0625 179.589844 305.628906 179.824219 C 306.195312 180.058594 306.773438 180.265625 307.363281 180.445312 C 307.949219 180.621094 308.542969 180.773438 309.144531 180.890625 C 309.75 181.011719 310.355469 181.101562 310.964844 181.160156 C 311.578125 181.222656 312.191406 181.253906 312.804688 181.253906 C 313.417969 181.253906 314.03125 181.222656 314.640625 181.160156 C 315.253906 181.101562 315.859375 181.011719 316.460938 180.890625 C 317.066406 180.773438 317.660156 180.621094 318.246094 180.445312 C 318.835938 180.265625 319.414062 180.058594 319.980469 179.824219 C 320.546875 179.589844 321.101562 179.328125 321.644531 179.039062 C 322.183594 178.75 322.710938 178.433594 323.222656 178.09375 C 323.730469 177.75 324.222656 177.386719 324.699219 176.996094 C 325.175781 176.605469 325.628906 176.195312 326.0625 175.761719 C 326.496094 175.324219 326.910156 174.871094 327.296875 174.398438 C 327.6875 173.921875 328.054688 173.429688 328.394531 172.917969 C 328.734375 172.410156 329.050781 171.882812 329.339844 171.339844 C 329.628906 170.800781 329.890625 170.246094 330.128906 169.675781 C 330.363281 169.109375 330.570312 168.53125 330.746094 167.945312 C 330.925781 167.355469 331.074219 166.761719 331.195312 166.160156 C 331.3125 165.558594 331.402344 164.949219 331.464844 164.339844 C 331.523438 163.730469 331.554688 163.117188 331.554688 162.503906 L 344.050781 162.503906 C 344.035156 163.515625 343.972656 164.527344 343.859375 165.535156 C 343.746094 166.542969 343.585938 167.542969 343.375 168.535156 C 343.167969 169.53125 342.910156 170.507812 342.601562 171.476562 C 342.296875 172.445312 341.945312 173.394531 341.546875 174.328125 C 341.148438 175.261719 340.707031 176.171875 340.222656 177.0625 C 339.734375 177.953125 339.207031 178.816406 338.632812 179.65625 C 338.0625 180.492188 337.453125 181.300781 336.804688 182.082031 C 336.152344 182.859375 335.46875 183.605469 334.746094 184.320312 C 334.023438 185.03125 333.269531 185.707031 332.480469 186.34375 C 331.691406 186.984375 330.875 187.582031 330.027344 188.140625 C 329.183594 188.703125 328.308594 189.21875 327.414062 189.691406 C 326.515625 190.167969 325.597656 190.597656 324.660156 190.980469 C 323.722656 191.367188 322.765625 191.707031 321.796875 191.996094 C 320.824219 192.289062 319.839844 192.53125 318.84375 192.730469 C 317.851562 192.925781 316.847656 193.074219 315.835938 193.171875 C 314.828125 193.269531 313.816406 193.320312 312.800781 193.320312 C 311.785156 193.320312 310.773438 193.269531 309.765625 193.171875 C 308.753906 193.074219 307.753906 192.925781 306.757812 192.730469 C 305.761719 192.53125 304.777344 192.289062 303.808594 191.996094 C 302.835938 191.707031 301.882812 191.367188 300.941406 190.980469 C 300.003906 190.597656 299.085938 190.167969 298.1875 189.691406 C 297.292969 189.21875 296.421875 188.703125 295.574219 188.140625 C 294.726562 187.582031 293.910156 186.984375 293.121094 186.34375 C 292.335938 185.707031 291.578125 185.03125 290.855469 184.320312 C 290.136719 183.605469 289.449219 182.859375 288.800781 182.082031 C 288.148438 181.300781 287.539062 180.492188 286.96875 179.65625 C 286.398438 178.816406 285.867188 177.953125 285.382812 177.0625 C 284.894531 176.171875 284.453125 175.261719 284.054688 174.328125 C 283.65625 173.394531 283.304688 172.445312 283 171.476562 C 282.695312 170.507812 282.4375 169.53125 282.226562 168.535156 C 282.015625 167.542969 281.855469 166.542969 281.742188 165.535156 C 281.628906 164.527344 281.566406 163.515625 281.550781 162.503906 Z M 281.550781 162.503906 " fill-opacity="1" fill-rule="nonzero"/></g><path fill="#f39c12" d="M 237.804688 375 C 239.03125 375 240.257812 374.96875 241.484375 374.910156 C 242.710938 374.847656 243.933594 374.757812 245.15625 374.640625 C 246.378906 374.519531 247.59375 374.367188 248.808594 374.1875 C 250.023438 374.007812 251.230469 373.796875 252.4375 373.558594 C 253.640625 373.320312 254.835938 373.050781 256.027344 372.753906 C 257.21875 372.453125 258.402344 372.125 259.574219 371.769531 C 260.75 371.414062 261.914062 371.03125 263.070312 370.617188 C 264.226562 370.203125 265.371094 369.761719 266.503906 369.289062 C 267.640625 368.820312 268.761719 368.324219 269.871094 367.800781 C 270.980469 367.273438 272.078125 366.722656 273.160156 366.144531 C 274.242188 365.566406 275.308594 364.960938 276.363281 364.328125 C 277.414062 363.699219 278.453125 363.042969 279.472656 362.359375 C 280.492188 361.679688 281.496094 360.972656 282.480469 360.242188 C 283.46875 359.507812 284.433594 358.753906 285.382812 357.976562 C 286.332031 357.195312 287.261719 356.394531 288.171875 355.570312 C 289.082031 354.746094 289.96875 353.902344 290.835938 353.03125 C 291.707031 352.164062 292.550781 351.277344 293.375 350.367188 C 294.199219 349.457031 295 348.527344 295.78125 347.578125 C 296.558594 346.628906 297.3125 345.664062 298.046875 344.675781 C 298.777344 343.691406 299.484375 342.6875 300.164062 341.667969 C 300.847656 340.648438 301.503906 339.609375 302.132812 338.558594 C 302.765625 337.503906 303.371094 336.4375 303.949219 335.355469 C 304.527344 334.273438 305.078125 333.175781 305.605469 332.066406 C 306.128906 330.957031 306.625 329.835938 307.09375 328.703125 C 307.566406 327.566406 308.007812 326.421875 308.421875 325.265625 C 308.832031 324.109375 309.21875 322.945312 309.574219 321.769531 C 309.929688 320.597656 310.257812 319.414062 310.558594 318.222656 C 310.855469 317.03125 311.125 315.835938 311.363281 314.632812 C 311.601562 313.429688 311.8125 312.21875 311.992188 311.003906 C 312.171875 309.789062 312.324219 308.574219 312.441406 307.351562 C 312.5625 306.128906 312.652344 304.90625 312.714844 303.679688 C 312.773438 302.453125 312.804688 301.226562 312.804688 300 C 312.804688 298.773438 312.773438 297.546875 312.714844 296.320312 C 312.652344 295.09375 312.5625 293.871094 312.441406 292.648438 C 312.324219 291.425781 312.171875 290.210938 311.992188 288.996094 C 311.8125 287.78125 311.601562 286.570312 311.363281 285.367188 C 311.125 284.164062 310.855469 282.96875 310.558594 281.777344 C 310.257812 280.585938 309.929688 279.402344 309.574219 278.230469 C 309.21875 277.054688 308.832031 275.890625 308.421875 274.734375 C 308.007812 273.578125 307.566406 272.433594 307.09375 271.296875 C 306.625 270.164062 306.128906 269.042969 305.605469 267.933594 C 305.078125 266.824219 304.527344 265.726562 303.949219 264.644531 C 303.371094 263.5625 302.765625 262.496094 302.132812 261.441406 C 301.503906 260.390625 300.847656 259.351562 300.164062 258.332031 C 299.484375 257.3125 298.777344 256.308594 298.046875 255.324219 C 297.3125 254.335938 296.558594 253.371094 295.78125 252.421875 C 295 251.472656 294.199219 250.542969 293.375 249.632812 C 292.550781 248.722656 291.707031 247.835938 290.835938 246.96875 C 289.96875 246.097656 289.082031 245.253906 288.171875 244.429688 C 287.261719 243.605469 286.332031 242.804688 285.382812 242.023438 C 284.433594 241.246094 283.46875 240.492188 282.480469 239.757812 C 281.496094 239.027344 280.492188 238.320312 279.472656 237.640625 C 278.453125 236.957031 277.414062 236.300781 276.363281 235.671875 C 275.308594 235.039062 274.242188 234.433594 273.160156 233.855469 C 272.078125 233.277344 270.980469 232.726562 269.871094 232.199219 C 268.761719 231.675781 267.640625 231.179688 266.503906 230.710938 C 265.371094 230.238281 264.226562 229.796875 263.070312 229.382812 C 261.914062 228.96875 260.75 228.585938 259.574219 228.230469 C 258.402344 227.875 257.21875 227.546875 256.027344 227.246094 C 254.835938 226.949219 253.640625 226.679688 252.4375 226.441406 C 251.230469 226.203125 250.023438 225.992188 248.808594 225.8125 C 247.59375 225.632812 246.378906 225.480469 245.15625 225.359375 C 243.933594 225.242188 242.710938 225.152344 241.484375 225.089844 C 240.257812 225.03125 239.03125 225 237.804688 225 C 236.578125 225 235.351562 225.03125 234.125 225.089844 C 232.898438 225.152344 231.675781 225.242188 230.453125 225.359375 C 229.230469 225.480469 228.015625 225.632812 226.800781 225.8125 C 225.585938 225.992188 224.375 226.203125 223.171875 226.441406 C 221.96875 226.679688 220.773438 226.949219 219.582031 227.246094 C 218.390625 227.546875 217.207031 227.875 216.03125 228.230469 C 214.859375 228.585938 213.695312 228.96875 212.539062 229.382812 C 211.382812 229.796875 210.238281 230.238281 209.101562 230.710938 C 207.96875 231.179688 206.847656 231.675781 205.738281 232.199219 C 204.628906 232.726562 203.53125 233.277344 202.449219 233.855469 C 201.367188 234.433594 200.300781 235.039062 199.246094 235.671875 C 198.195312 236.300781 197.15625 236.957031 196.136719 237.640625 C 195.117188 238.320312 194.113281 239.027344 193.128906 239.757812 C 192.140625 240.492188 191.171875 241.246094 190.226562 242.023438 C 189.277344 242.804688 188.347656 243.605469 187.4375 244.429688 C 186.527344 245.253906 185.640625 246.097656 184.769531 246.96875 C 183.902344 247.835938 183.058594 248.722656 182.234375 249.632812 C 181.410156 250.542969 180.605469 251.472656 179.828125 252.421875 C 179.050781 253.371094 178.296875 254.335938 177.5625 255.324219 C 176.832031 256.308594 176.125 257.3125 175.445312 258.332031 C 174.761719 259.351562 174.105469 260.390625 173.476562 261.441406 C 172.84375 262.496094 172.238281 263.5625 171.660156 264.644531 C 171.082031 265.726562 170.53125 266.824219 170.003906 267.933594 C 169.480469 269.042969 168.984375 270.164062 168.511719 271.296875 C 168.042969 272.433594 167.601562 273.578125 167.1875 274.734375 C 166.773438 275.890625 166.390625 277.054688 166.035156 278.230469 C 165.675781 279.402344 165.351562 280.585938 165.050781 281.777344 C 164.753906 282.96875 164.484375 284.164062 164.246094 285.367188 C 164.007812 286.570312 163.796875 287.78125 163.617188 288.996094 C 163.4375 290.210938 163.285156 291.425781 163.164062 292.648438 C 163.046875 293.871094 162.953125 295.09375 162.894531 296.320312 C 162.835938 297.546875 162.804688 298.773438 162.804688 300 C 162.804688 301.226562 162.835938 302.453125 162.894531 303.679688 C 162.953125 304.90625 163.046875 306.128906 163.164062 307.351562 C 163.285156 308.574219 163.4375 309.789062 163.617188 311.003906 C 163.796875 312.21875 164.007812 313.429688 164.246094 314.632812 C 164.484375 315.835938 164.753906 317.03125 165.050781 318.222656 C 165.351562 319.414062 165.675781 320.597656 166.035156 321.769531 C 166.390625 322.945312 166.773438 324.109375 167.1875 325.265625 C 167.601562 326.421875 168.042969 327.566406 168.511719 328.703125 C 168.984375 329.835938 169.480469 330.957031 170.003906 332.066406 C 170.53125 333.175781 171.082031 334.273438 171.660156 335.355469 C 172.238281 336.4375 172.84375 337.503906 173.476562 338.558594 C 174.105469 339.609375 174.761719 340.648438 175.445312 341.667969 C 176.125 342.6875 176.832031 343.691406 177.5625 344.675781 C 178.296875 345.664062 179.050781 346.628906 179.828125 347.578125 C 180.605469 348.527344 181.410156 349.457031 182.234375 350.367188 C 183.058594 351.277344 183.902344 352.164062 184.769531 353.03125 C 185.640625 353.902344 186.527344 354.746094 187.4375 355.570312 C 188.347656 356.394531 189.277344 357.195312 190.226562 357.976562 C 191.171875 358.753906 192.140625 359.507812 193.125 360.242188 C 194.113281 360.972656 195.117188 361.679688 196.136719 362.359375 C 197.15625 363.042969 198.195312 363.699219 199.246094 364.328125 C 200.300781 364.960938 201.367188 365.566406 202.449219 366.144531 C 203.53125 366.722656 204.628906 367.273438 205.738281 367.800781 C 206.847656 368.324219 207.96875 368.820312 209.101562 369.289062 C 210.238281 369.761719 211.382812 370.203125 212.539062 370.617188 C 213.691406 371.03125 214.859375 371.414062 216.03125 371.769531 C 217.207031 372.125 218.390625 372.453125 219.582031 372.753906 C 220.773438 373.050781 221.96875 373.320312 223.171875 373.558594 C 224.375 373.796875 225.585938 374.007812 226.800781 374.1875 C 228.015625 374.367188 229.230469 374.519531 230.453125 374.640625 C 231.675781 374.757812 232.898438 374.847656 234.125 374.910156 C 235.351562 374.96875 236.578125 375 237.804688 375 Z M 200.152344 273.839844 C 200.621094 273.332031 201.109375 272.847656 201.628906 272.386719 C 202.144531 271.925781 202.683594 271.496094 203.246094 271.09375 C 203.804688 270.691406 204.386719 270.316406 204.988281 269.972656 C 205.585938 269.632812 206.203125 269.320312 206.835938 269.042969 C 207.46875 268.761719 208.113281 268.515625 208.773438 268.304688 C 209.429688 268.09375 210.097656 267.917969 210.773438 267.773438 C 211.449219 267.632812 212.132812 267.523438 212.820312 267.453125 C 213.507812 267.382812 214.195312 267.347656 214.886719 267.347656 C 215.578125 267.347656 216.269531 267.382812 216.957031 267.453125 C 217.644531 267.523438 218.324219 267.632812 219 267.773438 C 219.675781 267.917969 220.34375 268.09375 221.003906 268.304688 C 221.660156 268.515625 222.304688 268.761719 222.9375 269.042969 C 223.570312 269.320312 224.1875 269.632812 224.785156 269.972656 C 225.386719 270.316406 225.96875 270.691406 226.53125 271.09375 C 227.089844 271.496094 227.628906 271.925781 228.148438 272.386719 C 228.664062 272.847656 229.15625 273.332031 229.621094 273.839844 L 237.804688 282.539062 L 245.988281 273.839844 C 246.453125 273.332031 246.945312 272.847656 247.460938 272.386719 C 247.980469 271.929688 248.519531 271.496094 249.078125 271.09375 C 249.640625 270.691406 250.222656 270.320312 250.820312 269.976562 C 251.421875 269.632812 252.039062 269.324219 252.667969 269.042969 C 253.300781 268.765625 253.945312 268.519531 254.605469 268.308594 C 255.261719 268.097656 255.929688 267.917969 256.605469 267.777344 C 257.28125 267.636719 257.964844 267.527344 258.652344 267.457031 C 259.339844 267.386719 260.027344 267.347656 260.71875 267.347656 C 261.410156 267.347656 262.097656 267.386719 262.785156 267.457031 C 263.472656 267.527344 264.15625 267.636719 264.832031 267.777344 C 265.507812 267.917969 266.175781 268.097656 266.832031 268.308594 C 267.488281 268.519531 268.136719 268.765625 268.769531 269.042969 C 269.398438 269.324219 270.015625 269.632812 270.617188 269.976562 C 271.214844 270.320312 271.796875 270.691406 272.359375 271.09375 C 272.917969 271.496094 273.457031 271.929688 273.976562 272.386719 C 274.492188 272.847656 274.984375 273.332031 275.449219 273.839844 C 275.933594 274.367188 276.394531 274.917969 276.828125 275.488281 C 277.261719 276.058594 277.667969 276.648438 278.046875 277.253906 C 278.429688 277.863281 278.777344 278.488281 279.097656 279.128906 C 279.421875 279.769531 279.710938 280.425781 279.972656 281.09375 C 280.230469 281.761719 280.460938 282.4375 280.65625 283.128906 C 280.855469 283.816406 281.019531 284.511719 281.152344 285.21875 C 281.285156 285.921875 281.382812 286.632812 281.449219 287.34375 C 281.515625 288.058594 281.550781 288.773438 281.550781 289.492188 C 281.550781 290.207031 281.515625 290.921875 281.449219 291.636719 C 281.382812 292.351562 281.285156 293.058594 281.152344 293.765625 C 281.019531 294.46875 280.855469 295.164062 280.65625 295.855469 C 280.460938 296.542969 280.230469 297.222656 279.972656 297.890625 C 279.710938 298.558594 279.421875 299.210938 279.097656 299.851562 C 278.777344 300.492188 278.429688 301.117188 278.046875 301.726562 C 277.667969 302.335938 277.261719 302.921875 276.828125 303.492188 C 276.394531 304.0625 275.933594 304.613281 275.449219 305.140625 L 237.804688 345.140625 L 200.152344 305.140625 C 199.667969 304.613281 199.207031 304.0625 198.773438 303.492188 C 198.339844 302.921875 197.933594 302.335938 197.554688 301.726562 C 197.175781 301.117188 196.824219 300.492188 196.503906 299.851562 C 196.183594 299.210938 195.890625 298.558594 195.632812 297.890625 C 195.371094 297.222656 195.140625 296.542969 194.945312 295.855469 C 194.746094 295.164062 194.582031 294.46875 194.449219 293.765625 C 194.316406 293.058594 194.21875 292.351562 194.152344 291.636719 C 194.085938 290.921875 194.050781 290.207031 194.050781 289.492188 C 194.050781 288.773438 194.085938 288.058594 194.152344 287.34375 C 194.21875 286.632812 194.316406 285.921875 194.449219 285.21875 C 194.582031 284.511719 194.746094 283.816406 194.945312 283.128906 C 195.140625 282.4375 195.371094 281.761719 195.632812 281.09375 C 195.890625 280.425781 196.183594 279.769531 196.503906 279.128906 C 196.824219 278.488281 197.175781 277.863281 197.554688 277.253906 C 197.933594 276.648438 198.339844 276.058594 198.773438 275.488281 C 199.207031 274.917969 199.667969 274.367188 200.152344 273.839844 Z M 200.152344 273.839844 " fill-opacity="1" fill-rule="nonzero"/><path fill="#f39c12" d="M 81.550781 249.996094 C 79.914062 249.996094 78.277344 250.078125 76.648438 250.238281 C 75.019531 250.398438 73.402344 250.640625 71.796875 250.957031 C 70.1875 251.277344 68.601562 251.675781 67.035156 252.152344 C 65.46875 252.625 63.929688 253.175781 62.414062 253.804688 C 60.902344 254.429688 59.425781 255.128906 57.980469 255.902344 C 56.535156 256.675781 55.132812 257.515625 53.769531 258.425781 C 52.410156 259.335938 51.09375 260.308594 49.828125 261.347656 C 48.5625 262.386719 47.351562 263.484375 46.195312 264.644531 C 45.035156 265.800781 43.9375 267.011719 42.898438 268.277344 C 41.859375 269.546875 40.886719 270.859375 39.976562 272.21875 C 39.066406 273.582031 38.222656 274.984375 37.453125 276.429688 C 36.679688 277.875 35.980469 279.351562 35.355469 280.863281 C 34.726562 282.378906 34.175781 283.917969 33.703125 285.484375 C 33.226562 287.050781 32.828125 288.640625 32.507812 290.246094 C 32.191406 291.851562 31.949219 293.46875 31.789062 295.097656 C 31.628906 296.730469 31.546875 298.363281 31.546875 300 C 31.546875 301.636719 31.628906 303.269531 31.789062 304.902344 C 31.949219 306.53125 32.191406 308.148438 32.507812 309.753906 C 32.828125 311.359375 33.226562 312.949219 33.703125 314.515625 C 34.175781 316.082031 34.726562 317.621094 35.355469 319.136719 C 35.980469 320.648438 36.679688 322.125 37.453125 323.570312 C 38.222656 325.015625 39.066406 326.417969 39.976562 327.78125 C 40.886719 329.140625 41.859375 330.453125 42.898438 331.722656 C 43.9375 332.988281 45.035156 334.199219 46.195312 335.355469 C 47.351562 336.515625 48.5625 337.613281 49.828125 338.652344 C 51.09375 339.691406 52.410156 340.664062 53.769531 341.574219 C 55.132812 342.484375 56.535156 343.324219 57.980469 344.097656 C 59.425781 344.871094 60.902344 345.570312 62.414062 346.195312 C 63.929688 346.824219 65.46875 347.375 67.035156 347.847656 C 68.601562 348.324219 70.1875 348.722656 71.796875 349.042969 C 73.402344 349.359375 75.019531 349.601562 76.648438 349.761719 C 78.277344 349.921875 79.914062 350.003906 81.550781 350.003906 C 83.1875 350.003906 84.820312 349.921875 86.453125 349.761719 C 88.082031 349.601562 89.699219 349.359375 91.304688 349.042969 C 92.910156 348.722656 94.5 348.324219 96.066406 347.847656 C 97.632812 347.375 99.171875 346.824219 100.683594 346.195312 C 102.199219 345.570312 103.675781 344.871094 105.121094 344.097656 C 106.566406 343.324219 107.96875 342.484375 109.328125 341.574219 C 110.691406 340.664062 112.003906 339.691406 113.269531 338.652344 C 114.539062 337.613281 115.75 336.515625 116.90625 335.355469 C 118.066406 334.199219 119.164062 332.988281 120.203125 331.722656 C 121.242188 330.453125 122.214844 329.140625 123.125 327.78125 C 124.035156 326.417969 124.875 325.015625 125.648438 323.570312 C 126.421875 322.125 127.121094 320.648438 127.746094 319.136719 C 128.371094 317.621094 128.925781 316.082031 129.398438 314.515625 C 129.875 312.949219 130.273438 311.359375 130.589844 309.753906 C 130.910156 308.148438 131.152344 306.53125 131.3125 304.902344 C 131.472656 303.269531 131.550781 301.636719 131.550781 300 C 131.550781 298.363281 131.472656 296.730469 131.3125 295.097656 C 131.152344 293.46875 130.910156 291.851562 130.59375 290.246094 C 130.273438 288.636719 129.875 287.050781 129.402344 285.484375 C 128.925781 283.917969 128.375 282.378906 127.746094 280.863281 C 127.121094 279.351562 126.421875 277.871094 125.648438 276.429688 C 124.878906 274.984375 124.039062 273.582031 123.128906 272.21875 C 122.21875 270.855469 121.242188 269.542969 120.203125 268.277344 C 119.164062 267.011719 118.066406 265.800781 116.910156 264.640625 C 115.75 263.484375 114.539062 262.386719 113.273438 261.347656 C 112.007812 260.308594 110.691406 259.332031 109.332031 258.421875 C 107.96875 257.511719 106.566406 256.671875 105.121094 255.898438 C 103.679688 255.128906 102.199219 254.429688 100.6875 253.800781 C 99.171875 253.175781 97.632812 252.625 96.066406 252.148438 C 94.5 251.675781 92.910156 251.277344 91.304688 250.957031 C 89.699219 250.636719 88.082031 250.398438 86.453125 250.238281 C 84.820312 250.078125 83.1875 249.996094 81.550781 249.996094 Z M 106.554688 306.246094 L 87.804688 306.246094 L 87.804688 324.996094 L 75.300781 324.996094 L 75.300781 306.246094 L 56.550781 306.246094 L 56.550781 293.753906 L 75.300781 293.753906 L 75.300781 275.003906 L 87.804688 275.003906 L 87.804688 293.753906 L 106.554688 293.753906 Z M 106.554688 306.246094 " fill-opacity="1" fill-rule="nonzero"/><path fill="#f39c12" d="M 231.550781 112.5 C 231.550781 110.660156 231.503906 108.820312 231.414062 106.980469 C 231.324219 105.140625 231.1875 103.304688 231.007812 101.472656 C 230.828125 99.640625 230.601562 97.8125 230.332031 95.992188 C 230.0625 94.171875 229.746094 92.359375 229.390625 90.550781 C 229.03125 88.746094 228.625 86.949219 228.179688 85.164062 C 227.730469 83.378906 227.242188 81.605469 226.707031 79.84375 C 226.171875 78.082031 225.59375 76.332031 224.972656 74.601562 C 224.355469 72.867188 223.691406 71.148438 222.988281 69.449219 C 222.28125 67.746094 221.535156 66.0625 220.75 64.398438 C 219.960938 62.734375 219.132812 61.089844 218.265625 59.46875 C 217.398438 57.84375 216.492188 56.242188 215.542969 54.664062 C 214.597656 53.085938 213.613281 51.527344 212.589844 50 C 211.566406 48.46875 210.507812 46.960938 209.410156 45.484375 C 208.316406 44.003906 207.183594 42.554688 206.015625 41.128906 C 204.847656 39.707031 203.644531 38.3125 202.40625 36.949219 C 201.171875 35.585938 199.902344 34.253906 198.601562 32.949219 C 197.296875 31.648438 195.964844 30.378906 194.601562 29.144531 C 193.238281 27.90625 191.84375 26.703125 190.417969 25.535156 C 188.996094 24.367188 187.546875 23.234375 186.066406 22.140625 C 184.585938 21.042969 183.082031 19.984375 181.550781 18.960938 C 180.019531 17.9375 178.464844 16.953125 176.886719 16.003906 C 175.308594 15.058594 173.707031 14.152344 172.082031 13.285156 C 170.457031 12.414062 168.816406 11.589844 167.148438 10.800781 C 165.484375 10.015625 163.804688 9.269531 162.101562 8.5625 C 160.402344 7.859375 158.683594 7.195312 156.949219 6.578125 C 155.21875 5.957031 153.46875 5.378906 151.707031 4.84375 C 149.945312 4.308594 148.171875 3.820312 146.386719 3.371094 C 144.601562 2.925781 142.804688 2.519531 140.996094 2.160156 C 139.191406 1.800781 137.378906 1.488281 135.558594 1.21875 C 133.738281 0.949219 131.910156 0.722656 130.078125 0.542969 C 128.246094 0.359375 126.410156 0.226562 124.570312 0.136719 C 122.730469 0.046875 120.890625 0 119.050781 0 C 117.210938 0 115.371094 0.046875 113.53125 0.136719 C 111.691406 0.226562 109.855469 0.359375 108.023438 0.542969 C 106.191406 0.722656 104.363281 0.949219 102.542969 1.21875 C 100.722656 1.488281 98.910156 1.800781 97.101562 2.160156 C 95.296875 2.519531 93.5 2.925781 91.714844 3.371094 C 89.929688 3.820312 88.15625 4.308594 86.394531 4.84375 C 84.632812 5.378906 82.882812 5.957031 81.148438 6.578125 C 79.417969 7.195312 77.699219 7.859375 76 8.5625 C 74.296875 9.269531 72.613281 10.015625 70.949219 10.800781 C 69.285156 11.589844 67.640625 12.414062 66.019531 13.285156 C 64.394531 14.152344 62.792969 15.058594 61.214844 16.003906 C 59.632812 16.953125 58.078125 17.9375 56.546875 18.960938 C 55.019531 19.984375 53.511719 21.042969 52.035156 22.140625 C 50.554688 23.234375 49.105469 24.367188 47.679688 25.535156 C 46.257812 26.703125 44.863281 27.90625 43.5 29.144531 C 42.136719 30.378906 40.804688 31.648438 39.5 32.949219 C 38.199219 34.253906 36.929688 35.585938 35.695312 36.949219 C 34.457031 38.3125 33.253906 39.707031 32.085938 41.128906 C 30.917969 42.554688 29.785156 44.003906 28.691406 45.484375 C 27.59375 46.960938 26.53125 48.46875 25.511719 50 C 24.488281 51.527344 23.503906 53.085938 22.554688 54.664062 C 21.609375 56.242188 20.703125 57.84375 19.835938 59.46875 C 18.964844 61.089844 18.140625 62.734375 17.351562 64.398438 C 16.5625 66.0625 15.820312 67.746094 15.113281 69.449219 C 14.410156 71.148438 13.746094 72.867188 13.125 74.601562 C 12.507812 76.332031 11.929688 78.082031 11.394531 79.84375 C 10.859375 81.605469 10.371094 83.378906 9.921875 85.164062 C 9.472656 86.949219 9.070312 88.746094 8.710938 90.550781 C 8.351562 92.359375 8.039062 94.171875 7.769531 95.992188 C 7.496094 97.8125 7.273438 99.640625 7.09375 101.472656 C 6.910156 103.304688 6.777344 105.140625 6.6875 106.980469 C 6.59375 108.820312 6.550781 110.660156 6.550781 112.5 C 6.550781 114.339844 6.59375 116.179688 6.6875 118.019531 C 6.777344 119.859375 6.910156 121.695312 7.09375 123.527344 C 7.273438 125.359375 7.496094 127.1875 7.769531 129.007812 C 8.039062 130.828125 8.351562 132.640625 8.710938 134.449219 C 9.070312 136.253906 9.472656 138.050781 9.921875 139.835938 C 10.371094 141.621094 10.859375 143.394531 11.394531 145.15625 C 11.929688 146.917969 12.507812 148.667969 13.125 150.398438 C 13.746094 152.132812 14.410156 153.851562 15.113281 155.550781 C 15.820312 157.253906 16.5625 158.933594 17.351562 160.601562 C 18.140625 162.265625 18.964844 163.910156 19.835938 165.53125 C 20.703125 167.15625 21.609375 168.757812 22.554688 170.335938 C 23.503906 171.914062 24.488281 173.472656 25.511719 175 C 26.53125 176.53125 27.59375 178.039062 28.691406 179.515625 C 29.785156 180.996094 30.917969 182.445312 32.085938 183.871094 C 33.253906 185.292969 34.457031 186.6875 35.695312 188.050781 C 36.929688 189.414062 38.199219 190.746094 39.5 192.050781 C 40.804688 193.351562 42.136719 194.621094 43.5 195.855469 C 44.863281 197.09375 46.257812 198.296875 47.679688 199.464844 C 49.105469 200.632812 50.554688 201.765625 52.035156 202.859375 C 53.511719 203.957031 55.019531 205.015625 56.546875 206.039062 C 58.078125 207.0625 59.632812 208.046875 61.214844 208.996094 C 62.792969 209.941406 64.394531 210.847656 66.019531 211.714844 C 67.640625 212.582031 69.285156 213.410156 70.949219 214.199219 C 72.613281 214.984375 74.296875 215.730469 76 216.4375 C 77.699219 217.140625 79.417969 217.804688 81.148438 218.421875 C 82.882812 219.042969 84.632812 219.621094 86.394531 220.15625 C 88.15625 220.691406 89.929688 221.179688 91.714844 221.628906 C 93.5 222.074219 95.296875 222.480469 97.101562 222.839844 C 98.910156 223.199219 100.722656 223.511719 102.542969 223.78125 C 104.363281 224.050781 106.191406 224.277344 108.023438 224.457031 C 109.855469 224.640625 111.691406 224.773438 113.53125 224.863281 C 115.371094 224.953125 117.210938 225 119.050781 225 C 120.890625 225 122.730469 224.953125 124.570312 224.863281 C 126.410156 224.773438 128.246094 224.640625 130.078125 224.457031 C 131.910156 224.277344 133.738281 224.050781 135.558594 223.78125 C 137.378906 223.511719 139.191406 223.199219 140.996094 222.839844 C 142.804688 222.480469 144.601562 222.074219 146.386719 221.628906 C 148.171875 221.179688 149.945312 220.691406 151.707031 220.15625 C 153.46875 219.621094 155.21875 219.042969 156.949219 218.421875 C 158.683594 217.804688 160.402344 217.140625 162.101562 216.4375 C 163.804688 215.730469 165.484375 214.984375 167.148438 214.199219 C 168.816406 213.410156 170.457031 212.585938 172.082031 211.714844 C 173.707031 210.847656 175.308594 209.941406 176.886719 208.996094 C 178.464844 208.046875 180.019531 207.0625 181.550781 206.039062 C 183.082031 205.015625 184.585938 203.957031 186.066406 202.859375 C 187.546875 201.765625 188.996094 200.632812 190.417969 199.464844 C 191.84375 198.296875 193.238281 197.09375 194.601562 195.855469 C 195.964844 194.621094 197.296875 193.351562 198.601562 192.050781 C 199.902344 190.746094 201.171875 189.414062 202.40625 188.050781 C 203.644531 186.6875 204.847656 185.292969 206.015625 183.871094 C 207.183594 182.445312 208.316406 180.996094 209.410156 179.515625 C 210.507812 178.039062 211.566406 176.53125 212.589844 175 C 213.613281 173.472656 214.597656 171.914062 215.542969 170.335938 C 216.492188 168.757812 217.398438 167.15625 218.265625 165.53125 C 219.132812 163.910156 219.960938 162.265625 220.75 160.601562 C 221.535156 158.933594 222.28125 157.253906 222.988281 155.550781 C 223.691406 153.851562 224.355469 152.132812 224.972656 150.398438 C 225.59375 148.667969 226.171875 146.917969 226.707031 145.15625 C 227.242188 143.394531 227.730469 141.621094 228.179688 139.835938 C 228.625 138.050781 229.03125 136.253906 229.390625 134.449219 C 229.746094 132.640625 230.0625 130.828125 230.332031 129.007812 C 230.601562 127.1875 230.828125 125.359375 231.007812 123.527344 C 231.1875 121.695312 231.324219 119.859375 231.414062 118.019531 C 231.503906 116.179688 231.550781 114.339844 231.550781 112.5 Z M 75.300781 156.246094 C 75.300781 156.660156 75.261719 157.066406 75.183594 157.46875 C 75.101562 157.871094 74.984375 158.261719 74.828125 158.640625 C 74.671875 159.019531 74.476562 159.378906 74.25 159.71875 C 74.023438 160.0625 73.761719 160.378906 73.472656 160.667969 C 73.183594 160.957031 72.867188 161.21875 72.527344 161.445312 C 72.183594 161.675781 71.824219 161.867188 71.445312 162.023438 C 71.066406 162.179688 70.675781 162.300781 70.273438 162.378906 C 69.871094 162.460938 69.464844 162.5 69.054688 162.503906 L 50.304688 162.503906 C 49.894531 162.503906 49.488281 162.460938 49.085938 162.382812 C 48.679688 162.300781 48.289062 162.183594 47.910156 162.027344 C 47.53125 161.867188 47.171875 161.675781 46.828125 161.449219 C 46.488281 161.21875 46.171875 160.960938 45.882812 160.671875 C 45.589844 160.378906 45.332031 160.0625 45.105469 159.722656 C 44.875 159.382812 44.683594 159.019531 44.527344 158.640625 C 44.371094 158.261719 44.25 157.871094 44.171875 157.46875 C 44.089844 157.066406 44.050781 156.660156 44.050781 156.246094 L 44.050781 87.503906 C 44.050781 87.089844 44.089844 86.683594 44.171875 86.28125 C 44.25 85.878906 44.371094 85.488281 44.527344 85.109375 C 44.683594 84.730469 44.875 84.367188 45.105469 84.027344 C 45.332031 83.6875 45.589844 83.371094 45.882812 83.078125 C 46.171875 82.789062 46.488281 82.53125 46.828125 82.300781 C 47.171875 82.074219 47.53125 81.882812 47.910156 81.722656 C 48.289062 81.566406 48.679688 81.449219 49.085938 81.367188 C 49.488281 81.289062 49.894531 81.246094 50.304688 81.246094 L 69.054688 81.246094 C 69.464844 81.25 69.871094 81.289062 70.273438 81.371094 C 70.675781 81.449219 71.066406 81.570312 71.445312 81.726562 C 71.824219 81.882812 72.183594 82.074219 72.527344 82.304688 C 72.867188 82.53125 73.183594 82.792969 73.472656 83.082031 C 73.761719 83.371094 74.023438 83.6875 74.25 84.03125 C 74.476562 84.371094 74.671875 84.730469 74.828125 85.109375 C 74.984375 85.488281 75.101562 85.878906 75.183594 86.28125 C 75.261719 86.683594 75.300781 87.089844 75.300781 87.503906 Z M 194.050781 134.378906 C 194.050781 134.992188 193.992188 135.601562 193.871094 136.207031 C 193.75 136.808594 193.574219 137.394531 193.335938 137.964844 C 193.101562 138.535156 192.8125 139.074219 192.46875 139.585938 C 192.128906 140.097656 191.738281 140.570312 191.304688 141.007812 C 190.871094 141.441406 190.394531 141.828125 189.882812 142.171875 C 189.371094 142.515625 188.832031 142.804688 188.261719 143.039062 C 187.695312 143.273438 187.109375 143.453125 186.503906 143.570312 C 185.902344 143.691406 185.289062 143.753906 184.675781 143.753906 L 178.425781 143.753906 C 179.042969 143.753906 179.652344 143.8125 180.257812 143.933594 C 180.859375 144.050781 181.445312 144.230469 182.015625 144.464844 C 182.582031 144.703125 183.125 144.988281 183.636719 145.332031 C 184.148438 145.675781 184.621094 146.0625 185.054688 146.496094 C 185.492188 146.933594 185.878906 147.40625 186.222656 147.917969 C 186.5625 148.429688 186.851562 148.96875 187.089844 149.539062 C 187.324219 150.109375 187.503906 150.695312 187.621094 151.296875 C 187.742188 151.902344 187.800781 152.511719 187.800781 153.128906 C 187.800781 153.742188 187.742188 154.351562 187.621094 154.957031 C 187.503906 155.558594 187.324219 156.144531 187.089844 156.714844 C 186.851562 157.285156 186.5625 157.824219 186.222656 158.335938 C 185.878906 158.847656 185.492188 159.320312 185.054688 159.757812 C 184.621094 160.191406 184.148438 160.578125 183.636719 160.921875 C 183.125 161.265625 182.582031 161.554688 182.015625 161.789062 C 181.445312 162.023438 180.859375 162.203125 180.257812 162.320312 C 179.652344 162.441406 179.042969 162.503906 178.425781 162.503906 L 100.300781 162.503906 L 93.15625 156.265625 L 87.804688 156.265625 L 87.804688 87.503906 L 101.714844 87.503906 C 102.980469 87.503906 104.238281 87.40625 105.488281 87.214844 C 106.738281 87.023438 107.96875 86.742188 109.175781 86.363281 C 110.382812 85.984375 111.554688 85.519531 112.691406 84.964844 C 113.828125 84.410156 114.914062 83.769531 115.957031 83.050781 C 116.996094 82.328125 117.972656 81.535156 118.894531 80.664062 C 119.8125 79.796875 120.660156 78.863281 121.4375 77.863281 C 122.214844 76.867188 122.914062 75.816406 123.53125 74.710938 C 124.148438 73.609375 124.679688 72.464844 125.121094 71.28125 L 134.710938 45.71875 C 134.988281 44.964844 135.335938 44.242188 135.75 43.554688 C 136.164062 42.867188 136.640625 42.222656 137.179688 41.628906 C 137.71875 41.03125 138.308594 40.488281 138.949219 40.003906 C 139.589844 39.515625 140.269531 39.097656 140.992188 38.742188 C 141.710938 38.386719 142.460938 38.101562 143.234375 37.886719 C 144.011719 37.675781 144.800781 37.539062 145.601562 37.472656 C 146.402344 37.410156 147.203125 37.425781 148 37.515625 C 148.800781 37.601562 149.582031 37.765625 150.351562 38.003906 C 151.117188 38.242188 151.855469 38.554688 152.566406 38.933594 C 153.273438 39.3125 153.941406 39.753906 154.566406 40.261719 C 155.191406 40.765625 155.761719 41.328125 156.28125 41.941406 C 156.796875 42.554688 157.253906 43.214844 157.644531 43.917969 C 158.039062 44.617188 158.363281 45.351562 158.613281 46.113281 C 158.867188 46.875 159.046875 47.65625 159.152344 48.453125 C 159.253906 49.25 159.285156 50.050781 159.234375 50.851562 C 159.1875 51.65625 159.066406 52.445312 158.867188 53.226562 L 150.300781 87.503906 L 197.175781 87.503906 C 197.792969 87.503906 198.402344 87.5625 199.007812 87.683594 C 199.609375 87.800781 200.195312 87.980469 200.765625 88.214844 C 201.332031 88.453125 201.875 88.738281 202.386719 89.082031 C 202.898438 89.425781 203.371094 89.8125 203.804688 90.246094 C 204.242188 90.683594 204.628906 91.15625 204.972656 91.667969 C 205.3125 92.179688 205.601562 92.71875 205.839844 93.289062 C 206.074219 93.859375 206.253906 94.445312 206.371094 95.046875 C 206.492188 95.652344 206.550781 96.261719 206.550781 96.878906 C 206.550781 97.492188 206.492188 98.101562 206.371094 98.707031 C 206.253906 99.308594 206.074219 99.894531 205.839844 100.464844 C 205.601562 101.035156 205.3125 101.574219 204.972656 102.085938 C 204.628906 102.597656 204.242188 103.070312 203.804688 103.507812 C 203.371094 103.941406 202.898438 104.328125 202.386719 104.671875 C 201.875 105.015625 201.332031 105.304688 200.765625 105.539062 C 200.195312 105.773438 199.609375 105.953125 199.007812 106.070312 C 198.402344 106.191406 197.792969 106.253906 197.175781 106.253906 L 190.929688 106.253906 C 191.546875 106.253906 192.15625 106.3125 192.757812 106.433594 C 193.363281 106.550781 193.949219 106.730469 194.515625 106.964844 C 195.085938 107.203125 195.625 107.488281 196.136719 107.832031 C 196.648438 108.175781 197.125 108.5625 197.558594 108.996094 C 197.992188 109.433594 198.382812 109.90625 198.722656 110.417969 C 199.066406 110.929688 199.355469 111.46875 199.589844 112.039062 C 199.828125 112.609375 200.003906 113.195312 200.125 113.796875 C 200.246094 114.402344 200.304688 115.011719 200.304688 115.628906 C 200.304688 116.242188 200.246094 116.851562 200.125 117.457031 C 200.003906 118.058594 199.828125 118.644531 199.589844 119.214844 C 199.355469 119.785156 199.066406 120.324219 198.722656 120.835938 C 198.382812 121.347656 197.992188 121.820312 197.558594 122.257812 C 197.125 122.691406 196.648438 123.078125 196.136719 123.421875 C 195.625 123.765625 195.085938 124.054688 194.515625 124.289062 C 193.949219 124.523438 193.363281 124.703125 192.757812 124.820312 C 192.15625 124.941406 191.546875 125.003906 190.929688 125.003906 L 184.675781 125.003906 C 185.289062 125.003906 185.902344 125.0625 186.503906 125.183594 C 187.109375 125.300781 187.695312 125.480469 188.261719 125.714844 C 188.832031 125.953125 189.371094 126.238281 189.882812 126.582031 C 190.394531 126.925781 190.871094 127.3125 191.304688 127.746094 C 191.738281 128.183594 192.128906 128.65625 192.46875 129.167969 C 192.8125 129.679688 193.101562 130.21875 193.335938 130.789062 C 193.574219 131.359375 193.75 131.945312 193.871094 132.546875 C 193.992188 133.152344 194.050781 133.761719 194.050781 134.378906 Z M 194.050781 134.378906 " fill-opacity="1" fill-rule="nonzero"/></svg>