<svg xmlns="http://www.w3.org/2000/svg" xmlns:xlink="http://www.w3.org/1999/xlink" width="500" zoomAndPan="magnify" viewBox="0 0 375 374.999991" height="500" preserveAspectRatio="xMidYMid meet" version="1.0"><path fill="#f39c12" d="M 265.839844 119.804688 C 265.234375 117.617188 263.769531 115.839844 261.679688 114.746094 C 262.128906 109.84375 261.464844 103.828125 260.332031 98.867188 C 259.335938 94.804688 257.8125 90.253906 255.46875 85.488281 C 253.007812 80.820312 249.960938 75.820312 245.683594 71.230469 C 241.621094 66.464844 236.386719 62.148438 230.46875 58.320312 C 178.945312 25.644531 107.792969 64.296875 113.320312 114.765625 C 111.25 115.839844 109.785156 117.636719 109.199219 119.804688 C 96.992188 120.019531 87.1875 129.082031 87.1875 140.273438 C 87.1875 151.464844 96.992188 160.546875 109.199219 160.761719 C 110.15625 164.296875 113.496094 166.972656 117.65625 166.972656 C 122.597656 166.972656 126.582031 163.320312 126.582031 158.808594 L 126.582031 121.757812 C 126.582031 119.179688 125.214844 116.992188 123.203125 115.488281 C 125.429688 102.734375 132.050781 89.257812 141.347656 80.898438 C 155 67.597656 178.691406 59.902344 204.726562 65.703125 C 214.726562 68.691406 224.589844 73.710938 232.8125 81.738281 C 241.953125 89.960938 249.375 102.285156 251.796875 115.507812 C 246.523438 119.414062 248.417969 122.792969 248.417969 158.808594 C 248.417969 161.621094 250.078125 164.003906 252.460938 165.46875 L 252.460938 168.59375 C 252.460938 170.585938 251.894531 172.539062 250.820312 174.21875 C 239.160156 192.363281 238.398438 194.21875 220.800781 199.84375 C 215.273438 201.621094 209.023438 202.382812 202.695312 203.925781 C 196.894531 198.164062 186.601562 201.953125 186.601562 209.667969 C 186.601562 219.375 201.777344 221.601562 204.726562 211.875 C 208.984375 210.839844 213.378906 210.234375 217.519531 208.964844 C 240.214844 202.070312 247.636719 197.96875 259.648438 175.039062 C 260.78125 172.871094 261.386719 170.46875 261.386719 168.007812 L 261.386719 165.976562 C 263.613281 164.921875 265.214844 163.046875 265.839844 160.761719 C 278.007812 160.527344 287.8125 151.464844 287.8125 140.273438 C 287.8125 129.101562 278.007812 120.039062 265.839844 119.804688 " fill-opacity="1" fill-rule="nonzero"/><path fill="#f39c12" d="M 187.539062 252.265625 C 194.824219 242.03125 201.152344 233.242188 207.382812 224.355469 C 214.667969 213.964844 222.011719 210.605469 233.515625 214.492188 C 248.144531 219.433594 262.636719 224.941406 276.777344 231.09375 C 288.945312 236.40625 295.78125 245.859375 295.019531 259.882812 C 294.628906 266.796875 295.019531 273.730469 294.921875 280.644531 C 294.667969 299.707031 285.996094 308.574219 267.109375 308.671875 C 242.734375 308.808594 218.359375 308.710938 193.984375 308.710938 C 165.644531 308.710938 137.324219 308.789062 108.984375 308.671875 C 88.730469 308.59375 80.195312 299.941406 80.078125 279.785156 C 80.039062 273.203125 80.410156 266.582031 80 260.019531 C 79.101562 245.429688 86.621094 236.035156 99.023438 230.683594 C 113.183594 224.570312 127.753906 219.238281 142.402344 214.394531 C 154.902344 210.234375 158.769531 212.089844 166.503906 222.929688 C 173.164062 232.265625 179.863281 241.582031 187.539062 252.265625 " fill-opacity="1" fill-rule="nonzero"/><path fill="#f39c12" d="M 239.160156 130.605469 C 237.832031 147.792969 232.402344 169.785156 214.375 186.699219 C 199.082031 201.035156 175.761719 201.40625 160.722656 186.71875 C 139.863281 166.347656 133.300781 140.46875 136.523438 112.539062 C 138.222656 97.910156 147.128906 86.40625 162.109375 81.503906 C 184.355469 74.21875 205.898438 73.515625 225.507812 89.0625 C 236.953125 98.144531 239.570312 110.605469 239.160156 130.605469 " fill-opacity="1" fill-rule="nonzero"/><path fill="#f39c12" d="M 187.5 360.3125 C 92.050781 360.3125 14.6875 282.949219 14.6875 187.5 C 14.6875 92.050781 92.050781 14.6875 187.5 14.6875 C 282.949219 14.6875 360.3125 92.050781 360.3125 187.5 C 360.3125 282.949219 282.949219 360.3125 187.5 360.3125 Z M 187.5 0 C 83.945312 0 0 83.945312 0 187.5 C 0 291.054688 83.945312 375 187.5 375 C 291.054688 375 375 291.054688 375 187.5 C 375 83.945312 291.054688 0 187.5 0 " fill-opacity="1" fill-rule="nonzero"/><path fill="#f39c12" d="M 265.839844 119.804688 C 265.234375 117.617188 263.769531 115.839844 261.679688 114.746094 C 262.128906 109.84375 261.464844 103.828125 260.332031 98.867188 C 259.335938 94.804688 257.8125 90.253906 255.46875 85.488281 C 253.007812 80.820312 249.960938 75.820312 245.683594 71.230469 C 241.621094 66.464844 236.386719 62.148438 230.46875 58.320312 C 178.945312 25.644531 107.792969 64.296875 113.320312 114.765625 C 111.25 115.839844 109.785156 117.636719 109.199219 119.804688 C 96.992188 120.019531 87.1875 129.082031 87.1875 140.273438 C 87.1875 151.464844 96.992188 160.546875 109.199219 160.761719 C 110.15625 164.296875 113.496094 166.972656 117.65625 166.972656 C 122.597656 166.972656 126.582031 163.320312 126.582031 158.808594 L 126.582031 121.757812 C 126.582031 119.179688 125.214844 116.992188 123.203125 115.488281 C 125.429688 102.734375 132.050781 89.257812 141.347656 80.898438 C 155 67.597656 178.691406 59.902344 204.726562 65.703125 C 214.726562 68.691406 224.589844 73.710938 232.8125 81.738281 C 241.953125 89.960938 249.375 102.285156 251.796875 115.507812 C 246.523438 119.414062 248.417969 122.792969 248.417969 158.808594 C 248.417969 161.621094 250.078125 164.003906 252.460938 165.46875 L 252.460938 168.59375 C 252.460938 170.585938 251.894531 172.539062 250.820312 174.21875 C 239.160156 192.363281 238.398438 194.21875 220.800781 199.84375 C 215.273438 201.621094 209.023438 202.382812 202.695312 203.925781 C 196.894531 198.164062 186.601562 201.953125 186.601562 209.667969 C 186.601562 219.375 201.777344 221.601562 204.726562 211.875 C 208.984375 210.839844 213.378906 210.234375 217.519531 208.964844 C 240.214844 202.070312 247.636719 197.96875 259.648438 175.039062 C 260.78125 172.871094 261.386719 170.46875 261.386719 168.007812 L 261.386719 165.976562 C 263.613281 164.921875 265.214844 163.046875 265.839844 160.761719 C 278.007812 160.527344 287.8125 151.464844 287.8125 140.273438 C 287.8125 129.101562 278.007812 120.039062 265.839844 119.804688 " fill-opacity="1" fill-rule="nonzero"/><path fill="#f39c12" d="M 187.539062 252.265625 C 194.824219 242.03125 201.152344 233.242188 207.382812 224.355469 C 214.667969 213.964844 222.011719 210.605469 233.515625 214.492188 C 248.144531 219.433594 262.636719 224.941406 276.777344 231.09375 C 288.945312 236.40625 295.78125 245.859375 295.019531 259.882812 C 294.628906 266.796875 295.019531 273.730469 294.921875 280.644531 C 294.667969 299.707031 285.996094 308.574219 267.109375 308.671875 C 242.734375 308.808594 218.359375 308.710938 193.984375 308.710938 C 165.644531 308.710938 137.324219 308.789062 108.984375 308.671875 C 88.730469 308.59375 80.195312 299.941406 80.078125 279.785156 C 80.039062 273.203125 80.410156 266.582031 80 260.019531 C 79.101562 245.429688 86.621094 236.035156 99.023438 230.683594 C 113.183594 224.570312 127.753906 219.238281 142.402344 214.394531 C 154.902344 210.234375 158.769531 212.089844 166.503906 222.929688 C 173.164062 232.265625 179.863281 241.582031 187.539062 252.265625 " fill-opacity="1" fill-rule="nonzero"/><path fill="#f39c12" d="M 239.160156 130.605469 C 237.832031 147.792969 232.402344 169.785156 214.375 186.699219 C 199.082031 201.035156 175.761719 201.40625 160.722656 186.71875 C 139.863281 166.347656 133.300781 140.46875 136.523438 112.539062 C 138.222656 97.910156 147.128906 86.40625 162.109375 81.503906 C 184.355469 74.21875 205.898438 73.515625 225.507812 89.0625 C 236.953125 98.144531 239.570312 110.605469 239.160156 130.605469 " fill-opacity="1" fill-rule="nonzero"/><path fill="#f39c12" d="M 187.5 360.3125 C 92.050781 360.3125 14.6875 282.949219 14.6875 187.5 C 14.6875 92.050781 92.050781 14.6875 187.5 14.6875 C 282.949219 14.6875 360.3125 92.050781 360.3125 187.5 C 360.3125 282.949219 282.949219 360.3125 187.5 360.3125 Z M 187.5 0 C 83.945312 0 0 83.945312 0 187.5 C 0 291.054688 83.945312 375 187.5 375 C 291.054688 375 375 291.054688 375 187.5 C 375 83.945312 291.054688 0 187.5 0 " fill-opacity="1" fill-rule="nonzero"/></svg>